<svg width="20" height="20" viewBox="0 0 20 20" fill="none" xmlns="http://www.w3.org/2000/svg">
<path fill-rule="evenodd" clip-rule="evenodd" d="M10 1.95417L14.7167 6.6625C16.0167 7.9625 16.6667 9.69583 16.6667 11.3625C16.6667 13.0292 16.0167 14.7875 14.7167 16.0875C13.4167 17.3875 11.7083 18.0458 10 18.0458C8.29168 18.0458 6.58334 17.3875 5.28334 16.0875C3.98334 14.7875 3.33334 13.0292 3.33334 11.3625C3.33334 9.69583 3.98334 7.9625 5.28334 6.6625L10 1.95417ZM6.46668 7.99583C5.51668 8.9375 5.00834 9.99583 5.00001 11.6625H15C14.9917 9.99583 14.4833 8.97083 13.5333 8.0375L10 4.3875L6.46668 7.99583Z" fill="black"/>
</svg>
