<svg width="419" height="382" viewBox="0 0 419 382" fill="none" xmlns="http://www.w3.org/2000/svg">
<path d="M375.079 50.5732C375.079 50.5732 342.162 5.19134 282.354 5.51231C222.546 5.83329 185.991 46.356 144.986 70.0188C123.517 82.3941 97.1349 82.0464 73.6593 89.714C-1.49278 114.224 -18.7183 209.722 20.0569 257.805C53.6253 299.425 105.507 316.65 180.623 312.522C255.74 308.394 308.763 308.02 369.729 255.184C430.696 202.349 414.434 110.747 375.079 50.5732Z" fill="black"/>
<path opacity="0.7" d="M375.079 50.5732C375.079 50.5732 342.162 5.19134 282.354 5.51231C222.546 5.83329 185.991 46.356 144.986 70.0188C123.517 82.3941 97.1349 82.0464 73.6593 89.714C-1.49278 114.224 -18.7183 209.722 20.0569 257.805C53.6253 299.425 105.507 316.65 180.623 312.522C255.74 308.394 308.763 308.02 369.729 255.184C430.696 202.349 414.434 110.747 375.079 50.5732Z" fill="white"/>
<path d="M61.9972 20.9189C60.0624 19.7373 57.8359 19.1197 55.5689 19.1357C52.7597 19.1318 50.0337 20.0894 47.8441 21.8492C45.6544 23.609 44.1329 26.0652 43.5324 28.8094C42.4041 27.7137 40.9787 26.9737 39.4334 26.6814C37.888 26.3891 36.2908 26.5573 34.8402 27.1653C33.3897 27.7732 32.1498 28.794 31.2747 30.1009C30.3995 31.4077 29.9277 32.9428 29.9178 34.5156C29.9178 34.6137 29.9178 34.7117 29.9178 34.8098H95.8241" stroke="#B2B2B2" stroke-width="0.89159" stroke-linecap="round" stroke-linejoin="round"/>
<path d="M104.161 34.8098H145.227C144.845 34.1766 144.333 33.6313 143.725 33.2094C143.117 32.7875 142.427 32.4986 141.7 32.3614C140.973 32.2243 140.226 32.242 139.506 32.4135C138.786 32.5849 138.111 32.9062 137.524 33.3565C136.958 31.7281 135.899 30.3162 134.495 29.3162C133.091 28.3161 131.411 27.7776 129.687 27.7751C128.258 27.7737 126.853 28.1456 125.612 28.8539C125.257 24.9964 123.533 21.3933 120.752 18.6966C117.971 15.9999 114.317 14.3878 110.45 14.1518C106.584 13.9159 102.76 15.0718 99.6719 17.4103C96.5836 19.7489 94.4344 23.1156 93.6131 26.9014C92.2797 25.5864 90.6199 24.6506 88.8047 24.1902C86.9894 23.7297 85.0843 23.7613 83.2853 24.2816C81.4863 24.802 79.8585 25.7923 78.5694 27.1507C77.2802 28.5091 76.3763 30.1864 75.9507 32.0102C75.0355 30.7821 73.7039 29.9299 72.2055 29.6131C70.707 29.2964 69.1444 29.5368 67.8105 30.2894C67.6416 28.2386 66.9577 26.2636 65.8223 24.5476" stroke="#B2B2B2" stroke-width="0.89159" stroke-linecap="round" stroke-linejoin="round"/>
<path d="M287.828 209.035H384.12C383.737 208.402 383.225 207.857 382.618 207.435C382.01 207.013 381.32 206.724 380.593 206.587C379.866 206.45 379.118 206.468 378.399 206.639C377.679 206.811 377.003 207.132 376.416 207.582C376.019 206.434 375.375 205.386 374.528 204.515C373.681 203.643 372.653 202.968 371.517 202.538C370.38 202.107 369.163 201.932 367.952 202.024C366.74 202.116 365.563 202.473 364.505 203.071C364.138 199.041 362.278 195.295 359.291 192.567C356.303 189.838 352.404 188.325 348.358 188.324C347.207 188.322 346.059 188.445 344.934 188.689" stroke="#B2B2B2" stroke-width="0.89159" stroke-linecap="round" stroke-linejoin="round"/>
<path d="M340.129 190.552C338.191 191.689 336.511 193.216 335.194 195.037C333.877 196.857 332.952 198.931 332.479 201.127C331.145 199.812 329.486 198.876 327.67 198.416C325.855 197.955 323.95 197.987 322.151 198.507C320.352 199.027 318.724 200.018 317.435 201.376C316.146 202.734 315.242 204.412 314.816 206.236C313.909 205 312.578 204.142 311.079 203.825C309.579 203.507 308.015 203.753 306.685 204.515C306.417 201.587 305.109 198.853 302.999 196.806C300.889 194.759 298.115 193.536 295.181 193.357C292.247 193.178 289.345 194.055 287.002 195.831C284.659 197.606 283.029 200.162 282.407 203.035C281.279 201.939 279.853 201.199 278.308 200.907C276.763 200.614 275.165 200.783 273.715 201.391C272.264 201.999 271.024 203.019 270.149 204.326C269.274 205.633 268.802 207.168 268.792 208.741C268.792 208.839 268.792 208.937 268.792 209.035H278.912" stroke="#B2B2B2" stroke-width="0.89159" stroke-linecap="round" stroke-linejoin="round"/>
<path d="M412.65 267.203H3.41089V276.796H412.65V267.203Z" fill="#B2B2B2"/>
<path d="M305.838 271.973V3.30115" stroke="#B2B2B2" stroke-width="1.78318" stroke-linecap="round" stroke-linejoin="round"/>
<path d="M149.328 271.973V4.38892" stroke="#B2B2B2" stroke-width="1.78318" stroke-linecap="round" stroke-linejoin="round"/>
<path d="M2.87598 172.703H412.659" stroke="#B2B2B2" stroke-width="1.78318" stroke-linecap="round" stroke-linejoin="round"/>
<path d="M5.19397 64.9099H418" stroke="#B2B2B2" stroke-width="1.78318" stroke-linecap="round" stroke-linejoin="round"/>
<path d="M204.669 121.25L200.622 123.746" stroke="#B2B2B2" stroke-width="0.445795" stroke-linecap="round" stroke-linejoin="round"/>
<path d="M272.921 79.1934L210.108 117.897" stroke="#B2B2B2" stroke-width="0.445795" stroke-linecap="round" stroke-linejoin="round"/>
<path d="M281.203 81.8057L230.882 112.815" stroke="#B2B2B2" stroke-width="0.445795" stroke-linecap="round" stroke-linejoin="round"/>
<path d="M303.181 68.2622L287.988 77.6328" stroke="#B2B2B2" stroke-width="0.445795" stroke-linecap="round" stroke-linejoin="round"/>
<g opacity="0.3">
<path d="M39.761 254.783L35.7131 257.279" stroke="black" stroke-width="0.445795" stroke-linecap="round" stroke-linejoin="round"/>
<path d="M108.012 212.727L45.2085 251.43" stroke="#B2B2B2" stroke-width="0.445795" stroke-linecap="round" stroke-linejoin="round"/>
<path d="M116.295 215.339L65.9825 246.357" stroke="#B2B2B2" stroke-width="0.445795" stroke-linecap="round" stroke-linejoin="round"/>
<path d="M138.273 201.796L123.08 211.167" stroke="#B2B2B2" stroke-width="0.445795" stroke-linecap="round" stroke-linejoin="round"/>
</g>
<path opacity="0.3" d="M269.827 258.001L265.779 260.498" stroke="black" stroke-width="0.445795" stroke-linecap="round" stroke-linejoin="round"/>
<path d="M338.078 215.945L275.266 254.649" stroke="#B2B2B2" stroke-width="0.445795" stroke-linecap="round" stroke-linejoin="round"/>
<path d="M346.361 218.558L296.048 249.567" stroke="#B2B2B2" stroke-width="0.445795" stroke-linecap="round" stroke-linejoin="round"/>
<path d="M368.338 205.015L353.146 214.385" stroke="#B2B2B2" stroke-width="0.445795" stroke-linecap="round" stroke-linejoin="round"/>
<g opacity="0.3">
<path d="M18.3984 126.046L14.3506 128.543" stroke="#B2B2B2" stroke-width="0.445795" stroke-linecap="round" stroke-linejoin="round"/>
<path d="M86.6496 83.99L23.8372 122.694" stroke="#B2B2B2" stroke-width="0.445795" stroke-linecap="round" stroke-linejoin="round"/>
<path d="M94.9325 86.6023L44.6201 117.612" stroke="#B2B2B2" stroke-width="0.445795" stroke-linecap="round" stroke-linejoin="round"/>
<path d="M116.91 73.0591L101.718 82.4297" stroke="#B2B2B2" stroke-width="0.445795" stroke-linecap="round" stroke-linejoin="round"/>
</g>
<path d="M393.66 367.221H402.05" stroke="#263238" stroke-width="0.89159" stroke-linecap="round" stroke-linejoin="round"/>
<path d="M163.665 367.221H383.87" stroke="#263238" stroke-width="0.89159" stroke-linecap="round" stroke-linejoin="round"/>
<path d="M7.76184 367.221H158.066" stroke="#263238" stroke-width="0.89159" stroke-linecap="round" stroke-linejoin="round"/>
<path d="M350.676 221.054L362.463 333.992" stroke="#263238" stroke-width="1.78318" stroke-linecap="round" stroke-linejoin="round"/>
<path d="M360.555 312.38L355.214 306.736" stroke="#263238" stroke-width="1.78318" stroke-linecap="round" stroke-linejoin="round"/>
<path d="M356.837 308.43C356.826 307.566 356.631 306.715 356.265 305.932C355.899 305.15 355.371 304.454 354.715 303.892C353.342 302.67 346.12 299.63 345.443 302.171C344.694 304.944 352.085 310.374 356.837 308.43Z" fill="black" stroke="#263238" stroke-width="0.89159" stroke-linecap="round" stroke-linejoin="round"/>
<path d="M356.837 308.43L349.972 304.141" stroke="#263238" stroke-width="0.445795" stroke-linecap="round" stroke-linejoin="round"/>
<path d="M361.901 325.219L356.561 319.584" stroke="#263238" stroke-width="1.78318" stroke-linecap="round" stroke-linejoin="round"/>
<path d="M358.183 321.269C358.172 320.405 357.976 319.554 357.609 318.773C357.241 317.992 356.711 317.298 356.052 316.739C354.679 315.509 347.466 312.478 346.78 315.019C346.031 317.783 353.422 323.23 358.183 321.269Z" fill="black" stroke="#263238" stroke-width="0.89159" stroke-linecap="round" stroke-linejoin="round"/>
<path d="M358.183 321.269L351.309 316.989" stroke="#263238" stroke-width="0.445795" stroke-linecap="round" stroke-linejoin="round"/>
<path d="M357.292 281.04L351.942 275.396" stroke="#263238" stroke-width="1.78318" stroke-linecap="round" stroke-linejoin="round"/>
<path d="M353.565 277.081C353.557 276.218 353.363 275.367 352.997 274.586C352.631 273.804 352.101 273.111 351.443 272.552C350.07 271.331 342.857 268.29 342.17 270.831C341.422 273.595 348.813 279.025 353.565 277.081Z" fill="black" stroke="#263238" stroke-width="0.89159" stroke-linecap="round" stroke-linejoin="round"/>
<path d="M353.565 277.081L346.7 272.802" stroke="#263238" stroke-width="0.445795" stroke-linecap="round" stroke-linejoin="round"/>
<path d="M358.629 293.879L353.289 288.235" stroke="#263238" stroke-width="1.78318" stroke-linecap="round" stroke-linejoin="round"/>
<path d="M354.911 289.929C354.9 289.066 354.704 288.215 354.337 287.434C353.969 286.653 353.438 285.959 352.78 285.4C351.407 284.17 344.194 281.138 343.508 283.679C342.759 286.443 350.15 291.873 354.911 289.929Z" fill="black" stroke="#263238" stroke-width="0.89159" stroke-linecap="round" stroke-linejoin="round"/>
<path d="M354.911 289.93L348.037 285.65" stroke="#263238" stroke-width="0.445795" stroke-linecap="round" stroke-linejoin="round"/>
<path d="M355.107 260.168L349.767 254.524" stroke="#263238" stroke-width="1.78318" stroke-linecap="round" stroke-linejoin="round"/>
<path d="M351.389 256.219C351.379 255.356 351.184 254.506 350.818 253.725C350.452 252.943 349.923 252.25 349.267 251.689C347.894 250.459 340.673 247.428 339.986 249.969C339.246 252.733 346.673 258.144 351.389 256.219Z" fill="black" stroke="#263238" stroke-width="0.89159" stroke-linecap="round" stroke-linejoin="round"/>
<path d="M351.39 256.218L344.515 251.939" stroke="#263238" stroke-width="0.445795" stroke-linecap="round" stroke-linejoin="round"/>
<path d="M352.923 239.216L347.582 233.572" stroke="#263238" stroke-width="1.78318" stroke-linecap="round" stroke-linejoin="round"/>
<path d="M349.205 235.266C349.194 234.401 348.998 233.549 348.631 232.766C348.263 231.984 347.732 231.288 347.074 230.728C345.71 229.506 338.488 226.466 337.802 229.016C337.062 231.78 344.444 237.21 349.205 235.266Z" fill="black" stroke="#263238" stroke-width="0.89159" stroke-linecap="round" stroke-linejoin="round"/>
<path d="M349.205 235.266L342.331 230.978" stroke="#263238" stroke-width="0.445795" stroke-linecap="round" stroke-linejoin="round"/>
<path d="M359.663 304.783L363.72 298.15" stroke="#263238" stroke-width="1.78318" stroke-linecap="round" stroke-linejoin="round"/>
<path d="M362.481 300.147C362.315 299.299 362.331 298.425 362.529 297.584C362.728 296.743 363.103 295.954 363.631 295.27C364.719 293.79 371.156 289.323 372.351 291.703C373.653 294.227 367.545 301.065 362.481 300.147Z" fill="black" stroke="#263238" stroke-width="0.89159" stroke-linecap="round" stroke-linejoin="round"/>
<path d="M362.481 300.147L368.668 294.227" stroke="#263238" stroke-width="0.445795" stroke-linecap="round" stroke-linejoin="round"/>
<path d="M356.133 270.983L360.198 264.358" stroke="#263238" stroke-width="1.78318" stroke-linecap="round" stroke-linejoin="round"/>
<path d="M358.959 266.347C358.79 265.5 358.804 264.626 359.001 263.785C359.198 262.943 359.573 262.154 360.1 261.47C361.188 259.99 367.625 255.523 368.82 257.904C370.122 260.427 364.014 267.265 358.959 266.347Z" fill="black" stroke="#263238" stroke-width="0.89159" stroke-linecap="round" stroke-linejoin="round"/>
<path d="M358.959 266.347L365.147 260.427" stroke="#263238" stroke-width="0.445795" stroke-linecap="round" stroke-linejoin="round"/>
<path d="M354.581 256.129L358.647 249.505" stroke="#263238" stroke-width="1.78318" stroke-linecap="round" stroke-linejoin="round"/>
<path d="M357.372 251.493C357.203 250.646 357.217 249.772 357.414 248.931C357.611 248.09 357.986 247.3 358.513 246.616C359.61 245.136 366.038 240.678 367.233 243.05C368.571 245.573 362.463 252.411 357.372 251.493Z" fill="black" stroke="#263238" stroke-width="0.89159" stroke-linecap="round" stroke-linejoin="round"/>
<path d="M357.408 251.493L363.595 245.573" stroke="#263238" stroke-width="0.445795" stroke-linecap="round" stroke-linejoin="round"/>
<path d="M352.308 234.348L356.373 227.723" stroke="#263238" stroke-width="1.78318" stroke-linecap="round" stroke-linejoin="round"/>
<path d="M355.134 229.711C354.965 228.865 354.979 227.993 355.176 227.153C355.373 226.313 355.748 225.526 356.276 224.843C357.372 223.363 363.801 218.896 364.995 221.277C366.288 223.791 360.19 230.63 355.134 229.711Z" fill="black" stroke="#263238" stroke-width="0.89159" stroke-linecap="round" stroke-linejoin="round"/>
<path d="M355.134 229.712L361.322 223.8" stroke="#263238" stroke-width="0.445795" stroke-linecap="round" stroke-linejoin="round"/>
<path d="M350.569 220.43C350.403 219.582 350.419 218.708 350.618 217.867C350.816 217.026 351.192 216.237 351.719 215.553C352.807 214.073 359.244 209.615 360.439 211.987C361.741 214.51 355.633 221.348 350.569 220.43Z" fill="black" stroke="#263238" stroke-width="0.89159" stroke-linecap="round" stroke-linejoin="round"/>
<path d="M350.569 220.43L356.757 214.51" stroke="#263238" stroke-width="0.445795" stroke-linecap="round" stroke-linejoin="round"/>
<path d="M350.935 220.698C350.075 220.777 349.208 220.67 348.393 220.386C347.578 220.101 346.833 219.645 346.21 219.048C344.845 217.809 341.083 210.944 343.535 209.999C346.218 208.955 352.379 215.749 350.935 220.698Z" fill="black" stroke="#263238" stroke-width="0.89159" stroke-linecap="round" stroke-linejoin="round"/>
<path d="M350.935 220.68L345.701 213.913" stroke="#263238" stroke-width="0.445795" stroke-linecap="round" stroke-linejoin="round"/>
<path d="M381.757 236.612L370.042 349.55" stroke="#263238" stroke-width="1.78318" stroke-linecap="round" stroke-linejoin="round"/>
<path d="M372.627 328.009L368.561 321.385" stroke="#263238" stroke-width="1.78318" stroke-linecap="round" stroke-linejoin="round"/>
<path d="M369.801 323.373C369.97 322.527 369.956 321.655 369.759 320.815C369.562 319.975 369.187 319.188 368.66 318.505C367.563 317.025 361.126 312.567 359.931 314.939C358.638 317.462 364.746 324.3 369.801 323.373Z" fill="black" stroke="#263238" stroke-width="0.89159" stroke-linecap="round" stroke-linejoin="round"/>
<path d="M369.801 323.373L363.961 317.774" stroke="#263238" stroke-width="0.445795" stroke-linecap="round" stroke-linejoin="round"/>
<path d="M375.882 296.67L371.816 290.045" stroke="#263238" stroke-width="1.78318" stroke-linecap="round" stroke-linejoin="round"/>
<path d="M373.055 292.025C373.224 291.177 373.209 290.302 373.011 289.461C372.812 288.619 372.435 287.83 371.905 287.148C370.817 285.668 364.38 281.21 363.185 283.581C361.892 286.122 368 292.916 373.055 292.025Z" fill="black" stroke="#263238" stroke-width="0.89159" stroke-linecap="round" stroke-linejoin="round"/>
<path d="M373.055 292.033L367.215 286.425" stroke="#263238" stroke-width="0.445795" stroke-linecap="round" stroke-linejoin="round"/>
<path d="M374.553 309.508L370.487 302.893" stroke="#263238" stroke-width="1.78318" stroke-linecap="round" stroke-linejoin="round"/>
<path d="M371.727 304.881C371.893 304.033 371.877 303.16 371.678 302.319C371.48 301.478 371.104 300.689 370.577 300.004C369.489 298.524 363.052 294.066 361.857 296.438C360.555 298.961 366.671 305.8 371.727 304.881Z" fill="black" stroke="#263238" stroke-width="0.89159" stroke-linecap="round" stroke-linejoin="round"/>
<path d="M371.727 304.881L365.878 299.273" stroke="#263238" stroke-width="0.445795" stroke-linecap="round" stroke-linejoin="round"/>
<path d="M378.048 275.798L373.982 269.182" stroke="#263238" stroke-width="1.78318" stroke-linecap="round" stroke-linejoin="round"/>
<path d="M375.204 271.17C375.37 270.322 375.354 269.449 375.155 268.608C374.957 267.767 374.582 266.978 374.054 266.293C372.966 264.813 366.529 260.355 365.334 262.727C364.05 265.277 370.166 272.089 375.204 271.17Z" fill="black" stroke="#263238" stroke-width="0.89159" stroke-linecap="round" stroke-linejoin="round"/>
<path d="M375.222 271.17L369.382 265.562" stroke="#263238" stroke-width="0.445795" stroke-linecap="round" stroke-linejoin="round"/>
<path d="M380.223 254.845L376.158 248.221" stroke="#263238" stroke-width="1.78318" stroke-linecap="round" stroke-linejoin="round"/>
<path d="M377.397 250.209C377.563 249.362 377.547 248.49 377.348 247.651C377.15 246.811 376.775 246.023 376.247 245.341C375.159 243.852 368.722 239.403 367.527 241.774C366.226 244.298 372.342 251.136 377.397 250.209Z" fill="black" stroke="#263238" stroke-width="0.89159" stroke-linecap="round" stroke-linejoin="round"/>
<path d="M377.397 250.209L371.557 244.601" stroke="#263238" stroke-width="0.445795" stroke-linecap="round" stroke-linejoin="round"/>
<path d="M373.314 320.386L378.654 314.742" stroke="#263238" stroke-width="1.78318" stroke-linecap="round" stroke-linejoin="round"/>
<path d="M377.031 316.436C377.043 315.572 377.238 314.719 377.606 313.937C377.973 313.154 378.504 312.459 379.162 311.898C380.527 310.677 387.748 307.636 388.435 310.177C389.175 312.941 381.793 318.371 377.031 316.436Z" fill="black" stroke="#263238" stroke-width="0.89159" stroke-linecap="round" stroke-linejoin="round"/>
<path d="M377.031 316.436L384.307 311.925" stroke="#263238" stroke-width="0.445795" stroke-linecap="round" stroke-linejoin="round"/>
<path d="M376.827 286.586L382.167 280.942" stroke="#263238" stroke-width="1.78318" stroke-linecap="round" stroke-linejoin="round"/>
<path d="M380.553 282.636C380.562 281.772 380.755 280.919 381.121 280.137C381.487 279.354 382.017 278.658 382.675 278.098C384.049 276.877 391.261 273.836 391.948 276.377C392.688 279.141 385.297 284.571 380.553 282.636Z" fill="black" stroke="#263238" stroke-width="0.89159" stroke-linecap="round" stroke-linejoin="round"/>
<path d="M380.544 282.636L387.811 278.116" stroke="#263238" stroke-width="0.445795" stroke-linecap="round" stroke-linejoin="round"/>
<path d="M378.369 271.732L383.71 266.088" stroke="#263238" stroke-width="1.78318" stroke-linecap="round" stroke-linejoin="round"/>
<path d="M382.087 267.782C382.095 266.918 382.289 266.066 382.655 265.283C383.021 264.5 383.551 263.805 384.209 263.244C385.582 262.023 392.795 258.982 393.481 261.523C394.23 264.287 386.839 269.735 382.087 267.782Z" fill="black" stroke="#263238" stroke-width="0.89159" stroke-linecap="round" stroke-linejoin="round"/>
<path d="M382.087 267.782L389.353 263.262" stroke="#263238" stroke-width="0.445795" stroke-linecap="round" stroke-linejoin="round"/>
<path d="M380.625 249.959L385.965 244.307" stroke="#263238" stroke-width="1.78318" stroke-linecap="round" stroke-linejoin="round"/>
<path d="M384.343 246.001C384.353 245.138 384.548 244.288 384.914 243.507C385.28 242.726 385.809 242.032 386.465 241.471C387.838 240.241 395.051 237.201 395.737 239.742C396.486 242.506 389.104 247.944 384.343 246.001Z" fill="black" stroke="#263238" stroke-width="0.89159" stroke-linecap="round" stroke-linejoin="round"/>
<path d="M384.343 246.001L391.618 241.489" stroke="#263238" stroke-width="0.445795" stroke-linecap="round" stroke-linejoin="round"/>
<path d="M381.793 235.971C381.803 235.108 381.998 234.258 382.364 233.477C382.73 232.695 383.259 232.001 383.915 231.441C385.288 230.211 392.501 227.171 393.187 229.721C393.927 232.484 386.554 237.914 381.793 235.971Z" fill="black" stroke="#263238" stroke-width="0.89159" stroke-linecap="round" stroke-linejoin="round"/>
<path d="M381.793 235.97L389.068 231.459" stroke="#263238" stroke-width="0.445795" stroke-linecap="round" stroke-linejoin="round"/>
<path d="M382.087 236.3C381.23 236.2 380.404 235.916 379.665 235.468C378.927 235.021 378.293 234.419 377.807 233.706C376.729 232.217 374.464 224.727 377.058 224.308C379.885 223.854 384.521 231.771 382.087 236.3Z" fill="black" stroke="#263238" stroke-width="0.89159" stroke-linecap="round" stroke-linejoin="round"/>
<path d="M382.087 236.3L378.36 228.588" stroke="#263238" stroke-width="0.445795" stroke-linecap="round" stroke-linejoin="round"/>
<path d="M368.33 190.615V333.439" stroke="#263238" stroke-width="1.78318" stroke-linecap="round" stroke-linejoin="round"/>
<path d="M368.446 311.969L363.711 305.8" stroke="#263238" stroke-width="1.78318" stroke-linecap="round" stroke-linejoin="round"/>
<path d="M365.156 307.645C365.234 306.786 365.128 305.919 364.843 305.104C364.559 304.289 364.103 303.544 363.506 302.92C362.276 301.565 355.411 297.793 354.466 300.245C353.431 302.92 360.216 309.09 365.156 307.645Z" fill="black" stroke="#263238" stroke-width="0.89159" stroke-linecap="round" stroke-linejoin="round"/>
<path d="M365.156 307.645L358.763 302.679" stroke="#263238" stroke-width="0.445795" stroke-linecap="round" stroke-linejoin="round"/>
<path d="M368.446 285.124L363.711 278.963" stroke="#263238" stroke-width="1.78318" stroke-linecap="round" stroke-linejoin="round"/>
<path d="M365.156 280.808C365.235 279.949 365.128 279.082 364.844 278.267C364.559 277.451 364.103 276.707 363.506 276.083C362.276 274.719 355.411 270.947 354.466 273.408C353.431 276.083 360.216 282.217 365.156 280.808Z" fill="black" stroke="#263238" stroke-width="0.89159" stroke-linecap="round" stroke-linejoin="round"/>
<path d="M365.156 280.808L358.763 275.833" stroke="#263238" stroke-width="0.445795" stroke-linecap="round" stroke-linejoin="round"/>
<path d="M368.446 253.615L363.711 247.445" stroke="#263238" stroke-width="1.78318" stroke-linecap="round" stroke-linejoin="round"/>
<path d="M365.156 249.3C365.234 248.438 365.128 247.57 364.843 246.754C364.559 245.937 364.103 245.191 363.506 244.565C362.276 243.21 355.411 239.439 354.466 241.89C353.431 244.565 360.216 250.735 365.156 249.3Z" fill="black" stroke="#263238" stroke-width="0.89159" stroke-linecap="round" stroke-linejoin="round"/>
<path d="M365.156 249.3L358.763 244.324" stroke="#263238" stroke-width="0.445795" stroke-linecap="round" stroke-linejoin="round"/>
<path d="M368.446 232.636L363.711 226.466" stroke="#263238" stroke-width="1.78318" stroke-linecap="round" stroke-linejoin="round"/>
<path d="M365.156 228.32C365.235 227.461 365.128 226.594 364.844 225.779C364.559 224.963 364.103 224.219 363.506 223.595C362.276 222.231 355.411 218.459 354.466 220.92C353.431 223.595 360.216 229.756 365.156 228.32Z" fill="black" stroke="#263238" stroke-width="0.89159" stroke-linecap="round" stroke-linejoin="round"/>
<path d="M365.156 228.321L358.763 223.345" stroke="#263238" stroke-width="0.445795" stroke-linecap="round" stroke-linejoin="round"/>
<path d="M368.446 211.568L363.711 205.398" stroke="#263238" stroke-width="1.78318" stroke-linecap="round" stroke-linejoin="round"/>
<path d="M365.156 207.252C365.234 206.391 365.128 205.523 364.843 204.707C364.559 203.89 364.103 203.144 363.506 202.518C362.276 201.163 355.411 197.391 354.466 199.843C353.431 202.518 360.216 208.688 365.156 207.252Z" fill="black" stroke="#263238" stroke-width="0.89159" stroke-linecap="round" stroke-linejoin="round"/>
<path d="M365.156 207.252L358.763 202.277" stroke="#263238" stroke-width="0.445795" stroke-linecap="round" stroke-linejoin="round"/>
<path d="M368.339 320.163L373.064 313.993" stroke="#263238" stroke-width="1.78318" stroke-linecap="round" stroke-linejoin="round"/>
<path d="M371.638 315.848C371.558 314.987 371.664 314.12 371.947 313.303C372.23 312.487 372.684 311.74 373.278 311.113C374.517 309.758 381.383 305.987 382.328 308.439C383.344 311.113 376.559 317.283 371.638 315.848Z" fill="black" stroke="#263238" stroke-width="0.89159" stroke-linecap="round" stroke-linejoin="round"/>
<path d="M371.629 315.848L378.396 310.605" stroke="#263238" stroke-width="0.445795" stroke-linecap="round" stroke-linejoin="round"/>
<path d="M368.339 277.474L373.064 271.304" stroke="#263238" stroke-width="1.78318" stroke-linecap="round" stroke-linejoin="round"/>
<path d="M371.638 273.158C371.559 272.299 371.664 271.433 371.947 270.618C372.23 269.803 372.684 269.058 373.278 268.433C374.517 267.069 381.383 263.298 382.328 265.758C383.344 268.433 376.559 274.594 371.638 273.158Z" fill="black" stroke="#263238" stroke-width="0.89159" stroke-linecap="round" stroke-linejoin="round"/>
<path d="M371.629 273.158L378.396 267.916" stroke="#263238" stroke-width="0.445795" stroke-linecap="round" stroke-linejoin="round"/>
<path d="M368.339 256.406L373.064 250.236" stroke="#263238" stroke-width="1.78318" stroke-linecap="round" stroke-linejoin="round"/>
<path d="M371.638 252.09C371.558 251.23 371.664 250.362 371.947 249.546C372.23 248.729 372.684 247.983 373.278 247.356C374.517 246.001 381.383 242.229 382.328 244.681C383.344 247.356 376.559 253.526 371.638 252.09Z" fill="black" stroke="#263238" stroke-width="0.89159" stroke-linecap="round" stroke-linejoin="round"/>
<path d="M371.629 252.09L378.396 246.848" stroke="#263238" stroke-width="0.445795" stroke-linecap="round" stroke-linejoin="round"/>
<path d="M368.339 228.561L373.064 222.391" stroke="#263238" stroke-width="1.78318" stroke-linecap="round" stroke-linejoin="round"/>
<path d="M371.638 224.264C371.559 223.405 371.664 222.539 371.947 221.724C372.23 220.909 372.684 220.164 373.278 219.539C374.517 218.174 381.383 214.412 382.328 216.864C383.344 219.512 376.559 225.682 371.638 224.264Z" fill="black" stroke="#263238" stroke-width="0.89159" stroke-linecap="round" stroke-linejoin="round"/>
<path d="M371.629 224.237L378.396 219.004" stroke="#263238" stroke-width="0.445795" stroke-linecap="round" stroke-linejoin="round"/>
<path d="M368.339 206.664L373.064 200.494" stroke="#263238" stroke-width="1.78318" stroke-linecap="round" stroke-linejoin="round"/>
<path d="M371.638 202.348C371.558 201.488 371.664 200.621 371.947 199.804C372.23 198.988 372.684 198.241 373.278 197.614C374.517 196.259 381.383 192.487 382.328 194.939C383.344 197.614 376.559 203.757 371.638 202.348Z" fill="black" stroke="#263238" stroke-width="0.89159" stroke-linecap="round" stroke-linejoin="round"/>
<path d="M371.629 202.349L378.396 197.106" stroke="#263238" stroke-width="0.445795" stroke-linecap="round" stroke-linejoin="round"/>
<path d="M368.071 192.639C367.993 191.778 368.099 190.91 368.384 190.094C368.668 189.277 369.124 188.531 369.721 187.905C370.951 186.55 377.816 182.778 378.761 185.23C379.778 187.905 372.993 194.075 368.071 192.639Z" fill="black" stroke="#263238" stroke-width="0.89159" stroke-linecap="round" stroke-linejoin="round"/>
<path d="M368.053 192.639L374.821 187.396" stroke="#263238" stroke-width="0.445795" stroke-linecap="round" stroke-linejoin="round"/>
<path d="M368.383 192.924C367.52 192.913 366.669 192.717 365.888 192.35C365.106 191.982 364.413 191.451 363.854 190.793C362.632 189.42 359.601 182.198 362.142 181.521C364.915 180.781 370.336 188.172 368.383 192.924Z" fill="black" stroke="#263238" stroke-width="0.89159" stroke-linecap="round" stroke-linejoin="round"/>
<path d="M368.383 192.924L363.881 185.649" stroke="#263238" stroke-width="0.445795" stroke-linecap="round" stroke-linejoin="round"/>
<path d="M374.205 370.485H359.075L357.185 332.28H376.096L374.205 370.485Z" fill="#263238" stroke="#263238" stroke-width="0.89159" stroke-linecap="round" stroke-linejoin="round"/>
<path d="M404.84 0.0734863H161.668V145.331H404.84V0.0734863Z" fill="#263238"/>
<path opacity="0.1" d="M404.84 0.0734863H161.668V145.331H404.84V0.0734863Z" fill="white"/>
<path d="M404.84 0.0734863H161.668V34.5691H404.84V0.0734863Z" fill="#263238"/>
<path d="M227.102 66.9872V57.3848H228.172V66.0154H230.918V66.9872H227.102Z" fill="white"/>
<path d="M231.658 59.7031C231.658 58.2319 232.389 57.2869 233.86 57.2869C235.331 57.2869 236.062 58.2319 236.062 59.7031V64.6692C236.062 66.1225 235.34 67.0854 233.86 67.0854C232.38 67.0854 231.658 66.1225 231.658 64.6692V59.7031ZM232.719 64.7227C232.719 65.6143 233.085 66.1136 233.86 66.1136C234.636 66.1136 234.992 65.6054 234.992 64.7227V59.6496C234.992 58.758 234.636 58.2587 233.86 58.2587C233.085 58.2587 232.719 58.7847 232.719 59.6496V64.7227Z" fill="white"/>
<path d="M238.015 66.9872H237.052V57.3848H238.407L240.636 64.3302V57.3848H241.581V66.9872H240.467L238.015 59.2214V66.9872Z" fill="white"/>
<path d="M244.934 57.3848C246.431 57.3848 247.118 58.2764 247.118 59.7742V64.6156C247.118 66.0867 246.431 66.9872 244.934 66.9872H242.678V57.3848H244.934ZM244.934 66.0154C245.7 66.0154 246.075 65.5339 246.075 64.6601V59.7207C246.075 58.8291 245.7 58.3566 244.925 58.3566H243.766V66.0154H244.934Z" fill="white"/>
<path d="M248.036 59.7031C248.036 58.2319 248.759 57.2869 250.23 57.2869C251.701 57.2869 252.441 58.2319 252.441 59.7031V64.6692C252.441 66.1225 251.71 67.0854 250.23 67.0854C248.75 67.0854 248.036 66.1225 248.036 64.6692V59.7031ZM249.088 64.7227C249.088 65.6143 249.463 66.1136 250.23 66.1136C250.996 66.1136 251.371 65.6054 251.371 64.7227V59.6496C251.371 58.758 251.014 58.2587 250.23 58.2587C249.445 58.2587 249.088 58.7847 249.088 59.6496V64.7227Z" fill="white"/>
<path d="M254.402 66.9872H253.439V57.3848H254.839L257.059 64.3302V57.3848H258.004V66.9872H256.899L254.438 59.2214L254.402 66.9872Z" fill="white"/>
<path d="M350.088 59.7031V60.5947H349.071V59.7031C349.071 58.8115 348.724 58.3122 347.939 58.3122C347.154 58.3122 346.815 58.8382 346.815 59.7031V64.7762C346.815 65.6678 347.172 66.1671 347.939 66.1671C348.706 66.1671 349.071 65.6411 349.071 64.7762V63.528H350.088V64.6692C350.088 66.1225 349.401 67.0854 347.912 67.0854C346.423 67.0854 345.781 66.1225 345.781 64.6692V59.7031C345.781 58.2498 346.468 57.2869 347.93 57.2869C349.392 57.2869 350.088 58.2498 350.088 59.7031Z" fill="black"/>
<path d="M352.138 65.0524L351.773 66.9872H350.783L352.62 57.3848H354.171L356.017 66.9872H354.938L354.572 65.0524H352.138ZM352.281 64.1608H354.421L353.333 58.6152L352.281 64.1608Z" fill="black"/>
<path d="M357.8 66.9872H356.837V57.3848H358.192L360.421 64.3302V57.3848H361.366V66.9872H360.252L357.8 59.2214V66.9872Z" fill="black"/>
<path d="M366.707 59.7031V60.5947H365.69V59.7031C365.69 58.8115 365.352 58.3122 364.567 58.3122C363.782 58.3122 363.444 58.8382 363.444 59.7031V64.7762C363.444 65.6678 363.8 66.1671 364.567 66.1671C365.334 66.1671 365.69 65.6411 365.69 64.7762V63.528H366.707V64.6692C366.707 66.1225 366.02 67.0854 364.54 67.0854C363.06 67.0854 362.383 66.1225 362.383 64.6692V59.7031C362.383 58.2498 363.069 57.2869 364.54 57.2869C366.011 57.2869 366.707 58.2498 366.707 59.7031Z" fill="black"/>
<path d="M371.103 61.6376V62.6006H368.749V66.0154H371.637V66.9872H367.679V57.3848H371.637V58.3566H368.749V61.6376H371.103Z" fill="black"/>
<path d="M372.627 66.9872V57.3848H373.697V66.0154H376.443V66.9872H372.627Z" fill="black"/>
<path d="M377.246 66.9872V57.3848H378.315V66.0154H381.062V66.9872H377.246Z" fill="black"/>
<path d="M385.297 61.6376V62.6006H382.943V66.0154H385.832V66.9872H381.873V57.3848H385.832V58.3566H382.943V61.6376H385.297Z" fill="black"/>
<path d="M389.068 57.3848C390.566 57.3848 391.252 58.2764 391.252 59.7742V64.6156C391.252 66.0867 390.566 66.9872 389.068 66.9872H386.794V57.3848H389.068ZM389.068 66.0154C389.835 66.0154 390.2 65.5339 390.2 64.6601V59.7207C390.2 58.8291 389.835 58.3566 389.05 58.3566H387.9V66.0154H389.068Z" fill="black"/>
<path d="M228.092 83.5262H227.129V73.9238H228.493L230.713 80.8693V73.9238H231.658V83.5262H230.499L228.092 75.7605V83.5262Z" fill="white"/>
<path d="M236.116 78.1767V79.1396H233.762V82.5544H236.651V83.5262H232.692V73.9238H236.651V74.8957H233.762V78.1767H236.116Z" fill="white"/>
<path d="M240.208 83.5262H238.737L237.417 73.9238H238.461L239.593 82.0997L240.663 73.9327H241.715L242.776 82.1175L243.864 73.9238H244.755L243.454 83.5262H242.036L241.144 77.0087L240.208 83.5262Z" fill="white"/>
<path d="M249.49 80.0847L247.457 73.9238H248.598L250.087 78.6403L251.603 73.9238H252.619L250.568 80.0847V83.5262H249.49V80.0847Z" fill="white"/>
<path d="M253.056 76.26C253.056 74.7888 253.778 73.8438 255.249 73.8438C256.72 73.8438 257.514 74.771 257.514 76.26V81.2261C257.514 82.6794 256.783 83.6423 255.303 83.6423C253.823 83.6423 253.109 82.6794 253.109 81.2261L253.056 76.26ZM254.108 81.2796C254.108 82.1712 254.482 82.6705 255.249 82.6705C256.016 82.6705 256.39 82.1623 256.39 81.2796V76.2065C256.39 75.3149 256.034 74.8156 255.249 74.8156C254.465 74.8156 254.108 75.3416 254.108 76.2065V81.2796Z" fill="white"/>
<path d="M260.634 73.9238C262.141 73.9238 262.774 74.6906 262.774 76.1171V76.9017C262.774 77.9538 262.409 78.6136 261.58 78.8722C262.471 79.1396 262.792 79.8529 262.792 80.8782V82.3761C262.759 82.7691 262.823 83.1642 262.979 83.5262H261.901C261.747 83.1571 261.686 82.7563 261.722 82.3583V80.8515C261.722 79.7637 261.214 79.4249 260.322 79.4249H259.565V83.5262H258.495V73.9238H260.634ZM260.358 78.4531C261.25 78.4531 261.722 78.1767 261.722 77.1336V76.242C261.722 75.3504 261.401 74.9224 260.608 74.9224H259.565V78.4888L260.358 78.4531Z" fill="white"/>
<path d="M265.538 79.3536L264.968 80.3076V83.5262H263.898V73.9238H264.968V78.5601L267.527 73.9238H268.605L266.18 78.3015L268.695 83.5262H267.589L265.538 79.3536Z" fill="white"/>
<path d="M350.088 76.26V77.1515H349.071V76.26C349.071 75.3684 348.724 74.8691 347.939 74.8691C347.154 74.8691 346.815 75.3951 346.815 76.26V81.3331C346.815 82.2247 347.172 82.724 347.939 82.724C348.706 82.724 349.071 82.1979 349.071 81.3331V80.0849H350.088V81.2796C350.088 82.7329 349.401 83.6958 347.912 83.6958C346.423 83.6958 345.763 82.7329 345.763 81.2796V76.26C345.763 74.8067 346.45 73.8438 347.912 73.8438C349.374 73.8438 350.088 74.7888 350.088 76.26Z" fill="black"/>
<path d="M352.138 81.6096L351.773 83.5443H350.783L352.62 73.9419H354.171L356.017 83.5443H354.938L354.572 81.6096H352.138ZM352.281 80.718H354.421L353.333 75.1723L352.281 80.718Z" fill="black"/>
<path d="M357.8 83.5262H356.837V73.9238H358.192L360.421 80.8693V73.9238H361.366V83.5262H360.252L357.8 75.7605V83.5262Z" fill="black"/>
<path d="M366.707 76.26V77.1515H365.69V76.26C365.69 75.3684 365.352 74.8691 364.567 74.8691C363.782 74.8691 363.444 75.3951 363.444 76.26V81.3331C363.444 82.2247 363.8 82.724 364.567 82.724C365.334 82.724 365.69 82.1979 365.69 81.3331V80.0849H366.707V81.2796C366.707 82.7329 366.02 83.6958 364.54 83.6958C363.06 83.6958 362.383 82.7329 362.383 81.2796V76.26C362.383 74.8067 363.069 73.8438 364.54 73.8438C366.011 73.8438 366.707 74.7888 366.707 76.26Z" fill="black"/>
<path d="M371.103 78.1767V79.1396H368.749V82.5544H371.637V83.5262H367.679V73.9238H371.637V74.8957H368.749V78.1767H371.103Z" fill="black"/>
<path d="M372.627 83.5262V73.9238H373.697V82.5544H376.443V83.5262H372.627Z" fill="black"/>
<path d="M377.246 83.5262V73.9238H378.315V82.5544H381.062V83.5262H377.246Z" fill="black"/>
<path d="M385.297 78.1767V79.1396H382.943V82.5544H385.832V83.5262H381.873V73.9238H385.832V74.8957H382.943V78.1767H385.297Z" fill="black"/>
<path d="M389.068 73.9238C390.566 73.9238 391.252 74.8154 391.252 76.3133V81.1546C391.252 82.6257 390.566 83.5262 389.068 83.5262H386.794V73.9238H389.068ZM389.068 82.5544C389.835 82.5544 390.2 82.073 390.2 81.1992V76.2598C390.2 75.3682 389.835 74.9046 389.05 74.9046H387.9V82.5633L389.068 82.5544Z" fill="black"/>
<path d="M229.197 90.4541C230.713 90.4541 231.355 91.3457 231.355 92.8079V93.9581C231.355 95.4827 230.641 96.2762 229.117 96.2762H228.172V100.065H227.102V90.4541H229.197ZM229.117 95.3133C229.91 95.3133 230.294 94.9477 230.294 94.0294V92.7544C230.294 91.8628 229.982 91.4349 229.197 91.4349H228.172V95.3133H229.117Z" fill="white"/>
<path d="M233.138 98.1307L232.772 100.065H231.783L233.619 90.4541H235.171L237.007 100.065H235.937L235.572 98.1307H233.138ZM233.28 97.2391H235.42L234.333 91.6667L233.28 97.2391Z" fill="white"/>
<path d="M239.985 90.4541C241.501 90.4541 242.134 91.2298 242.134 92.6563V93.4409C242.2 93.8576 242.116 94.2843 241.898 94.645C241.679 95.0058 241.339 95.2773 240.939 95.4113C241.831 95.6699 242.143 96.3832 242.143 97.4174V98.9153C242.113 99.309 242.18 99.7039 242.339 100.065H241.251C241.099 99.696 241.038 99.2954 241.073 98.8975V97.3907C241.073 96.3029 240.565 95.9641 239.673 95.9641H238.915V100.065H237.845V90.4541H239.985ZM239.682 94.9834C240.529 94.9834 241.037 94.7159 241.037 93.6727V92.7812C241.037 91.8896 240.725 91.4616 239.923 91.4616H238.88V95.028L239.682 94.9834Z" fill="white"/>
<path d="M244.327 90.4541V100.065H243.249V90.4541H244.327Z" fill="white"/>
<path d="M249.588 92.7634V93.0219H248.598V92.7099C248.598 91.8183 248.268 91.3368 247.501 91.3368C246.735 91.3368 246.396 91.845 246.396 92.692C246.396 94.8497 249.623 95.0547 249.623 97.7563C249.623 99.2185 248.928 100.164 247.457 100.164C245.986 100.164 245.299 99.2185 245.299 97.7563V97.2124H246.307V97.8187C246.307 98.7103 246.663 99.1917 247.43 99.1917C248.197 99.1917 248.554 98.6835 248.554 97.8187C248.554 95.6699 245.344 95.4649 245.344 92.7634C245.344 91.2833 246.03 90.365 247.475 90.365C248.919 90.365 249.588 91.3101 249.588 92.7634Z" fill="white"/>
<path d="M350.088 92.7812V93.6728H349.071V92.7812C349.071 91.8896 348.724 91.3992 347.939 91.3992C347.154 91.3992 346.815 91.9163 346.815 92.7812V97.8632C346.815 98.7548 347.172 99.2541 347.939 99.2541C348.706 99.2541 349.071 98.7281 349.071 97.8632V96.615H350.088V97.8098C350.088 99.263 349.401 100.226 347.912 100.226C346.423 100.226 345.781 99.2006 345.781 97.7474V92.7812C345.781 91.319 346.468 90.365 347.93 90.365C349.392 90.365 350.088 91.319 350.088 92.7812Z" fill="black"/>
<path d="M352.138 98.1307L351.773 100.065H350.783L352.62 90.4541H354.171L356.017 100.065H354.938L354.572 98.1307H352.138ZM352.281 97.2391H354.421L353.333 91.6934L352.281 97.2391Z" fill="black"/>
<path d="M357.8 100.065H356.837V90.4541H358.192L360.421 97.3996V90.4541H361.366V100.065H360.252L357.8 92.3086V100.065Z" fill="black"/>
<path d="M366.707 92.7813V93.6729H365.69V92.7813C365.69 91.8897 365.352 91.3993 364.567 91.3993C363.782 91.3993 363.444 91.9164 363.444 92.7813V97.8633C363.444 98.7549 363.8 99.2542 364.567 99.2542C365.334 99.2542 365.69 98.7282 365.69 97.8633V96.6151H366.707V97.8099C366.707 99.2631 366.02 100.226 364.54 100.226C363.06 100.226 362.383 99.2631 362.383 97.8099V92.8437C362.383 91.3815 363.069 90.4275 364.54 90.4275C366.011 90.4275 366.707 91.3191 366.707 92.7813Z" fill="black"/>
<path d="M371.103 94.7159V95.6699H368.749V99.0936H371.637V100.065H367.679V90.4541H371.637V91.417H368.749V94.6981L371.103 94.7159Z" fill="black"/>
<path d="M372.627 100.065V90.4541H373.697V99.0936H376.443V100.065H372.627Z" fill="black"/>
<path d="M377.246 100.065V90.4541H378.315V99.0936H381.062V100.065H377.246Z" fill="black"/>
<path d="M385.297 94.7159V95.6699H382.943V99.0936H385.832V100.065H381.873V90.4541H385.832V91.417H382.943V94.6981L385.297 94.7159Z" fill="black"/>
<path d="M389.068 90.4541C390.566 90.4541 391.252 91.3457 391.252 92.8436V97.6581C391.252 99.1204 390.566 100.03 389.068 100.03H386.794V90.4541H389.068ZM389.068 99.0936C389.835 99.0936 390.2 98.6121 390.2 97.7295V92.7901C390.2 91.8985 389.835 91.4349 389.05 91.4349H387.9V99.0936H389.068Z" fill="black"/>
<path d="M230.641 116.586H229.607L228.02 108.946V116.604H227.084V106.993H228.582L230.16 114.67L231.685 106.993H233.182V116.604H232.166V108.874L230.641 116.586Z" fill="white"/>
<path d="M235.358 114.67L234.992 116.604H234.003L235.839 106.993H237.391L239.236 116.604H238.166L237.792 114.67H235.358ZM235.501 113.778H237.64L236.553 108.232L235.501 113.778Z" fill="white"/>
<path d="M242.357 106.993C243.855 106.993 244.541 107.885 244.541 109.382V114.233C244.541 115.695 243.855 116.604 242.357 116.604H240.11V106.993H242.357ZM242.357 115.632C243.124 115.632 243.489 115.151 243.489 114.268V109.329C243.489 108.437 243.124 107.974 242.339 107.974H241.189V115.632H242.357Z" fill="white"/>
<path d="M247.653 106.993C249.16 106.993 249.793 107.76 249.793 109.195V109.971C249.793 111.032 249.418 111.692 248.598 111.95C249.49 112.209 249.802 112.922 249.802 113.956V115.49C249.772 115.883 249.839 116.278 249.998 116.64H248.91C248.759 116.27 248.698 115.87 248.732 115.472V113.965C248.732 112.877 248.224 112.539 247.332 112.539H246.574V116.64H245.504V106.993H247.653ZM247.377 111.522C248.224 111.522 248.732 111.246 248.732 110.212V109.32C248.732 108.428 248.42 108.009 247.617 108.009H246.574V111.576L247.377 111.522Z" fill="white"/>
<path d="M251.986 106.993V116.604H250.916V106.993H251.986Z" fill="white"/>
<path d="M255.338 106.993C256.836 106.993 257.514 107.885 257.514 109.382V114.233C257.514 115.695 256.836 116.604 255.338 116.604H253.056V106.993H255.338ZM255.338 115.632C256.105 115.632 256.48 115.151 256.48 114.268V109.329C256.48 108.437 256.105 107.974 255.329 107.974H254.17V115.632H255.338Z" fill="white"/>
<path d="M350.088 109.311V110.203H349.071V109.311C349.071 108.419 348.724 107.929 347.939 107.929C347.154 107.929 346.815 108.446 346.815 109.311V114.393C346.815 115.285 347.172 115.775 347.939 115.775C348.706 115.775 349.071 115.258 349.071 114.393V113.145H350.088V114.34C350.088 115.793 349.401 116.756 347.912 116.756C346.423 116.756 345.763 115.793 345.763 114.34V109.365C345.763 107.911 346.45 106.957 347.912 106.957C349.374 106.957 350.088 107.858 350.088 109.311Z" fill="black"/>
<path d="M352.138 114.67L351.773 116.604H350.783L352.62 106.993H354.171L356.017 116.604H354.938L354.572 114.67H352.138ZM352.281 113.778H354.421L353.333 108.232L352.281 113.778Z" fill="black"/>
<path d="M357.8 116.604H356.837V106.993H358.192L360.421 113.938V106.993H361.366V116.604H360.252L357.8 108.839V116.604Z" fill="black"/>
<path d="M366.707 109.311V110.203H365.69V109.311C365.69 108.419 365.352 107.929 364.567 107.929C363.782 107.929 363.444 108.446 363.444 109.311V114.393C363.444 115.285 363.8 115.775 364.567 115.775C365.334 115.775 365.69 115.258 365.69 114.393V113.145H366.707V114.34C366.707 115.793 366.02 116.756 364.54 116.756C363.06 116.756 362.383 115.793 362.383 114.34V109.365C362.383 107.911 363.069 106.957 364.54 106.957C366.011 106.957 366.707 107.858 366.707 109.311Z" fill="black"/>
<path d="M371.103 111.246V112.209H368.749V115.632H371.637V116.604H367.679V106.993H371.637V107.974H368.749V111.246H371.103Z" fill="black"/>
<path d="M372.627 116.604V106.993H373.697V115.632H376.443V116.604H372.627Z" fill="black"/>
<path d="M377.246 116.604V106.993H378.315V115.632H381.062V116.604H377.246Z" fill="black"/>
<path d="M385.297 111.246V112.209H382.943V115.632H385.832V116.604H381.873V106.993H385.832V107.974H382.943V111.246H385.297Z" fill="black"/>
<path d="M389.068 106.993C390.566 106.993 391.252 107.885 391.252 109.382V114.233C391.252 115.695 390.566 116.604 389.068 116.604H386.794V106.993H389.068ZM389.068 115.632C389.835 115.632 390.2 115.151 390.2 114.268V109.329C390.2 108.437 389.835 107.974 389.05 107.974H387.9V115.632H389.068Z" fill="black"/>
<path d="M229.242 123.514C230.748 123.514 231.381 124.281 231.381 125.707V126.492C231.381 127.553 231.007 128.213 230.187 128.471C231.078 128.73 231.399 129.443 231.399 130.477V131.966C231.366 132.362 231.43 132.76 231.587 133.125H230.499C230.353 132.754 230.292 132.355 230.32 131.957V130.468C230.32 129.381 229.821 129.033 228.921 129.033H228.172V133.143H227.102V123.514H229.242ZM228.983 128.061C229.875 128.061 230.338 127.785 230.338 126.741V125.85C230.338 124.958 230.026 124.53 229.233 124.53H228.19V128.097L228.983 128.061Z" fill="white"/>
<path d="M232.425 125.85C232.425 124.388 233.156 123.434 234.618 123.434C236.08 123.434 236.829 124.388 236.829 125.85V130.825C236.829 132.278 236.107 133.241 234.618 133.241C233.129 133.241 232.425 132.278 232.425 130.825V125.85ZM233.486 130.879C233.486 131.77 233.851 132.261 234.618 132.261C235.385 132.261 235.759 131.752 235.759 130.879V125.797C235.759 124.905 235.402 124.415 234.618 124.415C233.833 124.415 233.486 124.932 233.486 125.797V130.879Z" fill="white"/>
<path d="M241.385 133.125H240.36L238.791 125.484V133.143H237.899V123.514H239.388L240.966 131.191L242.491 123.514H243.989V133.143H242.972V125.413L241.385 133.125Z" fill="white"/>
<path d="M248.447 127.785V128.748H246.102V132.162H248.981V133.143H245.032V123.514H248.99V124.486H246.102V127.767L248.447 127.785Z" fill="white"/>
<path d="M304.153 59.7032V59.9528C304.201 60.3638 304.112 60.7792 303.901 61.1351C303.69 61.491 303.368 61.7679 302.985 61.9232C303.371 62.0835 303.693 62.3653 303.904 62.7258C304.115 63.0862 304.202 63.5057 304.153 63.9204V64.6693C304.153 66.1315 303.466 67.0945 301.986 67.0945C300.506 67.0945 299.829 66.1315 299.829 64.6693V64.0096H300.836V64.7318C300.836 65.6233 301.193 66.1226 301.96 66.1226C302.726 66.1226 303.083 65.6144 303.083 64.6426V63.9026C303.083 62.9486 302.691 62.5028 301.879 62.4671H301.3V61.5131H301.933C302.099 61.5149 302.264 61.4806 302.416 61.4125C302.568 61.3444 302.703 61.2442 302.812 61.1188C302.922 60.9933 303.003 60.8456 303.049 60.6859C303.096 60.5261 303.108 60.3582 303.083 60.1936V59.7567C303.083 58.767 302.744 58.2588 301.96 58.2588C301.175 58.2588 300.836 58.7938 300.836 59.6586V60.149H299.829V59.7121C299.829 58.241 300.515 57.2959 301.986 57.2959C303.458 57.2959 304.153 58.2321 304.153 59.7032Z" fill="white"/>
<path d="M307.158 59.1235C306.756 59.3694 306.3 59.5133 305.829 59.5425V58.6509C306.209 58.6592 306.579 58.5371 306.879 58.3051C307.18 58.073 307.391 57.7451 307.479 57.376H308.219V66.9873H307.158V59.1235Z" fill="white"/>
<path d="M304.207 76.2598C304.207 79.1575 300.961 80.2007 300.943 82.4118V82.5634H304.1V83.5352H299.882V82.715C299.882 79.6122 303.137 79.0059 303.137 76.3044C303.137 75.3148 302.807 74.7976 302.013 74.7976C301.22 74.7976 300.89 75.3593 300.89 76.2064V77.0979H299.882V76.2598C299.882 74.7887 300.56 73.8169 302.04 73.8169C303.52 73.8169 304.207 74.7887 304.207 76.2598Z" fill="white"/>
<path d="M308.397 74.8778H305.134V73.9238H309.485V74.8154L307.015 83.4906H305.945L308.397 74.8778Z" fill="white"/>
<path d="M304.207 92.79C304.207 95.6876 300.961 96.7308 300.943 98.9419V99.0935H304.1V100.065H299.882V99.2451C299.882 96.1423 303.137 95.5361 303.137 92.8345C303.137 91.8449 302.807 91.3188 302.013 91.3188C301.22 91.3188 300.89 91.8895 300.89 92.7365V93.6281H299.882V92.8524C299.882 91.3813 300.56 90.4094 302.04 90.4094C303.52 90.4094 304.207 91.3188 304.207 92.79Z" fill="white"/>
<path d="M309.61 92.7363V93.0395C309.661 93.4442 309.582 93.8549 309.383 94.2111C309.184 94.5674 308.876 94.8504 308.504 95.0188C308.881 95.1928 309.192 95.4835 309.391 95.848C309.59 96.2125 309.667 96.6314 309.61 97.0427V97.756C309.61 98.0534 309.551 98.3478 309.437 98.6226C309.323 98.8974 309.157 99.147 308.946 99.3573C308.736 99.5676 308.486 99.7344 308.212 99.8482C307.937 99.962 307.642 100.021 307.345 100.021C307.048 100.021 306.753 99.962 306.478 99.8482C306.204 99.7344 305.954 99.5676 305.744 99.3573C305.533 99.147 305.366 98.8974 305.253 98.6226C305.139 98.3478 305.08 98.0534 305.08 97.756V97.0427C305.02 96.6311 305.095 96.211 305.295 95.8459C305.494 95.4808 305.807 95.1905 306.186 95.0188C305.811 94.8539 305.501 94.5715 305.301 94.2144C305.102 93.8572 305.024 93.4447 305.08 93.0395V92.7363C305.08 92.4389 305.139 92.1444 305.253 91.8697C305.366 91.5949 305.533 91.3453 305.744 91.135C305.954 90.9247 306.204 90.7579 306.478 90.6441C306.753 90.5303 307.048 90.4717 307.345 90.4717C307.642 90.4717 307.937 90.5303 308.212 90.6441C308.486 90.7579 308.736 90.9247 308.946 91.135C309.157 91.3453 309.323 91.5949 309.437 91.8697C309.551 92.1444 309.61 92.4389 309.61 92.7363V92.7363ZM306.132 92.7363V93.1999C306.132 94.1361 306.587 94.5462 307.345 94.5462C308.103 94.5462 308.549 94.1361 308.549 93.1999V92.7363C308.549 91.7466 308.094 91.2919 307.345 91.2919C306.596 91.2919 306.132 91.7734 306.132 92.7631V92.7363ZM306.132 96.9V97.7025C306.132 98.6921 306.569 99.1647 307.345 99.1647C308.121 99.1647 308.54 98.6921 308.549 97.7025V96.9C308.549 95.9639 308.138 95.5092 307.345 95.5092C306.551 95.5092 306.132 95.9906 306.132 96.9268V96.9Z" fill="white"/>
<path d="M304.207 109.329C304.207 112.227 300.961 113.27 300.943 115.481V115.633H304.1V116.605H299.882V115.784C299.882 112.682 303.137 112.075 303.137 109.374C303.137 108.384 302.807 107.858 302.013 107.858C301.22 107.858 300.89 108.42 300.89 109.276V110.141H299.882V109.365C299.882 107.894 300.56 106.922 302.04 106.922C303.52 106.922 304.207 107.858 304.207 109.329Z" fill="white"/>
<path d="M309.512 109.311V114.215C309.512 115.74 308.825 116.703 307.283 116.703C305.74 116.703 305.116 115.749 305.116 114.286V114.108H306.123V114.349C306.123 115.24 306.489 115.722 307.256 115.722C308.023 115.722 308.442 115.205 308.442 114.188V112.031C308.328 112.345 308.116 112.615 307.836 112.798C307.556 112.981 307.224 113.069 306.89 113.047C305.651 113.047 305.107 112.156 305.107 110.782V109.311C305.107 107.849 305.82 106.904 307.3 106.904C308.78 106.904 309.512 107.849 309.512 109.311ZM306.159 109.258V110.702C306.159 111.594 306.534 112.084 307.3 112.084C308.067 112.084 308.442 111.567 308.442 110.702V109.249C308.442 108.357 308.085 107.867 307.3 107.867C306.516 107.867 306.159 108.357 306.159 109.249V109.258Z" fill="white"/>
<path d="M303.787 131.209V133.143H302.744V131.209H299.641V130.228L302.619 123.532H303.787V130.228H304.554V131.209H303.787ZM300.631 130.228H302.744V125.538L300.631 130.228Z" fill="white"/>
<path d="M305.294 125.85C305.294 124.388 306.025 123.434 307.487 123.434C308.95 123.434 309.699 124.388 309.699 125.85V130.807C309.699 132.278 308.976 133.241 307.487 133.241C305.999 133.241 305.294 132.278 305.294 130.807V125.85ZM306.355 130.879C306.355 131.77 306.721 132.261 307.487 132.261C308.254 132.261 308.629 131.743 308.629 130.879V125.797C308.629 124.905 308.272 124.397 307.487 124.397C306.703 124.397 306.355 124.923 306.355 125.797V130.879Z" fill="white"/>
<path d="M180.329 59.1235C179.923 59.3682 179.465 59.5119 178.992 59.5425V58.6509C179.371 58.6592 179.742 58.5371 180.042 58.3051C180.342 58.073 180.554 57.7451 180.641 57.376H181.381V66.9873H180.329V59.1235Z" fill="white"/>
<path d="M187.328 59.7209C187.328 62.6096 184.074 63.6528 184.065 65.8639V66.0155H187.221V66.9873H183.004V66.1671C183.004 63.0643 186.258 62.4581 186.258 59.7565C186.258 58.7669 185.928 58.2498 185.135 58.2498C184.341 58.2498 184.002 58.8115 184.002 59.6585V60.5501H183.004V59.7655C183.004 58.2943 183.672 57.3225 185.161 57.3225C186.65 57.3225 187.328 58.2498 187.328 59.7209Z" fill="white"/>
<path d="M189.343 60.4341V61.7625H188.318V60.4341H189.343ZM189.343 65.6588V66.9873H188.318V65.6588H189.343Z" fill="white"/>
<path d="M194.71 59.7032V59.9528C194.758 60.3638 194.67 60.7792 194.459 61.1351C194.248 61.491 193.926 61.7679 193.542 61.9232C193.928 62.0835 194.251 62.3653 194.462 62.7258C194.673 63.0862 194.76 63.5057 194.71 63.9204V64.6693C194.71 66.1315 194.024 67.0945 192.544 67.0945C191.064 67.0945 190.386 66.1315 190.386 64.6693V64.0096H191.394V64.7318C191.394 65.6233 191.75 66.1226 192.517 66.1226C193.284 66.1226 193.641 65.6144 193.641 64.6426V63.9026C193.641 62.9486 193.239 62.5028 192.437 62.4671H191.857V61.5131H192.49C192.657 61.5149 192.822 61.4806 192.973 61.4125C193.125 61.3444 193.261 61.2442 193.37 61.1188C193.479 60.9933 193.56 60.8456 193.607 60.6859C193.654 60.5261 193.665 60.3582 193.641 60.1936V59.7567C193.641 58.767 193.302 58.2588 192.517 58.2588C191.733 58.2588 191.394 58.7938 191.394 59.6586V60.149H190.386V59.7121C190.386 58.241 191.073 57.2959 192.544 57.2959C194.015 57.2959 194.71 58.2321 194.71 59.7032Z" fill="white"/>
<path d="M200.069 59.7031V64.6068C200.069 66.1225 199.382 67.0854 197.84 67.0854C196.297 67.0854 195.673 66.1403 195.673 64.6692V64.4909H196.672V64.7406C196.672 65.6321 197.046 66.1136 197.813 66.1136C198.58 66.1136 198.999 65.5876 198.999 64.5801V62.4224C198.885 62.7372 198.673 63.0065 198.393 63.1898C198.113 63.3732 197.781 63.4606 197.447 63.4388C196.208 63.4388 195.664 62.5472 195.664 61.1742V59.7031C195.664 58.2319 196.386 57.2869 197.867 57.2869C199.347 57.2869 200.069 58.2319 200.069 59.7031ZM196.716 59.6496V61.1029C196.716 61.9945 197.091 62.4937 197.858 62.4937C198.624 62.4937 198.999 61.9677 198.999 61.1029V59.6674C198.999 58.7758 198.642 58.2765 197.858 58.2765C197.073 58.2765 196.716 58.7669 196.716 59.6496Z" fill="white"/>
<path d="M229.349 39.0271C230.846 39.0271 231.533 39.9187 231.533 41.4166V46.2579C231.533 47.729 230.846 48.6384 229.349 48.6384H227.102V39.0271H229.349ZM229.349 47.6577C230.115 47.6577 230.481 47.1851 230.481 46.3025V41.3631C230.481 40.4715 230.115 39.9989 229.331 39.9989H228.181V47.6577H229.349Z" fill="white"/>
<path d="M235.955 43.2711V44.234H233.602V47.6488H236.49V48.6206H232.549V39.0271H236.508V39.9989H233.619V43.2711H235.955Z" fill="white"/>
<path d="M241.635 41.3364V41.5949H240.618V41.2829C240.618 40.3913 240.288 39.9098 239.522 39.9098C238.755 39.9098 238.425 40.418 238.425 41.265C238.425 43.4227 241.653 43.6278 241.653 46.3293C241.653 47.7826 240.948 48.7366 239.477 48.7366C238.006 48.7366 237.328 47.7826 237.328 46.3293V45.7854H238.327V46.3828C238.327 47.2744 238.684 47.7558 239.45 47.7558C240.217 47.7558 240.583 47.2476 240.583 46.3828C240.583 44.243 237.364 44.0379 237.364 41.3364C237.364 39.8474 238.051 38.9291 239.495 38.9291C240.939 38.9291 241.635 39.8831 241.635 41.3364Z" fill="white"/>
<path d="M243.971 48.6206V39.9989H242.188V39.0271H246.815V39.9989H245.032V48.6206H243.971Z" fill="white"/>
<path d="M248.598 39.0271V48.6206H247.528V39.0271H248.598Z" fill="white"/>
<path d="M250.64 48.6206H249.677V39.0271H251.041L253.261 45.9458V39.0271H254.206V48.6206H253.1L250.64 40.8459V48.6206Z" fill="white"/>
<path d="M256.391 46.7037L256.025 48.6206H255.035L256.872 39.0093H258.406L260.26 48.6206H259.19L258.825 46.6859L256.391 46.7037ZM256.533 45.8121H258.673L257.585 40.2664L256.533 45.8121Z" fill="white"/>
<path d="M261.972 48.6206V39.9989H260.189V39.0271H264.789V39.9989H263.006V48.6206H261.972Z" fill="white"/>
<path d="M266.59 39.0271V48.6206H265.538V39.0271H266.59Z" fill="white"/>
<path d="M267.607 41.3453C267.607 39.8831 268.338 38.9291 269.8 38.9291C271.262 38.9291 272.011 39.8831 272.011 41.3453V46.3204C272.011 47.7736 271.289 48.7366 269.8 48.7366C268.311 48.7366 267.607 47.7736 267.607 46.3204V41.3453ZM268.668 46.3739C268.668 47.2654 269.033 47.7558 269.8 47.7558C270.567 47.7558 270.941 47.2476 270.941 46.3739V41.2918C270.941 40.4002 270.585 39.9098 269.8 39.9098C269.016 39.9098 268.668 40.4269 268.668 41.2918V46.3739Z" fill="white"/>
<path d="M273.982 48.6206H273.019V39.0271H274.374L276.603 45.9726V39.0271H277.548V48.6206H276.433L273.982 40.8459V48.6206Z" fill="white"/>
<path d="M347.984 39.0271C349.49 39.0271 350.123 39.7939 350.123 41.2204V42.005C350.123 43.066 349.758 43.7258 348.929 43.9843C349.82 44.2429 350.141 44.9562 350.141 45.9904V47.4794C350.108 47.8752 350.172 48.2732 350.328 48.6384H349.25C349.099 48.2687 349.037 47.8684 349.071 47.4705V45.9458C349.071 44.8581 348.563 44.5104 347.671 44.5104H346.914V48.6206H345.844V39.0271H347.984ZM347.707 43.5564C348.599 43.5564 349.071 43.28 349.071 42.2368V41.3452C349.071 40.4536 348.75 40.0257 347.957 40.0257H346.914V43.592L347.707 43.5564Z" fill="white"/>
<path d="M354.697 43.2711V44.234H352.343V47.6488H355.232V48.6206H351.274V39.0271H355.232V39.9989H352.343V43.2711H354.697Z" fill="white"/>
<path d="M359.735 48.6206H358.701L357.114 40.9797V48.6206H356.222V39.0271H357.72L359.298 46.7037L360.823 39.0271H362.32V48.6206H361.304V40.9084L359.735 48.6206Z" fill="white"/>
<path d="M364.505 46.7037L364.086 48.6206H363.096L364.942 39.0093H366.484L368.33 48.6206H367.26L366.885 46.6859L364.505 46.7037ZM364.639 45.8121H366.778L365.699 40.2664L364.639 45.8121Z" fill="white"/>
<path d="M371.308 39.0271C372.814 39.0271 373.447 39.7939 373.447 41.2204V42.005C373.447 43.066 373.073 43.7258 372.253 43.9843C373.144 44.2429 373.465 44.9562 373.465 45.9904V47.4794C373.432 47.8752 373.496 48.2732 373.652 48.6384H372.529C372.383 48.2673 372.322 47.8682 372.351 47.4705V45.9458C372.351 44.8581 371.851 44.5104 370.951 44.5104H370.202V48.6206H369.132V39.0271H371.308ZM371.031 43.5564C371.923 43.5564 372.386 43.28 372.386 42.2368V41.3452C372.386 40.4536 372.074 40.0257 371.281 40.0257H370.238V43.592L371.031 43.5564Z" fill="white"/>
<path d="M376.202 44.4658L375.641 45.4109V48.6206H374.571V39.0271H375.641V43.6634L378.2 39.0271H379.278L376.853 43.4048L379.368 48.6206H378.262L376.202 44.4658Z" fill="white"/>
<path d="M384.28 41.3364V41.5949H383.228V41.2829C383.228 40.3913 382.898 39.9098 382.131 39.9098C381.365 39.9098 381.035 40.418 381.035 41.265C381.035 43.4227 384.253 43.6278 384.253 46.3293C384.253 47.7826 383.558 48.7366 382.087 48.7366C380.616 48.7366 379.929 47.7826 379.929 46.3293V45.7854H380.937V46.3828C380.937 47.2744 381.293 47.7558 382.06 47.7558C382.827 47.7558 383.184 47.2476 383.184 46.3828C383.184 44.243 379.974 44.0379 379.974 41.3364C379.974 39.8474 380.66 38.9291 382.105 38.9291C383.549 38.9291 384.28 39.8831 384.28 41.3364Z" fill="white"/>
<path d="M304.126 41.3453V42.1745H303.11V41.2829C303.11 40.3913 302.771 39.9009 301.986 39.9009C301.202 39.9009 300.863 40.418 300.863 41.2829V46.3649C300.863 47.2565 301.22 47.7469 301.986 47.7469C302.753 47.7469 303.11 47.2298 303.11 46.3649V44.448H302.093V43.4851H304.099V46.3204C304.099 47.7736 303.413 48.7366 301.933 48.7366C300.453 48.7366 299.775 47.7736 299.775 46.3204V41.3453C299.775 39.892 300.462 38.9291 301.933 38.9291C303.404 38.9291 304.126 39.892 304.126 41.3453Z" fill="white"/>
<path d="M306.213 46.7037L305.847 48.6206H304.857L306.694 39.0093H308.245L310.118 48.6206H309.048L308.682 46.6859L306.213 46.7037ZM306.355 45.8121H308.495L307.443 40.2397L306.355 45.8121Z" fill="white"/>
<path d="M311.785 48.6206V39.9989H310.002V39.0271H314.602V39.9989H312.819V48.6206H311.785Z" fill="white"/>
<path d="M318.757 43.2711V44.234H316.412V47.6488H319.292V48.6206H315.342V39.0271H319.292V39.9989H316.412V43.2711H318.757Z" fill="white"/>
<path d="M179.767 48.6206V39.9989H177.984V39.0271H182.621V39.9989H180.837V48.6206H179.767Z" fill="white"/>
<path d="M184.404 39.0271V48.6206H183.334V39.0271H184.404Z" fill="white"/>
<path d="M189.058 48.6206H188.023L186.436 40.9797V48.6206H185.5V39.0271H186.998L188.576 46.7037L190.101 39.0271H191.599V48.6206H190.582V40.9084L189.058 48.6206Z" fill="white"/>
<path d="M196.11 43.2711V44.234H193.765V47.6488H196.645V48.6206H192.695V39.0271H196.645V39.9989H193.765V43.2711H196.11Z" fill="white"/>
<path d="M209.306 11.7802C211.597 11.7802 212.64 13.1621 212.64 15.4268V22.8269C212.64 25.0738 211.597 26.4557 209.306 26.4557H205.873V11.7802H209.306ZM209.306 24.9668C210.483 24.9668 211.089 24.2357 211.089 22.8894V15.3465C211.089 14.0002 210.527 13.2691 209.306 13.2691H207.522V24.9668H209.306Z" fill="white"/>
<path d="M219.39 18.3066V19.7688H215.823V24.9935H220.228V26.4825H214.192V11.7802H220.228V13.2691H215.823V18.3066H219.39Z" fill="white"/>
<path d="M224.926 11.7802C227.227 11.7802 228.216 13.1443 228.216 15.3465V17.1297C228.216 19.4567 227.129 20.696 224.802 20.696H223.348V26.4825H221.717V11.7802H224.926ZM224.802 19.1982C226.014 19.1982 226.585 18.6365 226.585 17.2278V15.2841C226.585 13.9378 226.103 13.2691 224.909 13.2691H223.33V19.1982H224.802Z" fill="white"/>
<path d="M230.873 23.4956L230.312 26.4557H228.796L231.658 11.7802H234.021L236.829 26.4557H235.198L234.627 23.4956H230.873ZM231.087 22.0958H234.333L232.674 13.6257L231.087 22.0958Z" fill="white"/>
<path d="M241.332 11.7802C243.641 11.7802 244.604 12.957 244.604 15.1325V16.3273C244.604 17.941 244.042 18.9485 242.821 19.3497C244.158 19.742 244.657 20.8387 244.657 22.4079V24.6904C244.608 25.2999 244.709 25.9121 244.951 26.4736H243.249C243.012 25.9108 242.917 25.2984 242.972 24.6904V22.3633C242.972 20.7139 242.196 20.1878 240.832 20.1878H239.682V26.429H238.042V11.7802H241.332ZM240.913 18.6989C242.214 18.6989 242.99 18.2798 242.99 16.6839V15.2841C242.99 13.9556 242.508 13.2691 241.296 13.2691H239.682V18.6989H240.913Z" fill="white"/>
<path d="M248.438 26.4557V13.2691H245.763V11.7802H252.789V13.2691H250.114V26.4557H248.438Z" fill="white"/>
<path d="M255.419 22.9963C255.419 24.3159 255.945 25.1094 257.139 25.1094C258.334 25.1094 258.834 24.3159 258.834 22.9963V11.7802H260.367V22.9161C260.367 25.1362 259.342 26.6251 257.077 26.6251C254.812 26.6251 253.805 25.1362 253.805 22.9161V11.7802H255.419V22.9963Z" fill="white"/>
<path d="M265.253 11.7802C267.553 11.7802 268.516 12.957 268.516 15.1325V16.3273C268.516 17.941 267.954 18.9485 266.733 19.3497C268.07 19.742 268.579 20.8387 268.579 22.4079V24.6904C268.525 25.3001 268.626 25.9134 268.873 26.4736H267.214C266.982 25.9095 266.887 25.2983 266.938 24.6904V22.3633C266.938 20.7139 266.162 20.1878 264.798 20.1878H263.648V26.429H261.972V11.7802H265.253ZM264.834 18.6989C266.127 18.6989 266.902 18.2798 266.902 16.6839V15.2841C266.902 13.9556 266.421 13.2691 265.208 13.2691H263.612V18.6989H264.834Z" fill="white"/>
<path d="M275.453 18.3066V19.7688H271.886V24.9935H276.237V26.4825H270.201V11.7802H276.237V13.2691H271.869V18.3066H275.453Z" fill="white"/>
<path d="M284.137 15.3019V15.7031H282.585V15.2217C282.585 13.8932 282.077 13.1175 280.909 13.1175C279.741 13.1175 279.224 13.8932 279.224 15.1949C279.224 18.4849 284.155 18.8058 284.155 22.9339C284.155 25.154 283.085 26.5983 280.838 26.5983C278.591 26.5983 277.548 25.154 277.548 22.9339V22.0958H279.081V22.9874C279.081 24.307 279.625 25.0826 280.802 25.0826C281.979 25.0826 282.523 24.307 282.523 22.9874C282.523 19.7153 277.61 19.421 277.61 15.2752C277.61 13.0105 278.662 11.6018 280.865 11.6018C283.067 11.6018 284.137 13.0818 284.137 15.3019Z" fill="white"/>
<path d="M180.329 75.6627C179.924 75.9083 179.465 76.0492 178.992 76.0728V75.1812C179.371 75.1894 179.742 75.0674 180.042 74.8353C180.342 74.6033 180.554 74.2754 180.641 73.9062H181.381V83.5087H180.329V75.6627Z" fill="white"/>
<path d="M187.328 76.2598C187.328 79.1575 184.074 80.2007 184.065 82.4118V82.5634H187.221V83.5352H183.004V82.715C183.004 79.6122 186.258 79.0059 186.258 76.3044C186.258 75.3148 185.928 74.7976 185.135 74.7976C184.341 74.7976 184.002 75.3593 184.002 76.2064V77.0979H183.004V76.2598C183.004 74.7887 183.672 73.8169 185.161 73.8169C186.65 73.8169 187.328 74.7887 187.328 76.2598Z" fill="white"/>
<path d="M189.343 76.9644V78.3017H188.318V76.9644H189.343ZM189.343 82.198V83.5264H188.318V82.198H189.343Z" fill="white"/>
<path d="M191.536 77.8291C191.678 77.5766 191.888 77.3687 192.141 77.2285C192.395 77.0884 192.682 77.0216 192.972 77.0356C194.202 77.0356 194.755 77.9272 194.755 79.3181V81.1993C194.755 82.6615 194.051 83.6244 192.58 83.6244C191.108 83.6244 190.431 82.6615 190.431 81.1993V80.5485H191.429V81.2617C191.429 82.1533 191.786 82.6526 192.553 82.6526C193.32 82.6526 193.685 82.1266 193.685 81.2617V79.3983C193.685 78.5067 193.328 78.0074 192.553 78.0074C192.413 78.0014 192.274 78.0237 192.143 78.073C192.013 78.1223 191.893 78.1975 191.792 78.2941C191.692 78.3908 191.611 78.5068 191.557 78.6353C191.502 78.7638 191.474 78.902 191.474 79.0417V79.2646H190.466L190.734 73.915H194.523V74.869H191.688L191.536 77.8291Z" fill="white"/>
<path d="M195.673 76.26C195.673 74.7888 196.404 73.8438 197.867 73.8438C199.329 73.8438 200.078 74.7888 200.078 76.26V81.2172C200.078 82.6794 199.356 83.6423 197.867 83.6423C196.378 83.6423 195.673 82.6794 195.673 81.2172V76.26ZM196.734 81.2796C196.734 82.1712 197.1 82.6705 197.867 82.6705C198.633 82.6705 199.008 82.1445 199.008 81.2796V76.2065C199.008 75.3149 198.651 74.8067 197.867 74.8067C197.082 74.8067 196.734 75.3238 196.734 76.2065V81.2796Z" fill="white"/>
<path d="M180.329 92.2016C179.924 92.4472 179.465 92.5881 178.992 92.6118V91.7202C179.373 91.7296 179.745 91.6069 180.046 91.3728C180.346 91.1388 180.557 90.8079 180.641 90.4363H181.381V100.065H180.329V92.2016Z" fill="white"/>
<path d="M187.275 92.781V93.0217C187.32 93.4335 187.231 93.849 187.02 94.2058C186.809 94.5626 186.489 94.8416 186.107 95.001C186.491 95.1596 186.814 95.4398 187.025 95.7987C187.236 96.1577 187.323 96.5758 187.275 96.9893V97.7293C187.275 99.2004 186.588 100.163 185.108 100.163C183.628 100.163 182.95 99.2004 182.95 97.7293V97.0695H183.949V97.8006C183.949 98.6922 184.306 99.1915 185.072 99.1915C185.839 99.1915 186.205 98.6833 186.205 97.7025V96.9625C186.205 96.0174 185.803 95.5627 184.992 95.536H184.404V94.573H185.028C185.194 94.5747 185.36 94.5403 185.512 94.4723C185.664 94.4043 185.8 94.3042 185.91 94.179C186.02 94.0537 186.101 93.9062 186.149 93.7465C186.197 93.5868 186.21 93.4186 186.187 93.2535V92.8166C186.187 91.827 185.839 91.3188 185.054 91.3188C184.27 91.3188 183.931 91.8537 183.931 92.7186V93.2H182.932V92.7631C182.932 91.292 183.619 90.3469 185.09 90.3469C186.561 90.3469 187.275 91.3098 187.275 92.781Z" fill="white"/>
<path d="M189.343 93.5032V94.8406H188.318V93.5032H189.343ZM189.343 98.7368V100.065H188.318V98.7368H189.343Z" fill="white"/>
<path d="M194.71 92.781V93.0217C194.759 93.4339 194.671 93.8506 194.46 94.2081C194.249 94.5656 193.927 94.8441 193.542 95.001C193.927 95.1596 194.25 95.4398 194.461 95.7987C194.672 96.1577 194.759 96.5758 194.71 96.9893V97.7293C194.71 99.2004 194.024 100.163 192.544 100.163C191.064 100.163 190.386 99.2004 190.386 97.7293V97.0695H191.394V97.8006C191.394 98.6922 191.75 99.1915 192.517 99.1915C193.284 99.1915 193.641 98.6833 193.641 97.7025V96.9625C193.641 96.0174 193.239 95.5627 192.437 95.536H191.857V94.573H192.49C192.657 94.5749 192.822 94.5406 192.973 94.4725C193.125 94.4044 193.261 94.3042 193.37 94.1787C193.479 94.0532 193.56 93.9055 193.607 93.7458C193.654 93.5861 193.665 93.4181 193.641 93.2535V92.8166C193.641 91.827 193.302 91.3188 192.517 91.3188C191.733 91.3188 191.394 91.8537 191.394 92.7186V93.2H190.386V92.7631C190.386 91.292 191.073 90.3469 192.544 90.3469C194.015 90.3469 194.71 91.3098 194.71 92.781Z" fill="white"/>
<path d="M200.078 92.79C200.078 95.6876 196.823 96.7308 196.815 98.9419V99.0935H199.971V100.065H195.754V99.2451C195.754 96.1423 199.008 95.5361 199.008 92.8345C199.008 91.8449 198.678 91.3188 197.884 91.3188C197.091 91.3188 196.761 91.8895 196.761 92.7365V93.6281H195.754V92.8524C195.754 91.3813 196.431 90.4094 197.911 90.4094C199.391 90.4094 200.078 91.3188 200.078 92.79Z" fill="white"/>
<path d="M180.329 108.741C179.923 108.982 179.464 109.123 178.992 109.151V108.259C179.372 108.271 179.744 108.15 180.045 107.917C180.346 107.685 180.557 107.355 180.641 106.984H181.381V116.595H180.329V108.741Z" fill="white"/>
<path d="M187.275 109.311V109.561C187.32 109.973 187.231 110.388 187.02 110.745C186.809 111.102 186.489 111.381 186.107 111.54C186.491 111.699 186.814 111.979 187.025 112.338C187.236 112.697 187.323 113.115 187.275 113.529V114.269C187.275 115.74 186.588 116.703 185.108 116.703C183.628 116.703 182.95 115.74 182.95 114.269V113.609H183.949V114.34C183.949 115.232 184.306 115.722 185.072 115.722C185.839 115.722 186.205 115.214 186.205 114.242V113.502C186.205 112.557 185.803 112.102 184.992 112.075H184.404V111.112H185.028C185.194 111.114 185.36 111.08 185.512 111.012C185.664 110.944 185.8 110.844 185.91 110.718C186.02 110.593 186.101 110.445 186.149 110.286C186.197 110.126 186.21 109.958 186.187 109.793V109.356C186.187 108.366 185.839 107.858 185.054 107.858C184.27 107.858 183.931 108.393 183.931 109.258V109.757H182.932V109.311C182.932 107.849 183.619 106.904 185.09 106.904C186.561 106.904 187.275 107.849 187.275 109.311Z" fill="white"/>
<path d="M189.343 110.042V111.371H188.318V110.042H189.343ZM189.343 115.276V116.604H188.318V115.276H189.343Z" fill="white"/>
<path d="M194.345 114.669V116.604H193.32V114.669H190.199V113.707L193.177 107.011H194.345V113.707H195.103V114.687L194.345 114.669ZM191.189 113.689H193.32V108.999L191.189 113.689Z" fill="white"/>
<path d="M200.345 109.249V109.552C200.398 109.955 200.318 110.365 200.119 110.72C199.92 111.075 199.612 111.357 199.24 111.522C199.617 111.699 199.927 111.991 200.126 112.357C200.325 112.723 200.402 113.143 200.345 113.555V114.268C200.365 114.578 200.32 114.889 200.215 115.181C200.11 115.473 199.946 115.741 199.733 115.967C199.521 116.193 199.264 116.374 198.979 116.497C198.694 116.621 198.387 116.684 198.076 116.684C197.766 116.684 197.458 116.621 197.173 116.497C196.888 116.374 196.632 116.193 196.419 115.967C196.206 115.741 196.042 115.473 195.937 115.181C195.832 114.889 195.788 114.578 195.807 114.268V113.555C195.75 113.141 195.827 112.72 196.028 112.354C196.229 111.988 196.542 111.696 196.922 111.522C196.546 111.36 196.234 111.08 196.033 110.724C195.832 110.369 195.752 109.957 195.807 109.552V109.249C195.788 108.939 195.832 108.628 195.937 108.336C196.042 108.044 196.206 107.776 196.419 107.55C196.632 107.323 196.888 107.143 197.173 107.02C197.458 106.896 197.766 106.833 198.076 106.833C198.387 106.833 198.694 106.896 198.979 107.02C199.264 107.143 199.521 107.323 199.733 107.55C199.946 107.776 200.11 108.044 200.215 108.336C200.32 108.628 200.365 108.939 200.345 109.249V109.249ZM196.868 109.249V109.712C196.868 110.604 197.323 111.059 198.072 111.059C198.821 111.059 199.284 110.648 199.284 109.712V109.249C199.284 108.259 198.83 107.804 198.072 107.804C197.314 107.804 196.886 108.357 196.886 109.302L196.868 109.249ZM196.868 113.403V114.215C196.868 115.204 197.305 115.668 198.072 115.668C198.838 115.668 199.266 115.204 199.284 114.215V113.403C199.284 112.512 198.874 112.021 198.072 112.021C197.269 112.021 196.886 112.53 196.886 113.457L196.868 113.403Z" fill="white"/>
<path d="M180.329 125.297C179.923 125.539 179.464 125.68 178.992 125.708V124.816C179.372 124.828 179.744 124.707 180.045 124.474C180.346 124.242 180.557 123.912 180.641 123.541H181.381V133.143H180.329V125.297Z" fill="white"/>
<path d="M184.074 127.446C184.213 127.193 184.421 126.985 184.673 126.845C184.926 126.705 185.212 126.638 185.5 126.652C186.74 126.652 187.283 127.544 187.283 128.926V130.807C187.283 132.278 186.588 133.241 185.117 133.241C183.646 133.241 182.959 132.278 182.959 130.807V130.165H183.967V130.878C183.967 131.77 184.323 132.26 185.09 132.26C185.857 132.26 186.214 131.743 186.214 130.878V129.006C186.214 128.115 185.857 127.624 185.09 127.624C184.951 127.618 184.812 127.64 184.681 127.689C184.551 127.737 184.431 127.812 184.33 127.907C184.228 128.003 184.147 128.118 184.091 128.245C184.035 128.373 184.005 128.51 184.002 128.649V128.863H183.004L183.262 123.514H187.078V124.477H184.225L184.074 127.446Z" fill="white"/>
<path d="M189.343 126.581V127.91H188.318V126.581H189.343ZM189.343 131.806V133.143H188.318V131.806H189.343Z" fill="white"/>
<path d="M192.428 125.297C192.021 125.539 191.563 125.68 191.091 125.708V124.816C191.471 124.828 191.843 124.707 192.144 124.474C192.445 124.242 192.655 123.912 192.74 123.541H193.48V133.143H192.428V125.297Z" fill="white"/>
<path d="M195.005 125.85C195.005 124.388 195.727 123.434 197.198 123.434C198.669 123.434 199.409 124.388 199.409 125.85V130.807C199.409 132.278 198.678 133.241 197.198 133.241C195.718 133.241 195.005 132.278 195.005 130.807V125.85ZM196.057 130.879C196.057 131.77 196.431 132.261 197.198 132.261C197.965 132.261 198.339 131.743 198.339 130.879V125.797C198.339 124.905 197.983 124.397 197.198 124.397C196.413 124.397 196.057 124.923 196.057 125.797V130.879Z" fill="white"/>
<path d="M350.088 125.85V126.742H349.071V125.85C349.071 124.958 348.724 124.468 347.939 124.468C347.154 124.468 346.815 124.985 346.815 125.85V130.932C346.815 131.824 347.172 132.314 347.939 132.314C348.706 132.314 349.071 131.797 349.071 130.932V129.684H350.088V130.879C350.088 132.332 349.401 133.295 347.912 133.295C346.423 133.295 345.781 132.278 345.781 130.825V125.85C345.781 124.397 346.468 123.434 347.93 123.434C349.392 123.434 350.088 124.406 350.088 125.85Z" fill="black"/>
<path d="M352.138 131.208L351.773 133.143H350.783L352.62 123.514H354.171L356.017 133.125H354.938L354.572 131.191L352.138 131.208ZM352.281 130.317H354.421L353.333 124.771L352.281 130.317Z" fill="black"/>
<path d="M357.8 133.143H356.837V123.514H358.192L360.421 130.459V123.514H361.366V133.143H360.252L357.8 125.368V133.143Z" fill="black"/>
<path d="M366.707 125.85V126.742H365.69V125.85C365.69 124.958 365.352 124.468 364.567 124.468C363.782 124.468 363.444 124.985 363.444 125.85V130.932C363.444 131.824 363.8 132.314 364.567 132.314C365.334 132.314 365.69 131.797 365.69 130.932V129.684H366.707V130.879C366.707 132.332 366.02 133.295 364.54 133.295C363.06 133.295 362.383 132.332 362.383 130.879V125.904C362.383 124.45 363.069 123.487 364.54 123.487C366.011 123.487 366.707 124.406 366.707 125.85Z" fill="black"/>
<path d="M371.103 127.785V128.748H368.749V132.162H371.637V133.143H367.679V123.514H371.637V124.486H368.749V127.767L371.103 127.785Z" fill="black"/>
<path d="M372.627 133.143V123.514H373.697V132.144H376.443V133.125L372.627 133.143Z" fill="black"/>
<path d="M377.246 133.143V123.514H378.315V132.144H381.062V133.125L377.246 133.143Z" fill="black"/>
<path d="M385.297 127.785V128.748H382.943V132.162H385.832V133.143H381.873V123.514H385.832V124.486H382.943V127.767L385.297 127.785Z" fill="black"/>
<path d="M389.068 123.514C390.566 123.514 391.252 124.405 391.252 125.903V130.745C391.252 132.216 390.566 133.125 389.068 133.125H386.794V123.514H389.068ZM389.068 132.144C389.835 132.144 390.2 131.672 390.2 130.789V125.85C390.2 124.958 389.835 124.486 389.05 124.486H387.9V132.144H389.068Z" fill="black"/>
<path d="M184.974 19.6439C184.974 20.4374 184.974 21.1685 184.974 21.8996C185.075 22.5376 185.048 23.1892 184.894 23.8166C184.662 24.3337 184.003 24.6546 183.503 25.0648C183.448 25.0961 183.396 25.1351 183.352 25.1807C183.292 25.2549 183.255 25.3446 183.245 25.4392C183.245 25.885 183.245 26.3308 183.245 26.8123C184.074 26.5627 184.85 26.313 185.625 26.1079C185.886 26.0455 186.158 26.0455 186.419 26.1079C187.194 26.3041 187.97 26.5448 188.746 26.7677C188.933 25.4392 188.897 25.3323 187.926 24.5477C187.703 24.3604 187.462 24.191 187.248 23.9949C187.151 23.9069 187.091 23.7861 187.079 23.6561C187.079 22.3276 187.079 20.9813 187.079 19.5993L194.898 22.0155C194.898 21.4895 194.898 21.0348 194.898 20.589C194.916 20.4463 194.887 20.3016 194.817 20.1763C194.746 20.051 194.637 19.9519 194.505 19.8936C192.17 18.5116 189.842 17.1029 187.498 15.7209C187.355 15.6563 187.235 15.5484 187.157 15.4124C187.079 15.2764 187.045 15.1192 187.061 14.9631C187.061 13.1799 187.061 11.4591 187.061 9.71161C187.085 9.49222 187.039 9.27085 186.93 9.07885C186.821 8.88684 186.655 8.73391 186.454 8.6417C186.288 8.56332 186.103 8.5312 185.92 8.54872C185.737 8.56625 185.562 8.63276 185.413 8.74128C185.265 8.8498 185.148 8.99633 185.075 9.16549C185.003 9.33465 184.977 9.52021 185.001 9.70269C185.001 11.4859 185.001 13.269 185.001 15.0522C185.017 15.1923 184.988 15.3337 184.919 15.4568C184.85 15.5798 184.745 15.6784 184.618 15.7388C182.246 17.1385 179.883 18.5562 177.53 19.9649C177.387 20.054 177.191 20.1967 177.182 20.3215C177.182 20.8921 177.182 21.4628 177.182 22.1047L184.974 19.6439Z" fill="white"/>
<path d="M184.974 19.6439L177.146 22.0869C177.146 21.4539 177.146 20.8832 177.146 20.3037C177.146 20.1789 177.351 20.0362 177.494 19.9471C179.848 18.5384 182.21 17.1207 184.582 15.7209C184.709 15.6606 184.815 15.562 184.883 15.439C184.952 15.3159 184.981 15.1745 184.965 15.0344C184.965 13.2512 184.965 11.468 184.965 9.68487C184.941 9.50239 184.967 9.31683 185.039 9.14767C185.112 8.9785 185.229 8.83198 185.377 8.72345C185.526 8.61493 185.701 8.54842 185.884 8.5309C186.067 8.51338 186.252 8.5455 186.419 8.62388C186.619 8.71609 186.785 8.86902 186.894 9.06102C187.003 9.25303 187.049 9.47439 187.025 9.69378C187.025 11.477 187.025 13.1977 187.025 14.9452C187.009 15.1014 187.043 15.2586 187.121 15.3946C187.199 15.5306 187.319 15.6385 187.462 15.7031C189.807 17.0851 192.134 18.4938 194.47 19.8757C194.601 19.934 194.71 20.0332 194.781 20.1585C194.852 20.2838 194.88 20.4285 194.862 20.5712C194.862 21.017 194.862 21.4628 194.862 21.9977L187.078 19.635C187.078 21.0348 187.078 22.3633 187.078 23.6917C187.106 23.8128 187.175 23.9201 187.274 23.9949C187.488 24.191 187.729 24.3604 187.952 24.5477C188.924 25.3323 188.96 25.4393 188.772 26.7677C187.997 26.5448 187.221 26.3041 186.445 26.1079C186.184 26.0455 185.913 26.0455 185.652 26.1079C184.876 26.313 184.1 26.5627 183.271 26.8123C183.271 26.3308 183.271 25.9207 183.271 25.4393C183.282 25.3446 183.319 25.2549 183.378 25.1807C183.423 25.1351 183.474 25.0961 183.53 25.0648C184.011 24.6547 184.689 24.3337 184.921 23.8166C185.074 23.1892 185.102 22.5376 185.001 21.8996C184.983 21.1685 184.974 20.4374 184.974 19.6439Z" fill="white"/>
<path d="M168.801 183.697V266.614" stroke="#263238" stroke-width="3.56636" stroke-linecap="round" stroke-linejoin="round"/>
<path d="M198.223 183.696V181.69C198.223 180.212 197.636 178.795 196.591 177.75C195.546 176.705 194.129 176.118 192.651 176.118H174.373C172.895 176.118 171.478 176.705 170.433 177.75C169.388 178.795 168.801 180.212 168.801 181.69V183.696" stroke="#263238" stroke-width="5.34954" stroke-linecap="round" stroke-linejoin="round"/>
<path d="M198.223 265.277V183.697" stroke="#263238" stroke-width="3.56636" stroke-linecap="round" stroke-linejoin="round"/>
<path d="M174.15 381.184C176.612 381.184 178.608 379.188 178.608 376.726C178.608 374.264 176.612 372.268 174.15 372.268C171.688 372.268 169.692 374.264 169.692 376.726C169.692 379.188 171.688 381.184 174.15 381.184Z" fill="#263238" stroke="#263238" stroke-width="0.89159" stroke-linecap="round" stroke-linejoin="round"/>
<path d="M173.651 376.645C173.257 376.645 172.867 376.568 172.503 376.416C172.139 376.265 171.808 376.044 171.53 375.765C171.251 375.486 171.031 375.154 170.881 374.79C170.731 374.425 170.654 374.035 170.655 373.641V368.113H176.656V373.641C176.656 374.438 176.339 375.202 175.776 375.765C175.212 376.329 174.448 376.645 173.651 376.645V376.645Z" fill="#636363" stroke="#263238" stroke-width="0.89159" stroke-linecap="round" stroke-linejoin="round"/>
<path d="M139.878 381.184C142.34 381.184 144.336 379.188 144.336 376.726C144.336 374.264 142.34 372.268 139.878 372.268C137.416 372.268 135.42 374.264 135.42 376.726C135.42 379.188 137.416 381.184 139.878 381.184Z" fill="#263238" stroke="#263238" stroke-width="0.89159" stroke-linecap="round" stroke-linejoin="round"/>
<path d="M139.378 376.645C138.582 376.645 137.817 376.329 137.254 375.765C136.69 375.202 136.374 374.438 136.374 373.641V368.113H142.383V373.641C142.383 374.035 142.305 374.426 142.154 374.79C142.003 375.155 141.782 375.486 141.503 375.765C141.224 376.044 140.893 376.266 140.528 376.417C140.164 376.568 139.773 376.645 139.378 376.645V376.645Z" fill="#636363" stroke="#263238" stroke-width="0.89159" stroke-linecap="round" stroke-linejoin="round"/>
<path d="M195.549 381.184C198.011 381.184 200.006 379.188 200.006 376.726C200.006 374.264 198.011 372.268 195.549 372.268C193.086 372.268 191.091 374.264 191.091 376.726C191.091 379.188 193.086 381.184 195.549 381.184Z" fill="#263238" stroke="#263238" stroke-width="0.89159" stroke-linecap="round" stroke-linejoin="round"/>
<path d="M195.049 376.645C194.655 376.645 194.265 376.568 193.901 376.416C193.537 376.265 193.206 376.044 192.928 375.765C192.649 375.486 192.429 375.154 192.279 374.79C192.129 374.425 192.052 374.035 192.053 373.641V368.113H198.054V373.641C198.054 374.438 197.737 375.202 197.174 375.765C196.61 376.329 195.846 376.645 195.049 376.645Z" fill="#636363" stroke="#263238" stroke-width="0.89159" stroke-linecap="round" stroke-linejoin="round"/>
<path d="M160.83 381.184C163.292 381.184 165.288 379.188 165.288 376.726C165.288 374.264 163.292 372.268 160.83 372.268C158.368 372.268 156.372 374.264 156.372 376.726C156.372 379.188 158.368 381.184 160.83 381.184Z" fill="#263238" stroke="#263238" stroke-width="0.89159" stroke-linecap="round" stroke-linejoin="round"/>
<path d="M160.331 376.645C159.534 376.645 158.77 376.329 158.206 375.765C157.643 375.202 157.326 374.438 157.326 373.641V368.113H163.335V373.641C163.335 374.438 163.019 375.202 162.455 375.765C161.892 376.329 161.128 376.645 160.331 376.645V376.645Z" fill="#636363" stroke="#263238" stroke-width="0.89159" stroke-linecap="round" stroke-linejoin="round"/>
<path d="M176.442 370.93H134.305C130.668 370.93 127.734 367.596 127.788 363.53L128.991 268.906C129.036 264.92 131.943 261.71 135.509 261.71H175.238C178.804 261.71 181.711 264.92 181.765 268.906L182.959 363.53C183.013 367.596 180.079 370.93 176.442 370.93Z" fill="black" stroke="#263238" stroke-width="0.89159" stroke-linecap="round" stroke-linejoin="round"/>
<path d="M199.944 370.93H171.413C168.952 370.93 166.955 367.596 167 363.53L167.811 268.906C167.811 264.92 169.808 261.71 172.269 261.71H199.159C201.576 261.71 203.537 264.92 203.573 268.906L204.384 363.53C204.393 367.596 202.405 370.93 199.944 370.93Z" fill="black" stroke="#263238" stroke-width="0.89159" stroke-linecap="round" stroke-linejoin="round"/>
<path d="M189.307 261.71H185.295V370.93H189.307V261.71Z" fill="#263238" stroke="#263238" stroke-width="0.89159" stroke-linecap="round" stroke-linejoin="round"/>
<path d="M189.307 261.711C183.066 262.602 163.897 267.952 150.077 267.952H148.99C135.767 267.836 126.869 265.527 126.004 258.144C125.576 254.48 127.44 250.708 130.944 247.534C134.68 244.155 140.288 241.463 146.992 240.313C159.921 238.084 177.307 236.746 177.307 236.746C177.307 236.746 194.693 234.963 200.042 243.433C205.392 251.903 195.548 260.819 189.307 261.711Z" fill="white" stroke="#263238" stroke-width="0.89159" stroke-linecap="round" stroke-linejoin="round"/>
<path d="M176.825 241.204C173.259 243.433 158.547 243.879 147.848 250.12C137.149 256.361 137.149 265.723 147.403 267.506C147.947 267.587 148.48 267.733 148.99 267.943C135.767 267.827 126.869 265.518 126.004 258.135C125.576 254.471 127.44 250.699 130.944 247.525C135.301 244.89 140.159 243.189 145.209 242.532C162.595 240.303 172.403 240.749 172.403 240.749C172.403 240.749 180.391 238.975 176.825 241.204Z" fill="white" stroke="#263238" stroke-width="0.89159" stroke-linecap="round" stroke-linejoin="round"/>
<path d="M159.823 260.355C172.617 258.75 191.839 256.994 199.561 249.656" stroke="#263238" stroke-width="0.89159" stroke-linecap="round" stroke-linejoin="round"/>
<path d="M142.499 260.819C142.499 260.819 143.667 262.379 154.018 261.122" stroke="#263238" stroke-width="0.89159" stroke-linecap="round" stroke-linejoin="round"/>
<path d="M190.645 254.578C189.15 256.077 187.806 257.719 186.633 259.481" stroke="#263238" stroke-width="0.89159" stroke-linecap="round" stroke-linejoin="round"/>
<path d="M174.596 257.698C174.596 257.698 175.042 260.373 173.705 261.711" stroke="#263238" stroke-width="0.89159" stroke-linecap="round" stroke-linejoin="round"/>
<path d="M126.005 258.144C126.005 258.144 131.8 262.602 137.149 261.711" stroke="#263238" stroke-width="0.89159" stroke-linecap="round" stroke-linejoin="round"/>
</svg>
