<svg width="530" height="494" viewBox="0 0 530 494" fill="none" xmlns="http://www.w3.org/2000/svg">
<path d="M516.187 129.529C516.187 129.529 470.508 41.3875 375.385 11.7552C280.262 -17.8771 236.373 15.5047 187.686 51.6707C149.393 80.1277 119.439 119.847 88.086 155.286C59.3771 187.73 17.2651 214.047 4.02989 257.418C-12.7589 312.275 25.5056 368.224 70.7795 396.821C133.961 436.737 195.101 406.419 261.053 392.274L261.417 392.19C270.933 390.082 280.596 388.702 290.321 388.063C366.879 383.712 421.904 437.464 477.559 375.471C533.214 313.479 541.888 198.727 516.187 129.529Z" fill="black"/>
<path opacity="0.7" d="M516.187 129.529C516.187 129.529 470.508 41.3875 375.385 11.7552C280.262 -17.8771 236.373 15.5047 187.686 51.6707C149.393 80.1277 119.439 119.847 88.086 155.286C59.3771 187.73 17.2651 214.047 4.02989 257.418C-12.7589 312.275 25.5056 368.224 70.7795 396.821C133.961 436.737 195.101 406.419 261.053 392.274L261.417 392.19C270.933 390.082 280.596 388.702 290.321 388.063C366.879 383.712 421.904 437.464 477.559 375.471C533.214 313.479 541.888 198.727 516.187 129.529Z" fill="white"/>
<path d="M244.306 139.001C238.472 135.825 235.814 138.469 233.701 135.825C231.588 133.18 239.535 126.269 223.614 119.372C223.614 119.372 222.551 104.528 200.809 103.982C179.067 103.436 184.902 118.826 179.011 122.562C173.121 126.297 171.582 120.435 165.748 124.143C159.914 127.85 162.558 135.335 157.788 136.342C153.017 137.35 146.595 131.572 140.817 135.293C135.039 139.015 134.983 142.177 132.325 142.177C129.666 142.177 124.364 140.064 121.132 142.177C117.9 144.289 114.235 146.961 114.235 146.961H248.545C248.545 146.961 250.14 142.177 244.306 139.001Z" fill="black"/>
<path d="M516.075 246.897C507.429 242.182 503.484 246.113 500.35 242.182C497.216 238.251 508.996 228.037 485.422 217.824C485.422 217.824 483.855 195.817 451.62 195.033C419.386 194.25 428.046 217.027 419.442 222.539C410.837 228.051 408.445 219.391 399.855 224.889C391.264 230.388 395.14 241.398 388.06 242.965C380.981 244.532 371.565 235.9 362.877 241.398C354.189 246.897 354.231 251.612 350.286 251.612C346.34 251.612 338.491 248.464 333.776 251.612C329.062 254.76 323.563 258.691 323.563 258.691H522.357C522.357 258.691 524.721 251.612 516.075 246.897Z" fill="black"/>
<path d="M214.94 332.198C206.293 327.483 202.348 331.415 199.214 327.483C196.08 323.552 207.86 313.339 184.286 303.111C184.286 303.111 182.719 281.118 150.498 280.321C118.278 279.523 126.91 302.328 118.32 307.84C109.73 313.353 107.309 304.692 98.6629 310.191C90.0167 315.689 93.948 326.7 86.8827 328.267C79.8174 329.834 70.3737 321.201 61.6995 326.7C53.0253 332.198 53.0532 336.913 49.1079 336.913C45.1625 336.913 37.3277 333.765 32.6128 336.913C27.898 340.061 22.3856 343.992 22.3856 343.992H221.221C221.221 343.992 223.586 336.913 214.94 332.198Z" fill="black"/>
<g opacity="0.4">
<path d="M244.306 139.001C238.472 135.825 235.814 138.469 233.701 135.825C231.588 133.18 239.535 126.269 223.614 119.372C223.614 119.372 222.551 104.528 200.809 103.982C179.067 103.436 184.902 118.826 179.011 122.562C173.121 126.297 171.582 120.435 165.748 124.143C159.914 127.85 162.558 135.335 157.788 136.342C153.017 137.35 146.595 131.572 140.817 135.293C135.039 139.015 134.983 142.177 132.325 142.177C129.666 142.177 124.364 140.064 121.132 142.177C117.9 144.289 114.235 146.961 114.235 146.961H248.545C248.545 146.961 250.14 142.177 244.306 139.001Z" fill="white"/>
<path d="M516.075 246.897C507.429 242.182 503.484 246.113 500.35 242.182C497.216 238.251 508.996 228.037 485.422 217.824C485.422 217.824 483.855 195.817 451.62 195.033C419.386 194.25 428.046 217.027 419.442 222.539C410.837 228.051 408.445 219.391 399.855 224.889C391.264 230.388 395.14 241.398 388.06 242.965C380.981 244.532 371.565 235.9 362.877 241.398C354.189 246.897 354.231 251.612 350.286 251.612C346.34 251.612 338.491 248.464 333.776 251.612C329.062 254.76 323.563 258.691 323.563 258.691H522.357C522.357 258.691 524.721 251.612 516.075 246.897Z" fill="white"/>
<path d="M214.94 332.198C206.293 327.483 202.348 331.415 199.214 327.483C196.08 323.552 207.86 313.339 184.286 303.111C184.286 303.111 182.719 281.118 150.498 280.321C118.278 279.523 126.91 302.328 118.32 307.84C109.73 313.353 107.309 304.692 98.6629 310.191C90.0167 315.689 93.948 326.7 86.8827 328.267C79.8174 329.834 70.3737 321.201 61.6995 326.7C53.0253 332.198 53.0532 336.913 49.1079 336.913C45.1625 336.913 37.3277 333.765 32.6128 336.913C27.898 340.061 22.3856 343.992 22.3856 343.992H221.221C221.221 343.992 223.586 336.913 214.94 332.198Z" fill="white"/>
</g>
<path d="M451.592 329.4C451.592 329.4 429.613 325.622 418.308 312.443C407.004 299.264 346.718 228.289 346.718 228.289C346.718 228.289 335.413 223.896 312.175 228.289L339.806 338.816L451.592 329.4Z" fill="black"/>
<path d="M496.18 327.511C496.18 327.511 351.741 328.77 300.87 342.579V353.254C300.87 353.254 368.11 374.548 459.721 394.904C470.345 397.272 481.196 398.469 492.081 398.472H523.183V326.882L496.18 327.511Z" fill="black"/>
<g opacity="0.3">
<path d="M339.079 335.906C372.936 331.834 415.72 329.722 448.094 328.63C441.435 326.966 426.829 322.391 418.308 312.443C416.126 309.897 412.11 305.196 407.116 299.264C383.332 315.689 355.518 324.881 337.54 329.54L339.079 335.906Z" fill="black"/>
<path d="M335.246 320.572C366.025 310.359 376.532 286.602 379.736 267.141L346.718 228.289C345.618 227.907 344.491 227.608 343.346 227.394C344.465 249.387 336.491 271.185 327.271 288.645L335.246 320.572Z" fill="black"/>
<path d="M451.592 374.604C426.647 371.68 343.864 356.934 308.411 350.554V340.76C305.725 341.348 303.193 341.95 300.87 342.579V353.254H300.996L301.346 353.366L305.124 354.527L308.327 355.507C328.292 361.551 386.102 378.493 459.637 394.834C470.261 397.202 481.112 398.399 491.997 398.402H523.183V375.415C504.911 376.255 473.236 377.15 451.592 374.604Z" fill="black"/>
<path d="M337.932 353.884L394.44 351.379L354.874 341.32H332.909L337.932 353.884Z" fill="black"/>
</g>
<path d="M523.182 387.587H16.7194V422.564H523.182V387.587Z" fill="#263238" stroke="#263238" stroke-width="1.39907" stroke-linecap="round" stroke-linejoin="round"/>
<path d="M523.182 258.873H16.7194V267.267H523.182V258.873Z" fill="#263238" stroke="#263238" stroke-width="1.39907" stroke-linecap="round" stroke-linejoin="round"/>
<path d="M79.6775 23.8292V407.174" stroke="#263238" stroke-width="1.39907" stroke-linecap="round" stroke-linejoin="round"/>
<path d="M271.35 23.8292V407.174" stroke="#263238" stroke-width="1.39907" stroke-linecap="round" stroke-linejoin="round"/>
<path d="M463.022 23.8292V407.174" stroke="#263238" stroke-width="1.39907" stroke-linecap="round" stroke-linejoin="round"/>
<path d="M21.6301 123.163C188.805 123.023 356.693 123.023 523.182 123.163" stroke="#263238" stroke-width="1.39907" stroke-linecap="round" stroke-linejoin="round"/>
<path d="M136.298 181.602L140.691 187.856" stroke="#263238" stroke-width="1.39907" stroke-miterlimit="10"/>
<path d="M95.5429 123.583L130.562 173.446" stroke="#263238" stroke-width="1.39907" stroke-miterlimit="10"/>
<path d="M329.901 327.763L334.294 334.017" stroke="#263238" stroke-width="1.39907" stroke-miterlimit="10"/>
<path d="M289.146 269.744L324.165 319.607" stroke="#263238" stroke-width="1.39907" stroke-miterlimit="10"/>
<path d="M345.962 381.319L350.369 387.587" stroke="#263238" stroke-width="1.39907" stroke-miterlimit="10"/>
<path d="M305.208 323.3L340.24 373.163" stroke="#263238" stroke-width="1.39907" stroke-miterlimit="10"/>
<path d="M186.804 91.3064L191.197 97.5602" stroke="#263238" stroke-width="1.39907" stroke-miterlimit="10"/>
<path d="M146.049 33.2869L181.068 83.1497" stroke="#263238" stroke-width="1.39907" stroke-miterlimit="10"/>
<path d="M352.734 61.8L357.127 68.0679" stroke="#263238" stroke-width="1.39907" stroke-miterlimit="10"/>
<path d="M311.979 3.78064L346.998 53.6435" stroke="#263238" stroke-width="1.39907" stroke-miterlimit="10"/>
<path d="M510.493 322.405L514.886 328.659" stroke="#263238" stroke-width="1.39907" stroke-miterlimit="10"/>
<path d="M469.738 264.385L504.757 314.248" stroke="#263238" stroke-width="1.39907" stroke-miterlimit="10"/>
<path d="M127.875 326.224L132.269 332.492" stroke="#263238" stroke-width="1.39907" stroke-miterlimit="10"/>
<path d="M87.1205 268.205L122.153 318.068" stroke="#263238" stroke-width="1.39907" stroke-miterlimit="10"/>
<path d="M159.257 69.8726L163.65 76.1404" stroke="#263238" stroke-width="1.39907" stroke-miterlimit="10"/>
<path d="M118.502 11.8531L153.52 61.716" stroke="#263238" stroke-width="1.39907" stroke-miterlimit="10"/>
<path d="M386.941 228.429L391.334 234.697" stroke="#263238" stroke-width="1.39907" stroke-miterlimit="10"/>
<path d="M346.186 170.41L381.219 220.273" stroke="#263238" stroke-width="1.39907" stroke-miterlimit="10"/>
<path d="M20.5389 298.97C22.5396 299.852 27.5343 299.74 27.5343 299.74C27.5343 299.74 26.485 296.522 26.387 296.326C25.3097 294.059 21.896 290.338 19.1258 290.73C18.6608 290.802 18.2166 290.973 17.8228 291.231C17.429 291.489 17.0946 291.828 16.8418 292.225C16.589 292.622 16.4237 293.068 16.3567 293.534C16.2898 294 16.3228 294.475 16.4536 294.927C16.8094 295.852 17.3575 296.69 18.0618 297.387C18.7661 298.084 19.6104 298.624 20.5389 298.97V298.97Z" fill="#263238"/>
<path d="M84.9381 282.237C82.1399 281.93 78.8381 285.749 77.8308 288.029C77.7329 288.225 76.7115 291.471 76.7675 291.471C76.2498 292.073 75.6902 292.716 75.0886 293.444C73.9974 294.843 72.7802 296.242 71.563 298.047C70.2353 299.915 69.0161 301.859 67.9114 303.867C66.6678 306.103 65.6238 308.443 64.7915 310.862C64.7975 310.89 64.7975 310.919 64.7915 310.946C64.7915 310.135 64.7915 307.84 64.7915 307.658C64.4697 305.182 62.3991 300.579 59.6429 300.062C59.1833 299.99 58.7138 300.017 58.265 300.139C57.8162 300.261 57.3981 300.476 57.0379 300.77C56.6777 301.065 56.3834 301.431 56.1742 301.847C55.9649 302.262 55.8454 302.717 55.8234 303.181C55.8596 304.188 56.1164 305.175 56.5757 306.072C57.035 306.969 57.6857 307.754 58.4817 308.372C60.0486 309.771 64.4137 311.17 64.7635 311.24C63.9645 313.745 63.3381 316.302 62.8887 318.893C62.6229 320.39 62.3991 321.901 62.1892 323.426C62.1892 322.726 62.1892 322.027 62.1892 322.027C61.8674 319.551 59.7828 314.948 57.0266 314.43C56.5704 314.357 56.1039 314.38 55.6571 314.498C55.2103 314.616 54.7931 314.825 54.4321 315.114C54.0712 315.402 53.7745 315.763 53.5612 316.173C53.3478 316.583 53.2225 317.033 53.1932 317.494C53.2368 318.499 53.4969 319.484 53.9556 320.379C54.4144 321.275 55.061 322.061 55.8514 322.684C57.7314 323.92 59.7882 324.864 61.9514 325.483C61.8674 326.07 61.7975 326.644 61.7275 327.231C61.3917 330.03 61.07 332.828 60.6642 335.626C60.5243 336.591 60.3424 337.529 60.1745 338.424C60.1745 337.794 60.1745 337.263 60.1745 337.179C59.8528 334.702 57.7681 330.099 55.012 329.596C54.5523 329.525 54.0829 329.551 53.6341 329.673C53.1853 329.795 52.7672 330.01 52.407 330.305C52.0468 330.599 51.7525 330.966 51.5432 331.381C51.334 331.796 51.2145 332.251 51.1925 332.716C51.2381 333.719 51.4991 334.7 51.9578 335.594C52.4165 336.487 53.0621 337.271 53.8508 337.892C55.6649 339.129 57.6619 340.073 59.7688 340.69C59.5589 341.656 59.3631 342.621 59.1252 343.489C58.9434 344.118 58.8174 344.748 58.5936 345.363L58.006 347.21C57.5863 348.357 57.1526 349.561 56.7188 350.68L55.8234 352.932C55.9633 351.981 56.2292 350.134 56.2292 349.924C56.2026 347.726 55.6099 345.573 54.5083 343.67C54.5291 343.424 54.5291 343.176 54.5083 342.929C54.4482 342.47 54.2924 342.028 54.0512 341.632C53.8099 341.237 53.4884 340.896 53.1075 340.633C52.7265 340.369 52.2946 340.188 51.8394 340.102C51.3843 340.015 50.9161 340.025 50.465 340.131C47.7508 340.858 46.0439 345.601 45.904 348.106C45.904 348.259 46.002 349.854 46.0719 350.904C45.946 350.316 45.8201 349.742 45.6662 349.141C45.3864 347.938 45.0646 346.748 44.7288 345.475C44.5469 344.86 44.3511 344.244 44.1692 343.628C43.9873 343.013 43.7355 342.369 43.5116 341.726C42.98 340.327 42.3644 338.816 41.7068 337.361C43.8997 336.903 46.0089 336.11 47.9607 335.01C48.7769 334.449 49.463 333.719 49.9723 332.869C50.4816 332.019 50.8023 331.07 50.9127 330.086C50.926 329.62 50.841 329.156 50.6633 328.726C50.4855 328.295 50.219 327.907 49.881 327.586C49.5431 327.265 49.1413 327.019 48.702 326.864C48.2626 326.709 47.7955 326.648 47.3311 326.686C44.5329 326.994 42.1266 331.429 41.6229 333.877C41.6229 334.031 41.427 335.822 41.3571 336.815C40.9653 335.948 40.5736 335.08 40.1399 334.213C38.8947 331.694 37.5516 329.204 36.2365 326.7C35.8307 325.944 35.425 325.175 35.0333 324.405C37.2954 323.936 39.4743 323.129 41.497 322.013C42.3342 321.451 43.0402 320.716 43.5666 319.856C44.093 318.996 44.4274 318.033 44.5469 317.032C44.5583 316.568 44.4718 316.106 44.2931 315.677C44.1145 315.248 43.8476 314.861 43.5099 314.542C43.1722 314.223 42.7712 313.978 42.3328 313.824C41.8944 313.669 41.4285 313.609 40.9653 313.646C38.1672 313.94 35.7608 318.389 35.2571 320.838C35.2571 321.02 34.9913 323.636 34.9633 324.265C34.0819 322.573 33.2285 320.894 32.445 319.187C31.382 316.894 30.4707 314.534 29.7168 312.121C31.9927 311.653 34.1855 310.847 36.2225 309.729C37.0571 309.166 37.7604 308.43 38.2844 307.57C38.8083 306.711 39.1406 305.748 39.2585 304.748C39.272 304.283 39.187 303.82 39.0091 303.39C38.8312 302.96 38.5644 302.573 38.2262 302.253C37.8881 301.933 37.4861 301.689 37.0467 301.535C36.6074 301.382 36.1405 301.323 35.6768 301.363C32.8787 301.656 30.4863 306.091 29.9826 308.54C29.9826 308.736 29.6888 311.52 29.6748 312.024C29.6748 311.884 29.5769 311.744 29.5349 311.604C28.8434 309.166 28.3751 306.67 28.1359 304.147C27.968 302.748 27.898 301.419 27.856 300.117C30.12 299.91 32.3381 299.353 34.4317 298.467C35.3272 298.007 36.1109 297.357 36.7274 296.562C37.3439 295.766 37.7781 294.845 37.9993 293.864C38.0644 293.403 38.0316 292.933 37.9032 292.486C37.7748 292.038 37.5536 291.623 37.254 291.266C36.9545 290.91 36.5832 290.621 36.1644 290.417C35.7456 290.214 35.2887 290.101 34.8234 290.086C32.0253 290.086 29.1292 294.283 28.3597 296.606C28.3597 296.732 28.0379 298.103 27.842 299.096C27.842 298.509 27.842 297.893 27.842 297.333C27.842 295.221 27.982 293.276 28.1219 291.555C28.2058 290.59 28.2897 289.708 28.3877 288.883C30.2907 287.658 31.9942 286.148 33.4383 284.406C34.0192 283.583 34.4128 282.644 34.5917 281.653C34.7706 280.662 34.7303 279.643 34.4736 278.67C34.3175 278.232 34.071 277.831 33.7501 277.495C33.4291 277.158 33.041 276.893 32.6109 276.716C32.1808 276.539 31.7182 276.455 31.2534 276.469C30.7885 276.482 30.3317 276.593 29.9127 276.795C27.4363 278.082 26.7788 283.091 27.1145 285.553C27.1145 285.763 28.0939 289.037 28.1359 289.009C28.0379 289.792 27.926 290.646 27.8281 291.569C27.6602 293.29 27.4783 295.235 27.4223 297.361C27.342 299.652 27.3981 301.946 27.5902 304.231C27.795 306.786 28.221 309.318 28.8634 311.8C28.8652 311.832 28.8652 311.865 28.8634 311.898C28.4297 311.198 27.1285 309.309 27.0166 309.099C25.3797 307.211 21.0985 304.511 18.5243 305.616C18.1068 305.815 17.7357 306.099 17.4351 306.45C17.1345 306.801 16.911 307.212 16.7791 307.655C16.6472 308.098 16.6099 308.564 16.6695 309.023C16.7291 309.481 16.8844 309.922 17.1252 310.317C17.7155 311.132 18.4748 311.81 19.3513 312.305C20.2278 312.8 21.2008 313.1 22.2038 313.185C24.2884 313.479 28.6815 312.205 29.0313 312.107C29.7446 314.62 30.6328 317.079 31.6895 319.467C32.2911 320.866 32.9347 322.265 33.6062 323.664C33.2145 323.076 32.8507 322.559 32.7948 322.489C31.1578 320.6 26.8767 317.914 24.3024 319.005C23.8845 319.205 23.5132 319.491 23.2125 319.843C22.9118 320.196 22.6883 320.608 22.5565 321.052C22.4247 321.496 22.3874 321.963 22.4472 322.423C22.5069 322.882 22.6623 323.324 22.9033 323.72C23.5006 324.522 24.263 325.187 25.1391 325.67C26.0152 326.152 26.9846 326.442 27.982 326.518C30.2314 326.515 32.4674 326.17 34.6135 325.497L35.397 327.091C36.6702 329.61 37.9433 332.128 39.1325 334.646C39.5383 335.528 39.916 336.409 40.2938 337.305C39.944 336.773 39.6362 336.339 39.5802 336.283C37.9573 334.395 33.6762 331.694 31.1019 332.786C30.684 332.986 30.3127 333.272 30.012 333.624C29.7113 333.977 29.4878 334.388 29.356 334.833C29.2242 335.277 29.1869 335.744 29.2467 336.203C29.3064 336.663 29.4618 337.105 29.7028 337.501C30.2955 338.308 31.0568 338.976 31.9338 339.459C32.8108 339.942 33.7825 340.229 34.7814 340.299C36.9688 340.319 39.1457 339.994 41.2311 339.333C41.5949 340.257 41.9587 341.166 42.2665 342.131C42.4623 342.761 42.7002 343.349 42.8681 343.978C43.0359 344.608 43.2038 345.223 43.3857 345.839C43.6655 347.042 43.9733 348.273 44.2252 349.449C44.407 350.26 44.5609 351.044 44.7288 351.827C44.3231 350.946 43.4976 349.225 43.3297 349.099C42.0006 346.972 38.1952 343.67 35.481 344.356C35.0329 344.483 34.6166 344.703 34.2592 345.002C33.9018 345.3 33.6114 345.671 33.4068 346.09C33.2022 346.508 33.0881 346.965 33.0718 347.43C33.0555 347.896 33.1375 348.359 33.3124 348.791C33.7536 349.701 34.3898 350.502 35.1756 351.138C35.9615 351.774 36.8778 352.229 37.8594 352.471C40.127 352.813 42.4332 352.813 44.7008 352.471C44.9527 353.772 45.1905 355.031 45.4004 356.234C46.1419 360.431 46.5896 363.887 46.7994 366.335C46.7994 366.769 46.8974 367.147 46.9393 367.525H38.5449L41.6229 427.573H55.9913L59.0693 367.525H51.2765L51.4444 367.161C52.5216 364.908 54.0186 361.69 55.6416 357.745C56.1592 356.486 56.6769 355.157 57.2085 353.772C59.4493 354.292 61.7557 354.471 64.05 354.303C65.0428 354.142 65.9891 353.769 66.8245 353.209C67.6599 352.648 68.3646 351.915 68.8907 351.058C69.0962 350.64 69.2119 350.185 69.2306 349.72C69.2492 349.255 69.1703 348.792 68.999 348.36C68.8276 347.927 68.5676 347.536 68.2357 347.21C67.9038 346.884 67.5074 346.632 67.072 346.469C64.4137 345.587 60.3564 348.595 58.8734 350.666C58.7895 350.792 57.978 352.177 57.4743 353.072C57.6842 352.499 57.8941 351.953 58.1039 351.365C58.5236 350.218 58.9154 349.043 59.3351 347.798C59.517 347.182 59.7129 346.567 59.8947 345.937C60.0766 345.307 60.2305 344.65 60.3984 344.006C60.7482 342.481 61.042 340.928 61.3078 339.361C63.3836 340.186 65.5723 340.69 67.7995 340.858C68.8073 340.851 69.8017 340.626 70.7145 340.198C71.6273 339.771 72.4369 339.151 73.088 338.382C73.3535 338.001 73.536 337.568 73.6236 337.112C73.7112 336.656 73.7019 336.186 73.5964 335.733C73.4909 335.281 73.2914 334.856 73.011 334.485C72.7306 334.115 72.3755 333.808 71.9687 333.583C69.4784 332.296 64.9734 334.66 63.2385 336.381C63.1406 336.493 62.0073 337.906 61.4057 338.69C61.5456 337.738 61.6995 336.801 61.8254 335.892C62.1612 333.094 62.4271 330.295 62.7069 327.497C62.7908 326.63 62.8747 325.776 62.9727 324.909C65.1188 325.771 67.3829 326.304 69.6882 326.49C70.695 326.488 71.6891 326.265 72.6004 325.837C73.5118 325.41 74.3181 324.787 74.9627 324.014C75.231 323.634 75.4161 323.202 75.5059 322.746C75.5957 322.29 75.5882 321.82 75.4839 321.367C75.3796 320.914 75.1808 320.488 74.9005 320.117C74.6202 319.746 74.2648 319.439 73.8574 319.215C71.3671 317.928 66.8621 320.292 65.1272 322.013C65.0013 322.153 63.3784 324.181 62.9867 324.713C63.1825 322.824 63.4064 320.936 63.6862 319.117C64.0674 316.622 64.6095 314.155 65.3091 311.73C65.477 311.73 69.9121 313.465 72.0666 313.311C73.0734 313.309 74.0675 313.086 74.9788 312.658C75.8902 312.23 76.6965 311.608 77.3411 310.834C77.6089 310.454 77.7932 310.021 77.882 309.564C77.9708 309.108 77.962 308.637 77.8564 308.184C77.7507 307.731 77.5504 307.305 77.2688 306.935C76.9871 306.565 76.6303 306.258 76.2219 306.036C73.7455 304.748 69.2265 307.113 67.5057 308.834C67.3658 308.974 65.6169 311.156 65.3371 311.632C65.3371 311.492 65.3371 311.352 65.449 311.212C66.2123 308.797 67.1909 306.456 68.3731 304.217C69.0167 302.972 69.6882 301.824 70.3738 300.705C72.3747 301.784 74.5319 302.544 76.7675 302.958C77.7806 303.072 78.8064 302.963 79.773 302.639C80.7397 302.315 81.6239 301.784 82.3638 301.083C82.6723 300.734 82.9034 300.323 83.0421 299.879C83.1807 299.434 83.2237 298.965 83.1682 298.503C83.1127 298.04 82.96 297.595 82.7201 297.195C82.4802 296.796 82.1585 296.452 81.7762 296.186C79.4537 294.633 74.7808 296.494 72.7942 298.061C72.6962 298.145 71.7029 299.124 71.0033 299.852C71.3111 299.348 71.6329 298.83 71.9407 298.369C73.1159 296.592 74.3052 295.053 75.3545 293.696C75.97 292.926 76.5297 292.297 77.0613 291.611C79.326 291.637 81.5813 291.316 83.7489 290.66C84.6823 290.29 85.5253 289.724 86.2206 289C86.9159 288.276 87.4471 287.41 87.7782 286.463C87.9166 285.996 87.9502 285.505 87.8768 285.024C87.8033 284.543 87.6245 284.085 87.3531 283.681C87.0818 283.277 86.7246 282.939 86.3071 282.689C85.8896 282.44 85.4221 282.285 84.9381 282.237V282.237ZM54.1585 357.046C52.4797 360.921 50.9267 364.041 49.8074 366.279L49.2058 367.483H48.898C48.898 367.049 48.7861 366.573 48.7162 366.084C48.3804 363.621 47.8348 360.096 47.0093 355.912C46.7435 354.597 46.4497 353.184 46.1139 351.715C47.4288 351.196 48.7092 350.593 49.9473 349.91C51.6416 351.36 53.5241 352.574 55.5436 353.52C55.0819 354.751 54.5923 355.94 54.1026 357.046H54.1585Z" fill="#263238"/>
<path d="M70.2618 300.047C70.2618 300.047 71.1572 296.788 71.1852 296.564C71.535 294.087 70.7375 289.107 68.2192 287.876C67.7948 287.686 67.3353 287.588 66.8705 287.587C66.4057 287.587 65.946 287.684 65.5212 287.873C65.0964 288.061 64.716 288.337 64.4047 288.682C64.0934 289.028 63.8581 289.434 63.7142 289.876C63.4902 290.857 63.4805 291.875 63.6857 292.86C63.8909 293.845 64.3063 294.774 64.9034 295.584C66.0926 297.431 70.2618 300.047 70.2618 300.047Z" fill="#263238"/>
<path d="M499.384 56.4835H251.749C247.113 56.4835 243.355 60.2418 243.355 64.8779V206.184C243.355 210.82 247.113 214.578 251.749 214.578H499.384C504.02 214.578 507.779 210.82 507.779 206.184V64.8779C507.779 60.2418 504.02 56.4835 499.384 56.4835Z" fill="#263238" stroke="#263238" stroke-width="1.39907" stroke-linecap="round" stroke-linejoin="round"/>
<path d="M241.69 98.4696H508.758" stroke="white" stroke-width="1.39907" stroke-linecap="round" stroke-linejoin="round"/>
<path d="M311.559 81.303H438.889" stroke="white" stroke-width="2.79814" stroke-linecap="round" stroke-linejoin="round"/>
<path d="M307.964 99.1271V213.109" stroke="white" stroke-width="1.39907" stroke-linecap="round" stroke-linejoin="round"/>
<path d="M377.539 99.1271V213.109" stroke="white" stroke-width="1.39907" stroke-linecap="round" stroke-linejoin="round"/>
<path d="M447.129 99.1271V213.109" stroke="white" stroke-width="1.39907" stroke-linecap="round" stroke-linejoin="round"/>
<path d="M251.623 113.706H268.202" stroke="white" stroke-width="1.39907" stroke-linecap="round" stroke-linejoin="round"/>
<path d="M251.623 121.666H274.036" stroke="white" stroke-width="1.39907" stroke-linecap="round" stroke-linejoin="round"/>
<path d="M251.623 129.613H268.202" stroke="white" stroke-width="1.39907" stroke-linecap="round" stroke-linejoin="round"/>
<path d="M251.623 137.56H281.213" stroke="white" stroke-width="1.39907" stroke-linecap="round" stroke-linejoin="round"/>
<path d="M251.623 145.52H268.202" stroke="white" stroke-width="1.39907" stroke-linecap="round" stroke-linejoin="round"/>
<path d="M251.623 153.467H273.631" stroke="white" stroke-width="1.39907" stroke-linecap="round" stroke-linejoin="round"/>
<path d="M251.623 161.428H268.202" stroke="white" stroke-width="1.39907" stroke-linecap="round" stroke-linejoin="round"/>
<path d="M251.623 169.374H286.404" stroke="white" stroke-width="1.39907" stroke-linecap="round" stroke-linejoin="round"/>
<path d="M251.623 177.321H268.202" stroke="white" stroke-width="1.39907" stroke-linecap="round" stroke-linejoin="round"/>
<path d="M251.623 185.282H274.834" stroke="white" stroke-width="1.39907" stroke-linecap="round" stroke-linejoin="round"/>
<path d="M251.623 193.229H268.202" stroke="white" stroke-width="1.39907" stroke-linecap="round" stroke-linejoin="round"/>
<path d="M251.623 201.189H268.202" stroke="white" stroke-width="1.39907" stroke-linecap="round" stroke-linejoin="round"/>
<path d="M322.682 113.706H339.247" stroke="white" stroke-width="1.39907" stroke-linecap="round" stroke-linejoin="round"/>
<path d="M322.682 121.666H345.081" stroke="white" stroke-width="1.39907" stroke-linecap="round" stroke-linejoin="round"/>
<path d="M322.682 129.613H339.247" stroke="white" stroke-width="1.39907" stroke-linecap="round" stroke-linejoin="round"/>
<path d="M322.682 137.56H352.272" stroke="white" stroke-width="1.39907" stroke-linecap="round" stroke-linejoin="round"/>
<path d="M322.682 145.52H339.247" stroke="white" stroke-width="1.39907" stroke-linecap="round" stroke-linejoin="round"/>
<path d="M322.682 153.467H344.689" stroke="white" stroke-width="1.39907" stroke-linecap="round" stroke-linejoin="round"/>
<path d="M322.682 161.428H339.247" stroke="white" stroke-width="1.39907" stroke-linecap="round" stroke-linejoin="round"/>
<path d="M322.682 169.374H357.463" stroke="white" stroke-width="1.39907" stroke-linecap="round" stroke-linejoin="round"/>
<path d="M322.682 177.321H339.247" stroke="white" stroke-width="1.39907" stroke-linecap="round" stroke-linejoin="round"/>
<path d="M322.682 185.282H345.878" stroke="white" stroke-width="1.39907" stroke-linecap="round" stroke-linejoin="round"/>
<path d="M322.682 193.229H339.247" stroke="white" stroke-width="1.39907" stroke-linecap="round" stroke-linejoin="round"/>
<path d="M322.682 201.189H339.247" stroke="white" stroke-width="1.39907" stroke-linecap="round" stroke-linejoin="round"/>
<path d="M393.727 113.706H410.292" stroke="white" stroke-width="1.39907" stroke-linecap="round" stroke-linejoin="round"/>
<path d="M393.727 121.666H416.14" stroke="white" stroke-width="1.39907" stroke-linecap="round" stroke-linejoin="round"/>
<path d="M393.727 129.613H410.292" stroke="white" stroke-width="1.39907" stroke-linecap="round" stroke-linejoin="round"/>
<path d="M393.727 137.56H423.317" stroke="white" stroke-width="1.39907" stroke-linecap="round" stroke-linejoin="round"/>
<path d="M393.727 145.52H410.292" stroke="white" stroke-width="1.39907" stroke-linecap="round" stroke-linejoin="round"/>
<path d="M393.727 153.467H415.734" stroke="white" stroke-width="1.39907" stroke-linecap="round" stroke-linejoin="round"/>
<path d="M393.727 161.428H410.292" stroke="white" stroke-width="1.39907" stroke-linecap="round" stroke-linejoin="round"/>
<path d="M393.727 169.374H428.507" stroke="white" stroke-width="1.39907" stroke-linecap="round" stroke-linejoin="round"/>
<path d="M393.727 177.321H410.292" stroke="white" stroke-width="1.39907" stroke-linecap="round" stroke-linejoin="round"/>
<path d="M393.727 185.282H416.937" stroke="white" stroke-width="1.39907" stroke-linecap="round" stroke-linejoin="round"/>
<path d="M393.727 193.229H410.292" stroke="white" stroke-width="1.39907" stroke-linecap="round" stroke-linejoin="round"/>
<path d="M393.727 201.189H410.292" stroke="white" stroke-width="1.39907" stroke-linecap="round" stroke-linejoin="round"/>
<path d="M464.771 113.706H481.35" stroke="white" stroke-width="1.39907" stroke-linecap="round" stroke-linejoin="round"/>
<path d="M464.771 121.666H487.184" stroke="white" stroke-width="1.39907" stroke-linecap="round" stroke-linejoin="round"/>
<path d="M464.771 129.613H481.35" stroke="white" stroke-width="1.39907" stroke-linecap="round" stroke-linejoin="round"/>
<path d="M464.771 137.56H494.362" stroke="white" stroke-width="1.39907" stroke-linecap="round" stroke-linejoin="round"/>
<path d="M464.771 145.52H481.35" stroke="white" stroke-width="1.39907" stroke-linecap="round" stroke-linejoin="round"/>
<path d="M464.771 153.467H486.779" stroke="white" stroke-width="1.39907" stroke-linecap="round" stroke-linejoin="round"/>
<path d="M464.771 161.428H481.35" stroke="white" stroke-width="1.39907" stroke-linecap="round" stroke-linejoin="round"/>
<path d="M464.771 169.374H499.552" stroke="white" stroke-width="1.39907" stroke-linecap="round" stroke-linejoin="round"/>
<path d="M464.771 177.321H481.35" stroke="white" stroke-width="1.39907" stroke-linecap="round" stroke-linejoin="round"/>
<path d="M464.771 185.282H487.982" stroke="white" stroke-width="1.39907" stroke-linecap="round" stroke-linejoin="round"/>
<path d="M464.771 193.229H481.35" stroke="white" stroke-width="1.39907" stroke-linecap="round" stroke-linejoin="round"/>
<path d="M464.771 201.189H481.35" stroke="white" stroke-width="1.39907" stroke-linecap="round" stroke-linejoin="round"/>
<path d="M266.048 87.0671C266.048 86.5915 266.048 86.1438 266.048 85.6681C266.048 85.5981 266.132 85.5142 266.201 85.4582L267.852 84.213C267.93 84.1509 267.981 84.0603 267.992 83.9612C267.992 82.2543 267.992 80.5615 267.992 78.8686C267.997 78.8081 267.997 78.7472 267.992 78.6867L260.158 81.1631C260.158 81.0651 260.158 81.0092 260.158 80.9392C260.158 80.4216 260.158 79.8899 260.158 79.3723C260.152 79.312 260.165 79.2514 260.195 79.1988C260.225 79.1462 260.271 79.1041 260.325 79.0784C262.825 77.5115 265.334 75.9492 267.852 74.3916C267.918 74.3542 267.971 74.2986 268.006 74.2316C268.041 74.1646 268.055 74.089 268.048 74.0138C268.048 72.307 268.048 70.6141 268.048 68.9072C268.032 68.6477 268.084 68.3884 268.2 68.1558C268.317 67.9233 268.493 67.7257 268.711 67.5835C268.928 67.4412 269.18 67.3593 269.44 67.346C269.699 67.3328 269.958 67.3887 270.189 67.5082C270.452 67.6286 270.672 67.8279 270.817 68.0785C270.963 68.3291 271.027 68.6187 271 68.9072V73.9858C270.993 74.0735 271.012 74.1614 271.054 74.2385C271.096 74.3157 271.16 74.3786 271.238 74.4195L278.681 79.0645C278.751 79.0993 278.809 79.1535 278.849 79.2204C278.888 79.2874 278.908 79.3644 278.905 79.4422C278.905 80.0158 278.905 80.5754 278.905 81.177L271.028 78.7147C271.028 78.7986 271.028 78.8686 271.028 78.9245V83.8493C271.021 83.9228 271.035 83.9969 271.067 84.0635C271.099 84.13 271.148 84.1866 271.21 84.227C271.77 84.6328 272.315 85.0525 272.861 85.4722C272.942 85.544 272.992 85.6442 273.001 85.752C273.001 86.1717 273.001 86.5914 273.001 87.0531L271.602 86.6474L269.783 86.1298C269.635 86.1018 269.483 86.1018 269.335 86.1298L266.257 87.0112L266.048 87.0671Z" fill="white"/>
<path d="M269.433 90.4389C276.712 90.4389 282.612 84.5384 282.612 77.2597C282.612 69.981 276.712 64.0804 269.433 64.0804C262.155 64.0804 256.254 69.981 256.254 77.2597C256.254 84.5384 262.155 90.4389 269.433 90.4389Z" stroke="white" stroke-width="1.39907" stroke-linecap="round" stroke-linejoin="round"/>
<path d="M198.291 493.371C265.63 493.371 320.22 485.466 320.22 475.715C320.22 465.963 265.63 458.058 198.291 458.058C130.951 458.058 76.3618 465.963 76.3618 475.715C76.3618 485.466 130.951 493.371 198.291 493.371Z" fill="black"/>
<path opacity="0.5" d="M198.291 493.371C265.63 493.371 320.22 485.466 320.22 475.715C320.22 465.963 265.63 458.058 198.291 458.058C130.951 458.058 76.3618 465.963 76.3618 475.715C76.3618 485.466 130.951 493.371 198.291 493.371Z" fill="white"/>
<path d="M251.049 368.042C250.678 368.042 250.323 367.895 250.06 367.632C249.798 367.37 249.65 367.014 249.65 366.643V285.721C249.65 285.35 249.798 284.994 250.06 284.732C250.323 284.469 250.678 284.322 251.049 284.322C251.421 284.322 251.776 284.469 252.039 284.732C252.301 284.994 252.449 285.35 252.449 285.721V366.643C252.449 367.014 252.301 367.37 252.039 367.632C251.776 367.895 251.421 368.042 251.049 368.042Z" fill="#263238"/>
<path d="M251.05 301.517C250.493 301.517 249.959 301.295 249.566 300.902C249.172 300.508 248.951 299.974 248.951 299.418V285.721C248.951 285.164 249.172 284.631 249.566 284.237C249.959 283.844 250.493 283.622 251.05 283.622C251.606 283.622 252.14 283.844 252.533 284.237C252.927 284.631 253.148 285.164 253.148 285.721V299.418C253.148 299.974 252.927 300.508 252.533 300.902C252.14 301.295 251.606 301.517 251.05 301.517V301.517Z" fill="#263238"/>
<path d="M247.678 368.042C247.307 368.042 246.951 367.895 246.688 367.632C246.426 367.37 246.279 367.014 246.279 366.643V285.721C246.279 285.35 246.426 284.994 246.688 284.732C246.951 284.469 247.307 284.322 247.678 284.322C248.049 284.322 248.405 284.469 248.667 284.732C248.929 284.994 249.077 285.35 249.077 285.721V366.643C249.077 367.014 248.929 367.37 248.667 367.632C248.405 367.895 248.049 368.042 247.678 368.042Z" fill="#263238"/>
<path d="M247.678 301.517C247.121 301.517 246.587 301.295 246.194 300.902C245.8 300.508 245.579 299.974 245.579 299.418V285.721C245.579 285.164 245.8 284.631 246.194 284.237C246.587 283.844 247.121 283.622 247.678 283.622C248.234 283.622 248.768 283.844 249.162 284.237C249.555 284.631 249.776 285.164 249.776 285.721V299.418C249.776 299.974 249.555 300.508 249.162 300.902C248.768 301.295 248.234 301.517 247.678 301.517V301.517Z" fill="#263238"/>
<path d="M251.05 283.622H247.678V287.722H251.022L251.05 283.622Z" fill="#263238"/>
<path d="M252.029 464.704H248.755V471.475H252.029V464.704Z" fill="#263238" stroke="#263238" stroke-width="1.39907" stroke-linecap="round" stroke-linejoin="round"/>
<path d="M275.141 464.704H271.868V471.475H275.141V464.704Z" fill="#263238" stroke="#263238" stroke-width="1.39907" stroke-linecap="round" stroke-linejoin="round"/>
<path d="M261.598 464.704H258.325V471.475H261.598V464.704Z" fill="#263238" stroke="#263238" stroke-width="1.39907" stroke-linecap="round" stroke-linejoin="round"/>
<path d="M284.725 464.704H281.451V471.475H284.725V464.704Z" fill="#263238" stroke="#263238" stroke-width="1.39907" stroke-linecap="round" stroke-linejoin="round"/>
<path d="M282.543 355.744H250.826C246.707 355.744 243.369 359.083 243.369 363.202V457.415C243.369 461.533 246.707 464.872 250.826 464.872H282.543C286.661 464.872 290 461.533 290 457.415V363.202C290 359.083 286.661 355.744 282.543 355.744Z" fill="white" stroke="#263238" stroke-width="1.39907" stroke-linecap="round" stroke-linejoin="round"/>
<path d="M282.557 355.744H278.345C274.227 355.744 270.888 359.083 270.888 363.202V457.415C270.888 461.533 274.227 464.872 278.345 464.872H282.557C286.675 464.872 290.014 461.533 290.014 457.415V363.202C290.014 359.083 286.675 355.744 282.557 355.744Z" fill="#263238" stroke="#263238" stroke-width="1.39907" stroke-linecap="round" stroke-linejoin="round"/>
<path d="M265.166 355.744C264.186 355.744 263.215 355.938 262.309 356.313C261.404 356.689 260.581 357.24 259.888 357.934C259.196 358.627 258.647 359.451 258.273 360.358C257.899 361.264 257.707 362.235 257.709 363.215V457.401C257.857 458.996 258.429 460.523 259.367 461.822C260.304 463.121 261.572 464.145 263.04 464.788" stroke="#263238" stroke-width="1.39907" stroke-linecap="round" stroke-linejoin="round"/>
<path d="M148.442 354.919C148.442 354.919 153.506 367.413 152.639 378.409C151.772 389.406 148.442 407.244 150.848 414.687C153.255 422.13 158.585 451.721 158.585 451.721C158.585 451.721 155.913 454.687 155.913 457.317C155.913 459.947 156.808 473.364 156.808 473.364H158.585L160.376 459.989C161.111 460.317 161.76 460.809 162.275 461.427C162.789 462.046 163.154 462.774 163.342 463.557C163.636 465.935 164.531 472.777 165.72 473.07C167.204 473.223 168.7 473.223 170.183 473.07C170.183 473.07 171.96 471.881 171.079 470.986C169.795 469.823 168.954 468.25 168.7 466.537C168.099 463.85 166.616 459.989 166.616 454.938V410.168C166.616 397.087 168.392 386.972 168.994 375.373C169.377 368.839 169.176 362.284 168.392 355.786L148.442 354.919Z" fill="white"/>
<path d="M149.015 356.458C150.014 359.276 150.832 362.154 151.464 365.076H169.064C168.938 360.753 168.602 357.703 168.448 356.458H149.015Z" fill="black"/>
<path opacity="0.5" d="M149.015 356.458C150.014 359.276 150.832 362.154 151.464 365.076H169.064C168.938 360.753 168.602 357.703 168.448 356.458H149.015Z" fill="white"/>
<path d="M148.442 354.919C148.442 354.919 153.506 367.413 152.639 378.409C151.772 389.406 148.442 407.244 150.848 414.687C153.255 422.13 158.585 451.721 158.585 451.721C158.585 451.721 155.913 454.687 155.913 457.317C155.913 459.947 156.808 473.364 156.808 473.364H158.585L160.376 459.989C161.111 460.317 161.76 460.809 162.275 461.427C162.789 462.046 163.154 462.774 163.342 463.557C163.636 465.935 164.531 472.777 165.72 473.07C167.204 473.223 168.7 473.223 170.183 473.07C170.183 473.07 171.96 471.881 171.079 470.986C169.795 469.823 168.954 468.25 168.7 466.537C168.099 463.85 166.616 459.989 166.616 454.938V410.168C166.616 397.087 168.392 386.972 168.994 375.373C169.377 368.839 169.176 362.284 168.392 355.786L148.442 354.919Z" stroke="#263238" stroke-width="1.39907" stroke-linecap="round" stroke-linejoin="round"/>
<path d="M165.888 473.21H161.425C161.425 473.21 160.026 473.098 159.858 467.712C159.799 464.81 159.442 461.923 158.795 459.094C159.626 458.841 160.509 458.81 161.355 459.004C162.202 459.198 162.983 459.61 163.622 460.199C166.056 462.256 166.644 470.384 166.937 471.392C167.112 472.036 167.411 472.64 167.819 473.168L165.888 473.21Z" fill="white" stroke="#263238" stroke-width="1.39907" stroke-linecap="round" stroke-linejoin="round"/>
<path d="M168.672 466.593C167.888 463.895 167.266 461.153 166.812 458.38C166.3 456.691 165.625 455.056 164.797 453.497C162.726 449.93 158.557 451.721 158.557 451.721C158.557 451.721 155.885 454.687 155.885 457.317C155.885 459.947 156.78 473.364 156.78 473.364H158.557L160.348 459.989C161.083 460.317 161.732 460.809 162.247 461.427C162.761 462.046 163.126 462.774 163.314 463.557C163.608 465.935 164.503 472.777 165.692 473.07C167.176 473.223 168.672 473.223 170.155 473.07C170.155 473.07 171.932 471.881 171.051 470.986C169.778 469.837 168.939 468.286 168.672 466.593V466.593Z" fill="#263238" stroke="#263238" stroke-width="1.39907" stroke-linecap="round" stroke-linejoin="round"/>
<path d="M177.067 356.794C177.067 356.794 179.865 365.44 179.361 369.511C178.858 373.583 165.622 386.034 164.097 393.421C162.572 400.808 159.005 417.583 157.746 424.705C156.486 431.826 155.423 436.023 153.269 437.94C151.114 439.856 147.155 438.094 144.161 441.493C141.167 444.893 132.408 455.344 132.408 455.344L133.626 456.421L143.909 450.14C143.909 450.14 148.652 451.944 148.75 454.743C148.988 458.631 149.531 462.495 150.372 466.299C151.002 468.635 155.325 473.21 158.095 473.882C160.866 474.553 160.796 471.084 159.69 470.426C158.585 469.769 157.004 466.229 157.256 461.864C157.508 457.499 159.257 444.655 160.963 441.689C162.67 438.723 177.836 406.713 185.713 396.471C193.59 386.23 196.136 376.884 197.927 374.338C199.718 371.792 199.704 365.692 199.704 362.39C199.698 360.347 199.529 358.307 199.2 356.29L177.067 356.794Z" fill="white"/>
<path d="M177.067 356.794C177.927 359.506 178.605 362.273 179.095 365.076H199.676C199.676 364.083 199.676 363.16 199.676 362.39C199.665 360.404 199.506 358.421 199.2 356.458H191.757L177.067 356.794Z" fill="black"/>
<path opacity="0.5" d="M177.067 356.794C177.927 359.506 178.605 362.273 179.095 365.076H199.676C199.676 364.083 199.676 363.16 199.676 362.39C199.665 360.404 199.506 358.421 199.2 356.458H191.757L177.067 356.794Z" fill="white"/>
<path d="M177.067 356.794C177.067 356.794 179.865 365.44 179.361 369.511C178.858 373.583 165.622 386.034 164.097 393.421C162.572 400.808 159.005 417.583 157.746 424.705C156.486 431.826 155.423 436.023 153.269 437.94C151.114 439.856 147.155 438.094 144.161 441.493C141.167 444.893 132.408 455.344 132.408 455.344L133.626 456.421L143.909 450.14C143.909 450.14 148.652 451.944 148.75 454.743C148.988 458.631 149.531 462.495 150.372 466.299C151.002 468.635 155.325 473.21 158.095 473.882C160.866 474.553 160.796 471.084 159.69 470.426C158.585 469.769 157.004 466.229 157.256 461.864C157.508 457.499 159.257 444.655 160.963 441.689C162.67 438.723 177.836 406.713 185.713 396.471C193.59 386.23 196.136 376.884 197.927 374.338C199.718 371.792 199.704 365.692 199.704 362.39C199.698 360.347 199.529 358.307 199.2 356.29L177.067 356.794Z" stroke="#263238" stroke-width="1.39907" stroke-linecap="round" stroke-linejoin="round"/>
<path d="M143.909 450.14C143.909 450.14 146.119 456.128 145.937 459.178C145.756 462.228 144.37 464.424 145.756 466.803C147.141 469.181 149.505 472.623 158.095 473.882C158.095 473.882 153.688 466.243 153.478 461.136C153.269 456.03 152.443 448.083 149.925 447.425C147.406 446.768 144.105 446.838 143.909 450.14Z" fill="white" stroke="#263238" stroke-width="1.39907" stroke-linecap="round" stroke-linejoin="round"/>
<path d="M159.69 470.426C158.585 469.825 157.004 466.229 157.256 461.864C153.926 457.597 155.857 451.329 153.562 446.362C152.371 443.526 150.384 441.096 147.84 439.367V439.367C146.428 439.651 145.149 440.393 144.203 441.479C141.195 444.865 132.45 455.33 132.45 455.33L133.668 456.408L143.951 450.126C143.951 450.126 148.694 451.93 148.792 454.729C149.03 458.617 149.573 462.481 150.414 466.285C151.044 468.621 155.367 473.196 158.137 473.868C160.908 474.539 160.824 471.014 159.69 470.426Z" fill="#263238" stroke="#263238" stroke-width="1.39907" stroke-linecap="round" stroke-linejoin="round"/>
<path d="M139.53 210.717C137.139 213.984 135.253 217.592 133.933 221.42C132.157 227.016 116.389 270.779 119.075 273.451C121.762 276.123 148.806 284.742 148.806 284.742L153.269 272.556L137.501 265.127L147.295 233.606C147.295 233.606 149.939 214.872 139.53 210.717Z" fill="black" stroke="#263238" stroke-width="1.39907" stroke-linecap="round" stroke-linejoin="round"/>
<path d="M125.357 272.724C131.695 271.954 137.445 265.169 137.445 265.169C137.535 268.455 136.521 271.677 134.563 274.319" stroke="#263238" stroke-width="1.39907" stroke-linecap="round" stroke-linejoin="round"/>
<path d="M143.377 243.455C143.377 243.455 140.971 241.454 136.158 231.031" stroke="#263238" stroke-width="1.39907" stroke-linecap="round" stroke-linejoin="round"/>
<path d="M142.971 245.456C138.453 243.418 134.044 241.143 129.764 238.642" stroke="#263238" stroke-width="1.39907" stroke-linecap="round" stroke-linejoin="round"/>
<path d="M151.716 274.347C151.716 274.347 144.58 286.239 139.824 310.023C136.948 325.804 136.05 341.882 137.151 357.885C137.151 357.885 164.503 363.845 212.967 357.885C212.967 357.885 208.21 297.837 190.372 274.347H151.716Z" fill="black" stroke="#263238" stroke-width="1.39907" stroke-linecap="round" stroke-linejoin="round"/>
<path d="M136.704 346.469C136.704 353.464 137.151 357.885 137.151 357.885C137.151 357.885 164.503 363.845 212.967 357.885C212.967 357.885 212.617 353.436 211.75 346.483C171.037 350.666 144.902 347.686 136.704 346.469Z" fill="#263238" stroke="#263238" stroke-width="1.39907" stroke-linecap="round" stroke-linejoin="round"/>
<path d="M155.227 205.358C155.227 205.358 141.852 208.632 139.474 210.717C137.095 212.802 138.285 223.798 139.768 230.933C141.251 238.069 151.66 274.305 151.66 274.305H190.316C190.316 274.305 199.242 216.019 198.934 210.969C198.626 205.918 174.856 202.644 174.856 202.644L155.227 205.358Z" fill="black" stroke="#263238" stroke-width="1.39907" stroke-linecap="round" stroke-linejoin="round"/>
<path d="M149.099 265.127L151.716 274.347H190.372C190.372 274.347 190.932 270.681 191.771 265.127H149.099Z" fill="#263238" stroke="#263238" stroke-width="1.39907" stroke-linecap="round" stroke-linejoin="round"/>
<path d="M233.659 276.557C235.19 277.231 236.812 277.674 238.472 277.872C240.221 277.872 246.139 275.242 248.545 275.676C250.952 276.109 255.764 283.776 256.422 284.868C257.08 285.959 253.89 286.952 252.7 287.932C250.714 289.582 248.937 288.071 249.203 287.274L249.636 285.525C249.636 285.525 247.678 284.322 246.349 285.525C244.711 286.945 242.612 287.721 240.445 287.708C237.814 287.708 232.134 283.776 232.134 283.776L233.659 276.557Z" fill="white" stroke="#263238" stroke-width="1.39907" stroke-linecap="round" stroke-linejoin="round"/>
<path d="M187.993 245.498C187.993 245.498 189.183 268.694 190.666 271.073C192.149 273.451 208.504 280.866 216.534 283.259C221.891 284.779 227.36 285.874 232.89 286.532L235.268 275.83C235.268 275.83 214.758 264.525 210.588 261.839C206.419 259.153 203.747 257.082 203.747 257.082C203.747 257.082 202.558 225.561 202.264 219.615C201.97 213.669 201.97 210.703 199.298 209.206C196.423 207.937 193.434 206.944 190.372 206.24" fill="black"/>
<path d="M187.993 245.498C187.993 245.498 189.183 268.694 190.666 271.073C192.149 273.451 208.504 280.866 216.534 283.259C221.891 284.779 227.36 285.874 232.89 286.532L235.268 275.83C235.268 275.83 214.758 264.525 210.588 261.839C206.419 259.153 203.747 257.082 203.747 257.082C203.747 257.082 202.558 225.561 202.264 219.615C201.97 213.669 201.97 210.703 199.298 209.206C196.423 207.937 193.434 206.944 190.372 206.24" stroke="#263238" stroke-width="1.39907" stroke-linecap="round" stroke-linejoin="round"/>
<path d="M196.626 265.477C201.033 263.07 203.747 257.082 203.747 257.082C203.747 257.082 196.626 261.055 191.015 258.649" stroke="#263238" stroke-width="1.39907" stroke-linecap="round" stroke-linejoin="round"/>
<path d="M163.999 160.169C161.301 160.95 158.86 162.437 156.927 164.476C154.995 166.514 153.64 169.031 153.003 171.767C150.317 181.56 152.401 191.354 152.401 194.949C152.401 198.545 150.317 214.285 148.204 225.575C146.091 236.866 143.153 249.667 143.153 249.667C143.153 249.667 151.786 251.738 155.941 252.339L164.559 253.528L166.056 246.393L167.245 253.822C170.115 254.01 172.994 254.01 175.864 253.822C179.368 253.547 182.795 252.641 185.979 251.15L186.273 247.289L189.239 250.548C190.971 250.089 192.664 249.495 194.303 248.772C196.975 247.582 201.131 245.204 201.131 245.204C201.131 245.204 186.86 209.528 185.083 202.085C183.307 194.642 186.566 190.5 187.756 181.281C188.945 172.061 182.705 158.686 177.962 157.79C176.552 157.55 175.104 157.669 173.752 158.136C172.4 158.603 171.187 159.403 170.225 160.462C169.276 159.949 168.224 159.657 167.146 159.606C166.068 159.555 164.993 159.747 163.999 160.169V160.169Z" fill="#263238" stroke="#263238" stroke-width="1.39907" stroke-linecap="round" stroke-linejoin="round"/>
</svg>
