<svg width="150" height="32" viewBox="0 0 150 32" fill="none" xmlns="http://www.w3.org/2000/svg">
<path fill-rule="evenodd" clip-rule="evenodd" d="M1.25 15.3688C1.25 7.78127 7.4125 1.61877 15 1.61877C22.5875 1.61877 28.75 7.78127 28.75 15.3688H26.25C26.25 9.15627 21.2125 4.11877 15 4.11877C8.7875 4.11877 3.75 9.15627 3.75 15.3688H1.25ZM15 6.61877C10.1625 6.61877 6.25 10.5313 6.25 15.3688H8.75C8.75 11.9188 11.55 9.11877 15 9.11877C18.45 9.11877 21.25 11.9188 21.25 15.3688H23.75C23.75 10.5313 19.8375 6.61877 15 6.61877ZM16.25 18.2313C17.35 17.7438 18.125 16.6563 18.125 15.3688C18.125 13.6438 16.725 12.2438 15 12.2438C13.275 12.2438 11.875 13.6438 11.875 15.3688C11.875 16.6438 12.65 17.7438 13.75 18.2313V22.3563L9.48753 26.6188L11.25 28.3813L15 24.6313L18.75 28.3813L20.5125 26.6188L16.25 22.3563V18.2313Z" fill="black"/>
<path d="M61.6636 26H56.8756L56.032 22.8764H51.4492L50.5828 26H45.9316L50.9932 10.952H56.5792L61.6636 26ZM52.2244 19.8668H55.2796L53.752 14.258L52.2244 19.8668ZM65.0059 13.5968C64.0939 13.5968 63.4327 13.4372 63.0223 13.118C62.6271 12.7988 62.4295 12.282 62.4295 11.5676C62.4295 10.838 62.6271 10.3136 63.0223 9.9944C63.4327 9.6752 64.0939 9.5156 65.0059 9.5156C65.9179 9.5156 66.5715 9.6752 66.9667 9.9944C67.3771 10.3136 67.5823 10.838 67.5823 11.5676C67.5823 12.282 67.3771 12.7988 66.9667 13.118C66.5715 13.4372 65.9179 13.5968 65.0059 13.5968ZM67.3087 14.6V26H62.7031V14.6H67.3087ZM69.5387 26V14.6H73.6655L73.8023 17.2676C74.0607 16.3708 74.4635 15.664 75.0107 15.1472C75.5731 14.6304 76.3027 14.372 77.1995 14.372C77.5187 14.372 77.7771 14.4024 77.9747 14.4632C78.1723 14.5088 78.3167 14.5696 78.4079 14.6456L77.9975 18.3848C77.8455 18.324 77.6479 18.2708 77.4047 18.2252C77.1615 18.1796 76.8803 18.1568 76.5611 18.1568C76.1051 18.1568 75.6947 18.2404 75.3299 18.4076C74.9651 18.5748 74.6763 18.8256 74.4635 19.16C74.2507 19.4792 74.1443 19.8896 74.1443 20.3912V26H69.5387ZM84.8982 10.838V21.6224C84.8982 22.1544 85.0122 22.5344 85.2402 22.7624C85.4834 22.9904 85.8406 23.1044 86.3118 23.1044C86.6462 23.1044 86.935 23.074 87.1782 23.0132C87.4214 22.9524 87.6494 22.8536 87.8622 22.7168L88.1586 25.4072C87.7938 25.6656 87.2998 25.8632 86.6766 26C86.0534 26.152 85.4454 26.228 84.8526 26.228C83.8798 26.228 83.0514 26.0988 82.3674 25.8404C81.6986 25.582 81.1818 25.1716 80.817 24.6092C80.4674 24.0468 80.2926 23.2944 80.2926 22.352V12.1148L84.8982 10.838ZM87.999 14.6V17.7692H78.423V14.6H87.999ZM89.4664 26V14.6H93.5932L93.73 17.2676C93.9884 16.3708 94.3912 15.664 94.9384 15.1472C95.5008 14.6304 96.2304 14.372 97.1272 14.372C97.4464 14.372 97.7048 14.4024 97.9024 14.4632C98.1 14.5088 98.2444 14.5696 98.3356 14.6456L97.9252 18.3848C97.7732 18.324 97.5756 18.2708 97.3324 18.2252C97.0892 18.1796 96.808 18.1568 96.4888 18.1568C96.0328 18.1568 95.6224 18.2404 95.2576 18.4076C94.8928 18.5748 94.604 18.8256 94.3912 19.16C94.1784 19.4792 94.072 19.8896 94.072 20.3912V26H89.4664ZM105.645 18.818C105.645 18.3924 105.531 18.058 105.303 17.8148C105.09 17.5564 104.771 17.4272 104.345 17.4272C103.95 17.4272 103.608 17.5336 103.319 17.7464C103.045 17.9592 102.871 18.362 102.795 18.9548L98.8958 18.248C99.0478 17.0624 99.6026 16.12 100.56 15.4208C101.518 14.7216 102.886 14.372 104.664 14.372C105.88 14.372 106.899 14.5468 107.719 14.8964C108.555 15.2308 109.179 15.7248 109.589 16.3784C110.015 17.032 110.227 17.8148 110.227 18.7268V22.5572C110.227 23.1652 110.501 23.4692 111.048 23.4692C111.276 23.4692 111.451 23.4388 111.573 23.378L111.345 25.8632C110.843 26.1064 110.22 26.228 109.475 26.228C108.821 26.228 108.244 26.1292 107.742 25.9316C107.241 25.7188 106.845 25.4148 106.557 25.0196C106.268 24.6244 106.123 24.1076 106.123 23.4692V23.2868L106.579 23.2184C106.579 23.8264 106.389 24.3584 106.009 24.8144C105.645 25.2704 105.158 25.62 104.55 25.8632C103.957 26.1064 103.296 26.228 102.567 26.228C101.776 26.228 101.1 26.1064 100.537 25.8632C99.975 25.62 99.5418 25.2704 99.2378 24.8144C98.949 24.3584 98.8046 23.8036 98.8046 23.15C98.8046 22.314 99.0554 21.63 99.557 21.098C100.074 20.566 100.849 20.2012 101.883 20.0036L106.009 19.1372L105.987 21.0752L104.299 21.4628C103.919 21.5388 103.638 21.668 103.456 21.8504C103.289 22.0176 103.205 22.2532 103.205 22.5572C103.205 22.846 103.304 23.074 103.501 23.2412C103.699 23.3932 103.942 23.4692 104.231 23.4692C104.429 23.4692 104.611 23.4388 104.778 23.378C104.945 23.3172 105.09 23.226 105.211 23.1044C105.348 22.9828 105.455 22.8308 105.531 22.6484C105.607 22.466 105.645 22.2456 105.645 21.9872V18.818ZM118.255 14.372C119.532 14.372 120.581 14.5544 121.402 14.9192C122.238 15.2688 122.869 15.7324 123.294 16.31C123.72 16.8724 123.963 17.4652 124.024 18.0884L119.76 19.388C119.715 18.7648 119.585 18.3012 119.373 17.9972C119.175 17.6932 118.856 17.5412 118.415 17.5412C118.035 17.5412 117.716 17.6324 117.457 17.8148C117.199 17.9972 117.009 18.2936 116.887 18.704C116.766 19.1144 116.705 19.6616 116.705 20.3456C116.705 21.0448 116.773 21.592 116.91 21.9872C117.062 22.3824 117.267 22.6636 117.526 22.8308C117.799 22.9828 118.103 23.0588 118.438 23.0588C118.742 23.0588 118.985 22.998 119.167 22.8764C119.365 22.7396 119.525 22.5496 119.646 22.3064C119.768 22.048 119.844 21.744 119.874 21.3944L124.001 22.694C123.94 23.3476 123.674 23.9404 123.203 24.4724C122.747 25.0044 122.116 25.43 121.311 25.7492C120.505 26.0684 119.555 26.228 118.461 26.228C117.153 26.228 116.021 26 115.063 25.544C114.106 25.0728 113.369 24.3964 112.852 23.5148C112.335 22.6332 112.077 21.5616 112.077 20.3C112.077 19.0384 112.335 17.9668 112.852 17.0852C113.369 16.2036 114.091 15.5348 115.018 15.0788C115.945 14.6076 117.024 14.372 118.255 14.372ZM138.988 14.6L133.311 20.756L132.49 20.8928L129.412 24.4952L129.344 19.9352L133.972 14.6H138.988ZM130.165 9.9032V26H125.559V9.9032H130.165ZM134.063 17.8376L139.239 26H134.177L131.191 20.5508L134.063 17.8376ZM140.165 26V14.6H144.292L144.429 17.2676C144.687 16.3708 145.09 15.664 145.637 15.1472C146.2 14.6304 146.929 14.372 147.826 14.372C148.145 14.372 148.404 14.4024 148.601 14.4632C148.799 14.5088 148.943 14.5696 149.034 14.6456L148.624 18.3848C148.472 18.324 148.274 18.2708 148.031 18.2252C147.788 18.1796 147.507 18.1568 147.188 18.1568C146.732 18.1568 146.321 18.2404 145.956 18.4076C145.592 18.5748 145.303 18.8256 145.09 19.16C144.877 19.4792 144.771 19.8896 144.771 20.3912V26H140.165Z" fill="black"/>
</svg>
