<svg width="427" height="399" viewBox="0 0 427 399" fill="none" xmlns="http://www.w3.org/2000/svg">
<path d="M415.872 104.982C415.872 104.982 379.069 33.9702 302.433 10.0966C225.796 -13.777 190.437 13.1174 151.211 42.2549C120.36 65.1816 96.2274 97.1821 70.9674 125.733C47.8378 151.873 13.9098 173.075 3.24672 208.017C-10.2794 252.214 20.5489 297.289 57.0242 320.329C107.927 352.487 157.185 328.061 210.32 316.666L210.613 316.598C218.28 314.899 226.065 313.788 233.9 313.273C295.579 309.767 339.911 353.073 384.75 303.128C429.589 253.183 436.578 160.732 415.872 104.982Z" fill="black"/>
<path opacity="0.7" d="M415.872 104.982C415.872 104.982 379.069 33.9702 302.433 10.0966C225.796 -13.777 190.437 13.1174 151.211 42.2549C120.36 65.1816 96.2274 97.1821 70.9674 125.733C47.8378 151.873 13.9098 173.075 3.24672 208.017C-10.2794 252.214 20.5489 297.289 57.0242 320.329C107.927 352.487 157.185 328.061 210.32 316.666L210.613 316.598C218.28 314.899 226.065 313.788 233.9 313.273C295.579 309.767 339.911 353.073 384.75 303.128C429.589 253.183 436.578 160.732 415.872 104.982Z" fill="white"/>
<path d="M196.828 112.613C192.127 110.055 189.986 112.185 188.284 110.055C186.582 107.924 192.984 102.356 180.157 96.7989C180.157 96.7989 179.3 84.8396 161.784 84.4C144.268 83.9604 148.968 96.3593 144.222 99.3689C139.477 102.378 138.237 97.6556 133.537 100.643C128.837 103.63 130.967 109.66 127.123 110.472C123.28 111.283 118.106 106.628 113.451 109.626C108.795 112.624 108.75 115.172 106.609 115.172C104.467 115.172 100.195 113.47 97.5912 115.172C94.9874 116.874 92.0342 119.027 92.0342 119.027H200.243C200.243 119.027 201.528 115.172 196.828 112.613Z" fill="black"/>
<path d="M415.781 199.541C408.815 195.742 405.637 198.91 403.112 195.742C400.587 192.575 410.078 184.347 391.085 176.118C391.085 176.118 389.823 158.388 363.852 157.756C337.882 157.125 344.86 175.476 337.927 179.917C330.995 184.358 329.068 177.381 322.147 181.81C315.226 186.24 318.348 195.111 312.645 196.374C306.941 197.636 299.355 190.681 292.356 195.111C285.356 199.541 285.39 203.339 282.211 203.339C279.033 203.339 272.709 200.803 268.91 203.339C265.112 205.876 260.682 209.043 260.682 209.043H420.842C420.842 209.043 422.747 203.339 415.781 199.541Z" fill="black"/>
<path d="M173.168 268.265C166.202 264.466 163.024 267.634 160.499 264.466C157.974 261.299 167.465 253.07 148.472 244.831C148.472 244.831 147.209 227.112 121.251 226.469C95.2918 225.827 102.246 244.2 95.3256 248.641C88.4047 253.082 86.4547 246.104 79.4888 250.534C72.5228 254.964 75.6902 263.835 69.998 265.097C64.3057 266.36 56.6973 259.405 49.7088 263.835C42.7203 268.265 42.7429 272.063 39.5643 272.063C36.3856 272.063 30.0734 269.527 26.2749 272.063C22.4763 274.599 18.0352 277.767 18.0352 277.767H178.229C178.229 277.767 180.134 272.063 173.168 268.265Z" fill="black"/>
<g opacity="0.4">
<path d="M196.828 112.613C192.127 110.055 189.986 112.185 188.284 110.055C186.582 107.924 192.984 102.356 180.157 96.7989C180.157 96.7989 179.3 84.8396 161.784 84.4C144.268 83.9604 148.968 96.3593 144.222 99.3689C139.477 102.378 138.237 97.6556 133.537 100.643C128.837 103.63 130.967 109.66 127.123 110.472C123.28 111.283 118.106 106.628 113.451 109.626C108.795 112.624 108.75 115.172 106.609 115.172C104.467 115.172 100.195 113.47 97.5912 115.172C94.9874 116.874 92.0342 119.027 92.0342 119.027H200.243C200.243 119.027 201.528 115.172 196.828 112.613Z" fill="white"/>
<path d="M415.781 199.541C408.815 195.742 405.637 198.91 403.112 195.742C400.587 192.575 410.078 184.347 391.085 176.118C391.085 176.118 389.823 158.388 363.852 157.756C337.882 157.125 344.86 175.476 337.927 179.917C330.995 184.358 329.068 177.381 322.147 181.81C315.226 186.24 318.348 195.111 312.645 196.374C306.941 197.636 299.355 190.681 292.356 195.111C285.356 199.541 285.39 203.339 282.211 203.339C279.033 203.339 272.709 200.803 268.91 203.339C265.112 205.876 260.682 209.043 260.682 209.043H420.842C420.842 209.043 422.747 203.339 415.781 199.541Z" fill="white"/>
<path d="M173.168 268.265C166.202 264.466 163.024 267.634 160.499 264.466C157.974 261.299 167.465 253.07 148.472 244.831C148.472 244.831 147.209 227.112 121.251 226.469C95.2918 225.827 102.246 244.2 95.3256 248.641C88.4047 253.082 86.4547 246.104 79.4888 250.534C72.5228 254.964 75.6902 263.835 69.998 265.097C64.3057 266.36 56.6973 259.405 49.7088 263.835C42.7203 268.265 42.7429 272.063 39.5643 272.063C36.3856 272.063 30.0734 269.527 26.2749 272.063C22.4763 274.599 18.0352 277.767 18.0352 277.767H178.229C178.229 277.767 180.134 272.063 173.168 268.265Z" fill="white"/>
</g>
<path d="M363.83 266.01C363.83 266.01 346.122 262.967 337.014 252.349C327.907 241.731 279.337 184.549 279.337 184.549C279.337 184.549 270.229 181.01 251.507 184.549L273.769 273.596L363.83 266.01Z" fill="black"/>
<path d="M399.753 264.489C399.753 264.489 283.383 265.503 242.399 276.628V285.229C242.399 285.229 296.571 302.384 370.379 318.785C378.938 320.693 387.681 321.656 396.45 321.659H421.507V263.981L399.753 264.489Z" fill="black"/>
<g opacity="0.3">
<path d="M273.182 271.252C300.46 267.972 334.929 266.27 361.012 265.39C355.646 264.049 343.879 260.363 337.014 252.349C335.256 250.298 332.021 246.51 327.997 241.731C308.835 254.964 286.427 262.37 271.943 266.123L273.182 271.252Z" fill="black"/>
<path d="M270.094 258.898C294.892 250.67 303.357 231.53 305.938 215.851L279.337 184.55C278.451 184.242 277.543 184 276.62 183.828C277.522 201.547 271.097 219.109 263.669 233.176L270.094 258.898Z" fill="black"/>
<path d="M363.83 302.429C343.732 300.074 277.037 288.193 248.475 283.053V275.163C246.311 275.636 244.27 276.121 242.399 276.628V285.229H242.501L242.783 285.319L245.826 286.254L248.407 287.043C264.492 291.913 311.067 305.563 370.311 318.728C378.87 320.636 387.613 321.6 396.383 321.603H421.507V303.083C406.786 303.759 381.267 304.481 363.83 302.429Z" fill="black"/>
<path d="M272.258 285.736L317.785 283.718L285.908 275.614H268.212L272.258 285.736Z" fill="black"/>
</g>
<path d="M421.507 312.89H13.4701V341.069H421.507V312.89Z" fill="#263238" stroke="#263238" stroke-width="1.12717" stroke-linecap="round" stroke-linejoin="round"/>
<path d="M421.507 209.19H13.4701V215.953H421.507V209.19Z" fill="#263238" stroke="#263238" stroke-width="1.12717" stroke-linecap="round" stroke-linejoin="round"/>
<path d="M64.1929 19.8241V328.67" stroke="#263238" stroke-width="1.12717" stroke-linecap="round" stroke-linejoin="round"/>
<path d="M218.616 19.8241V328.67" stroke="#263238" stroke-width="1.12717" stroke-linecap="round" stroke-linejoin="round"/>
<path d="M373.039 19.8241V328.67" stroke="#263238" stroke-width="1.12717" stroke-linecap="round" stroke-linejoin="round"/>
<path d="M17.4265 99.8536C152.113 99.7409 287.374 99.7409 421.507 99.8536" stroke="#263238" stroke-width="1.12717" stroke-linecap="round" stroke-linejoin="round"/>
<path d="M109.81 146.936L113.349 151.974" stroke="#263238" stroke-width="1.12717" stroke-miterlimit="10"/>
<path d="M76.9752 100.192L105.188 140.364" stroke="#263238" stroke-width="1.12717" stroke-miterlimit="10"/>
<path d="M265.788 264.692L269.328 269.73" stroke="#263238" stroke-width="1.12717" stroke-miterlimit="10"/>
<path d="M232.954 217.948L261.167 258.12" stroke="#263238" stroke-width="1.12717" stroke-miterlimit="10"/>
<path d="M278.728 307.84L282.279 312.89" stroke="#263238" stroke-width="1.12717" stroke-miterlimit="10"/>
<path d="M245.894 261.096L274.118 301.268" stroke="#263238" stroke-width="1.12717" stroke-miterlimit="10"/>
<path d="M150.501 74.1879L154.04 79.2263" stroke="#263238" stroke-width="1.12717" stroke-miterlimit="10"/>
<path d="M117.666 27.4438L145.879 67.6164" stroke="#263238" stroke-width="1.12717" stroke-miterlimit="10"/>
<path d="M284.184 50.4158L287.723 55.4655" stroke="#263238" stroke-width="1.12717" stroke-miterlimit="10"/>
<path d="M251.349 3.67175L279.562 43.8443" stroke="#263238" stroke-width="1.12717" stroke-miterlimit="10"/>
<path d="M411.284 260.375L414.823 265.413" stroke="#263238" stroke-width="1.12717" stroke-miterlimit="10"/>
<path d="M378.449 213.631L406.663 253.803" stroke="#263238" stroke-width="1.12717" stroke-miterlimit="10"/>
<path d="M103.024 263.452L106.563 268.502" stroke="#263238" stroke-width="1.12717" stroke-miterlimit="10"/>
<path d="M70.1895 216.708L98.414 256.88" stroke="#263238" stroke-width="1.12717" stroke-miterlimit="10"/>
<path d="M128.307 56.9194L131.846 61.9692" stroke="#263238" stroke-width="1.12717" stroke-miterlimit="10"/>
<path d="M95.472 10.1755L123.685 50.348" stroke="#263238" stroke-width="1.12717" stroke-miterlimit="10"/>
<path d="M311.743 184.662L315.282 189.712" stroke="#263238" stroke-width="1.12717" stroke-miterlimit="10"/>
<path d="M278.908 137.918L307.133 178.091" stroke="#263238" stroke-width="1.12717" stroke-miterlimit="10"/>
<path d="M16.5474 241.494C18.1592 242.204 22.1832 242.114 22.1832 242.114C22.1832 242.114 21.3379 239.522 21.259 239.364C20.391 237.538 17.6407 234.54 15.4089 234.855C15.0343 234.914 14.6764 235.052 14.3591 235.259C14.0419 235.467 13.7724 235.74 13.5688 236.06C13.3651 236.38 13.2319 236.739 13.178 237.115C13.124 237.49 13.1506 237.872 13.256 238.237C13.5426 238.982 13.9843 239.658 14.5517 240.219C15.1191 240.781 15.7993 241.215 16.5474 241.494V241.494Z" fill="#263238"/>
<path d="M68.4312 228.013C66.1769 227.765 63.5167 230.843 62.7052 232.68C62.6263 232.838 61.8034 235.453 61.8485 235.453C61.4314 235.937 60.9806 236.456 60.4959 237.042C59.6167 238.169 58.6361 239.296 57.6554 240.75C56.5857 242.256 55.6035 243.821 54.7135 245.439C53.7116 247.241 52.8705 249.127 52.1999 251.075C52.2048 251.098 52.2048 251.121 52.1999 251.143C52.1999 250.489 52.1999 248.641 52.1999 248.494C51.9406 246.499 50.2724 242.791 48.0519 242.374C47.6816 242.316 47.3033 242.337 46.9418 242.436C46.5802 242.534 46.2433 242.708 45.9531 242.945C45.6629 243.182 45.4258 243.477 45.2573 243.812C45.0887 244.146 44.9924 244.513 44.9747 244.887C45.0038 245.698 45.2107 246.493 45.5808 247.216C45.9508 247.939 46.475 248.571 47.1163 249.069C48.3788 250.196 51.8955 251.323 52.1773 251.38C51.5336 253.398 51.029 255.458 50.6669 257.545C50.4528 258.751 50.2724 259.969 50.1033 261.197C50.1033 260.634 50.1033 260.07 50.1033 260.07C49.8441 258.075 48.1646 254.367 45.9441 253.95C45.5765 253.891 45.2007 253.909 44.8407 254.004C44.4807 254.099 44.1446 254.268 43.8538 254.501C43.563 254.733 43.324 255.024 43.1521 255.354C42.9802 255.684 42.8792 256.047 42.8556 256.418C42.8908 257.228 43.1003 258.021 43.4699 258.743C43.8395 259.465 44.3605 260.098 44.9972 260.6C46.5119 261.596 48.1689 262.356 49.9117 262.854C49.8441 263.328 49.7877 263.79 49.7314 264.263C49.4609 266.518 49.2016 268.772 48.8747 271.026C48.762 271.804 48.6155 272.559 48.4802 273.281C48.4802 272.773 48.4802 272.345 48.4802 272.278C48.221 270.282 46.5415 266.574 44.3209 266.168C43.9506 266.111 43.5724 266.132 43.2108 266.23C42.8492 266.329 42.5124 266.502 42.2222 266.739C41.932 266.976 41.6949 267.272 41.5263 267.606C41.3577 267.941 41.2615 268.308 41.2438 268.682C41.2805 269.49 41.4908 270.281 41.8603 271C42.2299 271.72 42.75 272.352 43.3854 272.852C44.847 273.849 46.4559 274.609 48.1533 275.107C47.9843 275.884 47.8264 276.662 47.6348 277.361C47.4883 277.868 47.3869 278.376 47.2065 278.871L46.7331 280.359C46.3949 281.284 46.0455 282.253 45.6961 283.155L44.9747 284.969C45.0874 284.203 45.3016 282.715 45.3016 282.546C45.2801 280.775 44.8026 279.04 43.9152 277.508C43.9319 277.309 43.9319 277.109 43.9152 276.91C43.8667 276.54 43.7412 276.184 43.5469 275.866C43.3525 275.547 43.0935 275.273 42.7865 275.06C42.4796 274.848 42.1316 274.702 41.7649 274.633C41.3983 274.563 41.021 274.571 40.6576 274.656C38.4709 275.242 37.0957 279.063 36.983 281.081C36.983 281.205 37.0619 282.49 37.1183 283.335C37.0168 282.862 36.9154 282.4 36.7914 281.915C36.566 280.945 36.3067 279.987 36.0362 278.962C35.8897 278.466 35.7319 277.97 35.5853 277.474C35.4388 276.978 35.2359 276.459 35.0556 275.941C34.6272 274.814 34.1313 273.596 33.6015 272.424C35.3682 272.055 37.0675 271.416 38.64 270.53C39.2976 270.078 39.8503 269.49 40.2607 268.805C40.671 268.121 40.9294 267.356 41.0183 266.563C41.029 266.187 40.9606 265.814 40.8173 265.467C40.6741 265.12 40.4594 264.807 40.1871 264.549C39.9149 264.29 39.5912 264.092 39.2372 263.967C38.8832 263.842 38.5069 263.793 38.1327 263.824C35.8784 264.072 33.9397 267.645 33.5339 269.617C33.5339 269.741 33.3761 271.184 33.3197 271.984C33.0041 271.286 32.6885 270.587 32.3391 269.888C31.3359 267.859 30.2538 265.853 29.1942 263.835C28.8674 263.226 28.5405 262.606 28.2249 261.986C30.0474 261.608 31.8028 260.958 33.4324 260.059C34.1069 259.607 34.6757 259.014 35.0999 258.321C35.524 257.629 35.7934 256.853 35.8897 256.046C35.8988 255.672 35.8291 255.3 35.6852 254.954C35.5413 254.609 35.3263 254.297 35.0542 254.04C34.7821 253.783 34.459 253.586 34.1058 253.461C33.7527 253.337 33.3773 253.288 33.0041 253.318C30.7498 253.555 28.811 257.14 28.4052 259.112C28.4052 259.259 28.1911 261.366 28.1685 261.874C27.4584 260.51 26.7708 259.157 26.1396 257.782C25.2832 255.935 24.549 254.033 23.9416 252.09C25.7752 251.713 27.5419 251.063 29.183 250.162C29.8554 249.709 30.422 249.116 30.8442 248.423C31.2663 247.731 31.534 246.955 31.629 246.15C31.6398 245.775 31.5714 245.402 31.4281 245.055C31.2848 244.709 31.0698 244.397 30.7973 244.139C30.5249 243.882 30.201 243.685 29.847 243.561C29.4931 243.437 29.117 243.39 28.7434 243.422C26.489 243.659 24.5616 247.232 24.1558 249.204C24.1558 249.362 23.9191 251.605 23.9078 252.011C23.9078 251.898 23.8289 251.785 23.7951 251.673C23.238 249.708 22.8607 247.698 22.6679 245.665C22.5327 244.538 22.4763 243.467 22.4425 242.419C24.2664 242.251 26.0535 241.803 27.7402 241.089C28.4617 240.719 29.0931 240.195 29.5898 239.554C30.0864 238.913 30.4363 238.171 30.6145 237.38C30.6669 237.009 30.6405 236.631 30.5371 236.27C30.4336 235.909 30.2554 235.575 30.0141 235.288C29.7727 235.001 29.4736 234.768 29.1362 234.604C28.7988 234.44 28.4307 234.349 28.0558 234.337C25.8015 234.337 23.4682 237.718 22.8483 239.589C22.8483 239.691 22.589 240.796 22.4312 241.596C22.4312 241.122 22.4312 240.626 22.4312 240.176C22.4312 238.474 22.5439 236.907 22.6566 235.52C22.7243 234.743 22.7919 234.032 22.8708 233.367C24.404 232.381 25.7764 231.164 26.9399 229.76C27.4079 229.098 27.725 228.341 27.8691 227.542C28.0132 226.744 27.9808 225.924 27.774 225.139C27.6482 224.786 27.4496 224.464 27.1911 224.192C26.9325 223.921 26.6198 223.708 26.2733 223.565C25.9267 223.423 25.5541 223.355 25.1796 223.366C24.8051 223.377 24.437 223.466 24.0994 223.629C22.1043 224.666 21.5746 228.701 21.8451 230.685C21.8451 230.854 22.6341 233.491 22.6679 233.469C22.589 234.1 22.4988 234.788 22.4199 235.532C22.2847 236.918 22.1381 238.485 22.0931 240.198C22.0284 242.044 22.0735 243.892 22.2283 245.733C22.3933 247.791 22.7365 249.831 23.254 251.831C23.2555 251.857 23.2555 251.883 23.254 251.909C22.9046 251.346 21.8563 249.824 21.7662 249.655C20.4474 248.133 16.9982 245.958 14.9242 246.848C14.5879 247.009 14.289 247.238 14.0468 247.521C13.8046 247.804 13.6245 248.134 13.5182 248.491C13.412 248.848 13.3819 249.224 13.4299 249.593C13.4779 249.963 13.603 250.318 13.797 250.636C14.2727 251.293 14.8844 251.839 15.5906 252.238C16.2967 252.637 17.0806 252.878 17.8887 252.946C19.5682 253.183 23.1075 252.157 23.3893 252.079C23.964 254.102 24.6796 256.084 25.5309 258.007C26.0156 259.135 26.5341 260.262 27.0752 261.389C26.7596 260.916 26.4665 260.499 26.4214 260.442C25.1026 258.92 21.6535 256.756 19.5795 257.635C19.2428 257.797 18.9436 258.027 18.7014 258.311C18.4591 258.595 18.2791 258.927 18.1728 259.285C18.0666 259.643 18.0366 260.019 18.0848 260.389C18.1329 260.759 18.2581 261.115 18.4523 261.434C18.9335 262.081 19.5477 262.616 20.2535 263.005C20.9594 263.394 21.7404 263.627 22.5439 263.688C24.3562 263.686 26.1576 263.408 27.8867 262.866L28.5179 264.151C29.5437 266.179 30.5694 268.208 31.5275 270.237C31.8544 270.947 32.1587 271.658 32.4631 272.379C32.1813 271.951 31.9333 271.601 31.8882 271.556C30.5807 270.034 27.1315 267.859 25.0575 268.738C24.7208 268.9 24.4217 269.13 24.1794 269.414C23.9372 269.698 23.7571 270.029 23.6509 270.387C23.5447 270.745 23.5147 271.121 23.5628 271.492C23.611 271.862 23.7362 272.218 23.9303 272.537C24.4078 273.187 25.0212 273.725 25.7278 274.115C26.4344 274.504 27.2172 274.735 28.022 274.791C29.7843 274.808 31.5381 274.545 33.2183 274.013C33.5113 274.757 33.8044 275.49 34.0524 276.268C34.2102 276.775 34.4018 277.248 34.5371 277.756C34.6723 278.263 34.8076 278.759 34.9541 279.255C35.1795 280.224 35.4275 281.216 35.6304 282.163C35.777 282.817 35.9009 283.448 36.0362 284.079C35.7093 283.369 35.0443 281.982 34.909 281.881C33.8382 280.168 30.7723 277.508 28.5856 278.06C28.2246 278.162 27.8892 278.34 27.6013 278.58C27.3133 278.821 27.0793 279.119 26.9145 279.457C26.7497 279.794 26.6577 280.162 26.6446 280.537C26.6315 280.912 26.6976 281.285 26.8385 281.633C27.1939 282.366 27.7064 283.011 28.3396 283.524C28.9727 284.036 29.7109 284.403 30.5018 284.598C32.3287 284.873 34.1867 284.873 36.0137 284.598C36.2166 285.646 36.4082 286.66 36.5772 287.63C37.1747 291.011 37.5353 293.795 37.7044 295.768C37.7044 296.117 37.7833 296.422 37.8171 296.726H31.0541L33.5339 345.104H45.11L47.5897 296.726H41.3114L41.4466 296.433C42.3146 294.618 43.5206 292.026 44.8282 288.847C45.2452 287.833 45.6623 286.762 46.0906 285.646C47.8959 286.065 49.7541 286.209 51.6025 286.074C52.4023 285.944 53.1648 285.643 53.8378 285.192C54.5108 284.741 55.0787 284.15 55.5025 283.459C55.668 283.123 55.7613 282.756 55.7763 282.382C55.7913 282.007 55.7278 281.634 55.5897 281.286C55.4517 280.937 55.2422 280.622 54.9748 280.359C54.7074 280.097 54.388 279.893 54.0372 279.762C51.8955 279.052 48.6267 281.475 47.4319 283.143C47.3643 283.245 46.7105 284.361 46.3048 285.082C46.4738 284.62 46.6429 284.18 46.812 283.707C47.1501 282.783 47.4658 281.836 47.8039 280.833C47.9504 280.337 48.1082 279.841 48.2548 279.334C48.4013 278.826 48.5253 278.297 48.6606 277.778C48.9424 276.55 49.1791 275.298 49.3932 274.036C51.0656 274.7 52.829 275.107 54.6233 275.242C55.4353 275.236 56.2364 275.055 56.9718 274.71C57.7072 274.366 58.3595 273.867 58.884 273.247C59.098 272.94 59.245 272.591 59.3156 272.224C59.3862 271.856 59.3787 271.478 59.2937 271.113C59.2087 270.749 59.048 270.406 58.8221 270.108C58.5962 269.809 58.31 269.561 57.9823 269.381C55.9759 268.344 52.3464 270.249 50.9487 271.635C50.8698 271.725 49.9568 272.864 49.4721 273.495C49.5848 272.728 49.7088 271.973 49.8103 271.24C50.0808 268.986 50.295 266.732 50.5204 264.477C50.588 263.779 50.6557 263.091 50.7346 262.392C52.4636 263.087 54.2877 263.516 56.145 263.666C56.9561 263.664 57.757 263.485 58.4912 263.14C59.2255 262.795 59.8751 262.294 60.3944 261.671C60.6106 261.365 60.7597 261.017 60.8321 260.649C60.9045 260.282 60.8984 259.903 60.8144 259.538C60.7303 259.173 60.5701 258.83 60.3443 258.532C60.1185 258.233 59.8321 257.985 59.504 257.805C57.4976 256.768 53.8681 258.673 52.4704 260.059C52.369 260.172 51.0614 261.806 50.7458 262.234C50.9036 260.713 51.084 259.191 51.3094 257.726C51.6165 255.716 52.0533 253.728 52.6169 251.774C52.7522 251.774 56.3253 253.172 58.0612 253.048C58.8723 253.046 59.6732 252.867 60.4074 252.522C61.1417 252.177 61.7913 251.676 62.3106 251.053C62.5264 250.746 62.6749 250.398 62.7464 250.03C62.8179 249.662 62.8109 249.283 62.7258 248.918C62.6406 248.553 62.4793 248.21 62.2524 247.911C62.0254 247.613 61.738 247.366 61.4089 247.187C59.4138 246.15 55.773 248.055 54.3866 249.441C54.2739 249.554 52.8649 251.312 52.6395 251.695C52.6395 251.583 52.6395 251.47 52.7297 251.357C53.3446 249.412 54.133 247.526 55.0855 245.721C55.604 244.718 56.145 243.794 56.6973 242.892C58.3094 243.762 60.0474 244.374 61.8485 244.707C62.6647 244.799 63.4911 244.711 64.2699 244.45C65.0488 244.189 65.7611 243.761 66.3572 243.196C66.6057 242.915 66.792 242.585 66.9037 242.226C67.0154 241.868 67.05 241.49 67.0053 241.118C66.9606 240.745 66.8375 240.386 66.6443 240.064C66.451 239.743 66.1918 239.466 65.8838 239.251C64.0127 238 60.2479 239.499 58.6473 240.762C58.5684 240.829 57.7681 241.618 57.2045 242.205C57.4525 241.799 57.7118 241.382 57.9598 241.01C58.9066 239.578 59.8647 238.338 60.7101 237.245C61.206 236.625 61.6569 236.118 62.0852 235.565C63.9098 235.586 65.7268 235.328 67.4731 234.799C68.2252 234.501 68.9043 234.045 69.4645 233.462C70.0246 232.878 70.4526 232.181 70.7194 231.417C70.8309 231.042 70.858 230.646 70.7988 230.259C70.7396 229.871 70.5955 229.502 70.3769 229.177C70.1583 228.851 69.8705 228.578 69.5342 228.377C69.1978 228.176 68.8212 228.052 68.4312 228.013V228.013ZM43.6334 288.283C42.2808 291.406 41.0296 293.919 40.1278 295.723L39.6432 296.692H39.3952C39.3952 296.343 39.305 295.959 39.2487 295.565C38.9781 293.581 38.5385 290.741 37.8735 287.37C37.6593 286.311 37.4226 285.172 37.1521 283.989C38.2115 283.57 39.2431 283.085 40.2406 282.535C41.6056 283.703 43.1222 284.681 44.7493 285.443C44.3773 286.435 43.9828 287.393 43.5883 288.283H43.6334Z" fill="#263238"/>
<path d="M56.6072 242.362C56.6072 242.362 57.3286 239.736 57.3511 239.556C57.6329 237.56 56.9904 233.548 54.9615 232.556C54.6196 232.403 54.2494 232.324 53.8749 232.324C53.5005 232.323 53.1301 232.401 52.7878 232.553C52.4456 232.705 52.1391 232.928 51.8883 233.206C51.6375 233.484 51.448 233.812 51.332 234.168C51.1516 234.958 51.1437 235.778 51.3091 236.572C51.4744 237.365 51.8091 238.114 52.2901 238.767C53.2482 240.254 56.6072 242.362 56.6072 242.362Z" fill="#263238"/>
<path d="M402.334 46.1324H202.824C199.089 46.1324 196.061 49.1604 196.061 52.8955V166.74C196.061 170.475 199.089 173.503 202.824 173.503H402.334C406.069 173.503 409.097 170.475 409.097 166.74V52.8955C409.097 49.1604 406.069 46.1324 402.334 46.1324Z" fill="#263238" stroke="#263238" stroke-width="1.12717" stroke-linecap="round" stroke-linejoin="round"/>
<path d="M194.72 79.9589H409.886" stroke="white" stroke-width="1.12717" stroke-linecap="round" stroke-linejoin="round"/>
<path d="M251.011 66.1285H353.595" stroke="white" stroke-width="2.25435" stroke-linecap="round" stroke-linejoin="round"/>
<path d="M248.114 80.4886V172.32" stroke="white" stroke-width="1.12717" stroke-linecap="round" stroke-linejoin="round"/>
<path d="M304.169 80.4886V172.32" stroke="white" stroke-width="1.12717" stroke-linecap="round" stroke-linejoin="round"/>
<path d="M360.234 80.4886V172.32" stroke="white" stroke-width="1.12717" stroke-linecap="round" stroke-linejoin="round"/>
<path d="M202.723 92.2339H216.08" stroke="white" stroke-width="1.12717" stroke-linecap="round" stroke-linejoin="round"/>
<path d="M202.723 98.6475H220.78" stroke="white" stroke-width="1.12717" stroke-linecap="round" stroke-linejoin="round"/>
<path d="M202.723 105.05H216.08" stroke="white" stroke-width="1.12717" stroke-linecap="round" stroke-linejoin="round"/>
<path d="M202.723 111.452H226.563" stroke="white" stroke-width="1.12717" stroke-linecap="round" stroke-linejoin="round"/>
<path d="M202.723 117.866H216.08" stroke="white" stroke-width="1.12717" stroke-linecap="round" stroke-linejoin="round"/>
<path d="M202.723 124.268H220.453" stroke="white" stroke-width="1.12717" stroke-linecap="round" stroke-linejoin="round"/>
<path d="M202.723 130.682H216.08" stroke="white" stroke-width="1.12717" stroke-linecap="round" stroke-linejoin="round"/>
<path d="M202.723 137.084H230.744" stroke="white" stroke-width="1.12717" stroke-linecap="round" stroke-linejoin="round"/>
<path d="M202.723 143.487H216.08" stroke="white" stroke-width="1.12717" stroke-linecap="round" stroke-linejoin="round"/>
<path d="M202.723 149.9H221.423" stroke="white" stroke-width="1.12717" stroke-linecap="round" stroke-linejoin="round"/>
<path d="M202.723 156.302H216.08" stroke="white" stroke-width="1.12717" stroke-linecap="round" stroke-linejoin="round"/>
<path d="M202.723 162.716H216.08" stroke="white" stroke-width="1.12717" stroke-linecap="round" stroke-linejoin="round"/>
<path d="M259.972 92.2339H273.318" stroke="white" stroke-width="1.12717" stroke-linecap="round" stroke-linejoin="round"/>
<path d="M259.972 98.6475H278.018" stroke="white" stroke-width="1.12717" stroke-linecap="round" stroke-linejoin="round"/>
<path d="M259.972 105.05H273.318" stroke="white" stroke-width="1.12717" stroke-linecap="round" stroke-linejoin="round"/>
<path d="M259.972 111.452H283.812" stroke="white" stroke-width="1.12717" stroke-linecap="round" stroke-linejoin="round"/>
<path d="M259.972 117.866H273.318" stroke="white" stroke-width="1.12717" stroke-linecap="round" stroke-linejoin="round"/>
<path d="M259.972 124.268H277.703" stroke="white" stroke-width="1.12717" stroke-linecap="round" stroke-linejoin="round"/>
<path d="M259.972 130.682H273.318" stroke="white" stroke-width="1.12717" stroke-linecap="round" stroke-linejoin="round"/>
<path d="M259.972 137.084H287.994" stroke="white" stroke-width="1.12717" stroke-linecap="round" stroke-linejoin="round"/>
<path d="M259.972 143.487H273.318" stroke="white" stroke-width="1.12717" stroke-linecap="round" stroke-linejoin="round"/>
<path d="M259.972 149.9H278.661" stroke="white" stroke-width="1.12717" stroke-linecap="round" stroke-linejoin="round"/>
<path d="M259.972 156.302H273.318" stroke="white" stroke-width="1.12717" stroke-linecap="round" stroke-linejoin="round"/>
<path d="M259.972 162.716H273.318" stroke="white" stroke-width="1.12717" stroke-linecap="round" stroke-linejoin="round"/>
<path d="M317.21 92.2339H330.556" stroke="white" stroke-width="1.12717" stroke-linecap="round" stroke-linejoin="round"/>
<path d="M317.21 98.6475H335.267" stroke="white" stroke-width="1.12717" stroke-linecap="round" stroke-linejoin="round"/>
<path d="M317.21 105.05H330.556" stroke="white" stroke-width="1.12717" stroke-linecap="round" stroke-linejoin="round"/>
<path d="M317.21 111.452H341.05" stroke="white" stroke-width="1.12717" stroke-linecap="round" stroke-linejoin="round"/>
<path d="M317.21 117.866H330.556" stroke="white" stroke-width="1.12717" stroke-linecap="round" stroke-linejoin="round"/>
<path d="M317.21 124.268H334.94" stroke="white" stroke-width="1.12717" stroke-linecap="round" stroke-linejoin="round"/>
<path d="M317.21 130.682H330.556" stroke="white" stroke-width="1.12717" stroke-linecap="round" stroke-linejoin="round"/>
<path d="M317.21 137.084H345.232" stroke="white" stroke-width="1.12717" stroke-linecap="round" stroke-linejoin="round"/>
<path d="M317.21 143.487H330.556" stroke="white" stroke-width="1.12717" stroke-linecap="round" stroke-linejoin="round"/>
<path d="M317.21 149.9H335.91" stroke="white" stroke-width="1.12717" stroke-linecap="round" stroke-linejoin="round"/>
<path d="M317.21 156.302H330.556" stroke="white" stroke-width="1.12717" stroke-linecap="round" stroke-linejoin="round"/>
<path d="M317.21 162.716H330.556" stroke="white" stroke-width="1.12717" stroke-linecap="round" stroke-linejoin="round"/>
<path d="M374.448 92.2339H387.805" stroke="white" stroke-width="1.12717" stroke-linecap="round" stroke-linejoin="round"/>
<path d="M374.448 98.6475H392.505" stroke="white" stroke-width="1.12717" stroke-linecap="round" stroke-linejoin="round"/>
<path d="M374.448 105.05H387.805" stroke="white" stroke-width="1.12717" stroke-linecap="round" stroke-linejoin="round"/>
<path d="M374.448 111.452H398.288" stroke="white" stroke-width="1.12717" stroke-linecap="round" stroke-linejoin="round"/>
<path d="M374.448 117.866H387.805" stroke="white" stroke-width="1.12717" stroke-linecap="round" stroke-linejoin="round"/>
<path d="M374.448 124.268H392.178" stroke="white" stroke-width="1.12717" stroke-linecap="round" stroke-linejoin="round"/>
<path d="M374.448 130.682H387.805" stroke="white" stroke-width="1.12717" stroke-linecap="round" stroke-linejoin="round"/>
<path d="M374.448 137.084H402.47" stroke="white" stroke-width="1.12717" stroke-linecap="round" stroke-linejoin="round"/>
<path d="M374.448 143.487H387.805" stroke="white" stroke-width="1.12717" stroke-linecap="round" stroke-linejoin="round"/>
<path d="M374.448 149.9H393.148" stroke="white" stroke-width="1.12717" stroke-linecap="round" stroke-linejoin="round"/>
<path d="M374.448 156.302H387.805" stroke="white" stroke-width="1.12717" stroke-linecap="round" stroke-linejoin="round"/>
<path d="M374.448 162.716H387.805" stroke="white" stroke-width="1.12717" stroke-linecap="round" stroke-linejoin="round"/>
<path d="M214.344 70.7724C214.344 70.3891 214.344 70.0284 214.344 69.6452C214.344 69.5889 214.412 69.5212 214.468 69.4761L215.798 68.4729C215.861 68.4229 215.901 68.3499 215.911 68.2701C215.911 66.8949 215.911 65.531 215.911 64.1671C215.915 64.1184 215.915 64.0694 215.911 64.0206L209.599 66.0157C209.599 65.9368 209.599 65.8917 209.599 65.8354C209.599 65.4183 209.599 64.99 209.599 64.5729C209.594 64.5243 209.605 64.4755 209.629 64.4331C209.653 64.3908 209.69 64.3569 209.734 64.3362C211.748 63.0738 213.769 61.8151 215.798 60.5602C215.851 60.5301 215.894 60.4853 215.922 60.4313C215.95 60.3773 215.962 60.3164 215.956 60.2558C215.956 58.8807 215.956 57.5168 215.956 56.1417C215.942 55.9326 215.985 55.7237 216.079 55.5363C216.172 55.3489 216.314 55.1898 216.489 55.0751C216.665 54.9605 216.867 54.8945 217.077 54.8839C217.286 54.8732 217.494 54.9183 217.68 55.0145C217.893 55.1116 218.07 55.2721 218.187 55.474C218.304 55.6759 218.355 55.9092 218.334 56.1417V60.2333C218.328 60.3039 218.343 60.3747 218.377 60.4369C218.411 60.499 218.463 60.5497 218.526 60.5827L224.522 64.3249C224.578 64.353 224.625 64.3966 224.657 64.4506C224.689 64.5046 224.705 64.5666 224.703 64.6293C224.703 65.0914 224.703 65.5423 224.703 66.027L218.357 64.0431C218.357 64.1108 218.357 64.1671 218.357 64.2122V68.1799C218.351 68.2391 218.362 68.2988 218.388 68.3524C218.413 68.4061 218.453 68.4516 218.503 68.4842C218.954 68.8111 219.394 69.1493 219.833 69.4874C219.899 69.5452 219.939 69.626 219.946 69.7128C219.946 70.051 219.946 70.3891 219.946 70.7611L218.819 70.4342L217.354 70.0172C217.234 69.9946 217.112 69.9946 216.993 70.0172L214.513 70.7273L214.344 70.7724Z" fill="white"/>
<path d="M217.072 73.4889C222.936 73.4889 227.69 68.7351 227.69 62.8709C227.69 57.0068 222.936 52.2529 217.072 52.2529C211.208 52.2529 206.454 57.0068 206.454 62.8709C206.454 68.7351 211.208 73.4889 217.072 73.4889Z" stroke="white" stroke-width="1.12717" stroke-linecap="round" stroke-linejoin="round"/>
<path d="M159.755 398.115C214.008 398.115 257.988 391.747 257.988 383.89C257.988 376.034 214.008 369.665 159.755 369.665C105.502 369.665 61.5217 376.034 61.5217 383.89C61.5217 391.747 105.502 398.115 159.755 398.115Z" fill="black"/>
<path opacity="0.5" d="M159.755 398.115C214.008 398.115 257.988 391.747 257.988 383.89C257.988 376.034 214.008 369.665 159.755 369.665C105.502 369.665 61.5217 376.034 61.5217 383.89C61.5217 391.747 105.502 398.115 159.755 398.115Z" fill="white"/>
<path d="M202.261 297.143C201.962 297.143 201.675 297.024 201.464 296.813C201.252 296.601 201.133 296.315 201.133 296.016V230.82C201.133 230.521 201.252 230.234 201.464 230.023C201.675 229.812 201.962 229.693 202.261 229.693C202.56 229.693 202.846 229.812 203.058 230.023C203.269 230.234 203.388 230.521 203.388 230.82V296.016C203.388 296.315 203.269 296.601 203.058 296.813C202.846 297.024 202.56 297.143 202.261 297.143Z" fill="#263238"/>
<path d="M202.261 243.546C201.812 243.546 201.382 243.368 201.065 243.051C200.748 242.734 200.57 242.303 200.57 241.855V230.82C200.57 230.372 200.748 229.942 201.065 229.624C201.382 229.307 201.812 229.129 202.261 229.129C202.709 229.129 203.139 229.307 203.456 229.624C203.773 229.942 203.951 230.372 203.951 230.82V241.855C203.951 242.303 203.773 242.734 203.456 243.051C203.139 243.368 202.709 243.546 202.261 243.546V243.546Z" fill="#263238"/>
<path d="M199.544 297.143C199.245 297.143 198.959 297.024 198.747 296.813C198.536 296.601 198.417 296.315 198.417 296.016V230.82C198.417 230.521 198.536 230.234 198.747 230.023C198.959 229.812 199.245 229.693 199.544 229.693C199.843 229.693 200.13 229.812 200.341 230.023C200.553 230.234 200.671 230.521 200.671 230.82V296.016C200.671 296.315 200.553 296.601 200.341 296.813C200.13 297.024 199.843 297.143 199.544 297.143Z" fill="#263238"/>
<path d="M199.544 243.546C199.096 243.546 198.666 243.368 198.349 243.051C198.032 242.734 197.853 242.303 197.853 241.855V230.82C197.853 230.372 198.032 229.942 198.349 229.624C198.666 229.307 199.096 229.129 199.544 229.129C199.993 229.129 200.423 229.307 200.74 229.624C201.057 229.942 201.235 230.372 201.235 230.82V241.855C201.235 242.303 201.057 242.734 200.74 243.051C200.423 243.368 199.993 243.546 199.544 243.546V243.546Z" fill="#263238"/>
<path d="M202.261 229.129H199.544V232.432H202.238L202.261 229.129Z" fill="#263238"/>
<path d="M203.05 375.019H200.412V380.475H203.05V375.019Z" fill="#263238" stroke="#263238" stroke-width="1.12717" stroke-linecap="round" stroke-linejoin="round"/>
<path d="M221.671 375.019H219.033V380.475H221.671V375.019Z" fill="#263238" stroke="#263238" stroke-width="1.12717" stroke-linecap="round" stroke-linejoin="round"/>
<path d="M210.76 375.019H208.122V380.475H210.76V375.019Z" fill="#263238" stroke="#263238" stroke-width="1.12717" stroke-linecap="round" stroke-linejoin="round"/>
<path d="M229.392 375.019H226.754V380.475H229.392V375.019Z" fill="#263238" stroke="#263238" stroke-width="1.12717" stroke-linecap="round" stroke-linejoin="round"/>
<path d="M227.633 287.235H202.08C198.762 287.235 196.073 289.925 196.073 293.243V369.147C196.073 372.465 198.762 375.155 202.08 375.155H227.633C230.951 375.155 233.641 372.465 233.641 369.147V293.243C233.641 289.925 230.951 287.235 227.633 287.235Z" fill="white" stroke="#263238" stroke-width="1.12717" stroke-linecap="round" stroke-linejoin="round"/>
<path d="M227.645 287.235H224.252C220.934 287.235 218.244 289.925 218.244 293.243V369.147C218.244 372.465 220.934 375.155 224.252 375.155H227.645C230.963 375.155 233.652 372.465 233.652 369.147V293.243C233.652 289.925 230.963 287.235 227.645 287.235Z" fill="#263238" stroke="#263238" stroke-width="1.12717" stroke-linecap="round" stroke-linejoin="round"/>
<path d="M213.634 287.235C212.844 287.235 212.062 287.391 211.332 287.694C210.602 287.996 209.94 288.44 209.382 288.999C208.824 289.558 208.381 290.221 208.08 290.952C207.779 291.682 207.625 292.464 207.626 293.254V369.136C207.745 370.421 208.206 371.651 208.961 372.697C209.717 373.744 210.738 374.569 211.921 375.087" stroke="#263238" stroke-width="1.12717" stroke-linecap="round" stroke-linejoin="round"/>
<path d="M119.594 286.57C119.594 286.57 123.674 296.636 122.975 305.495C122.276 314.355 119.594 328.726 121.532 334.723C123.471 340.719 127.766 364.559 127.766 364.559C127.766 364.559 125.613 366.949 125.613 369.068C125.613 371.187 126.334 381.997 126.334 381.997H127.766L129.208 371.221C129.8 371.485 130.324 371.881 130.738 372.379C131.153 372.878 131.447 373.465 131.598 374.095C131.835 376.011 132.556 381.523 133.514 381.76C134.71 381.883 135.915 381.883 137.11 381.76C137.11 381.76 138.541 380.802 137.831 380.08C136.797 379.143 136.12 377.877 135.915 376.496C135.43 374.332 134.236 371.221 134.236 367.152V331.082C134.236 320.543 135.667 312.394 136.152 303.049C136.461 297.785 136.298 292.504 135.667 287.269L119.594 286.57Z" fill="white"/>
<path d="M120.056 287.81C120.861 290.08 121.52 292.399 122.028 294.753H136.208C136.107 291.27 135.836 288.813 135.712 287.81H120.056Z" fill="black"/>
<path opacity="0.5" d="M120.056 287.81C120.861 290.08 121.52 292.399 122.028 294.753H136.208C136.107 291.27 135.836 288.813 135.712 287.81H120.056Z" fill="white"/>
<path d="M119.594 286.57C119.594 286.57 123.674 296.636 122.975 305.495C122.276 314.355 119.594 328.726 121.532 334.723C123.471 340.719 127.766 364.559 127.766 364.559C127.766 364.559 125.613 366.949 125.613 369.068C125.613 371.187 126.334 381.997 126.334 381.997H127.766L129.208 371.221C129.8 371.485 130.324 371.881 130.738 372.379C131.153 372.878 131.447 373.465 131.598 374.095C131.835 376.011 132.556 381.523 133.514 381.76C134.71 381.883 135.915 381.883 137.11 381.76C137.11 381.76 138.541 380.802 137.831 380.08C136.797 379.143 136.12 377.877 135.915 376.496C135.43 374.332 134.236 371.221 134.236 367.152V331.082C134.236 320.543 135.667 312.394 136.152 303.049C136.461 297.785 136.298 292.504 135.667 287.269L119.594 286.57Z" stroke="#263238" stroke-width="1.12717" stroke-linecap="round" stroke-linejoin="round"/>
<path d="M133.65 381.873H130.054C130.054 381.873 128.927 381.783 128.791 377.443C128.743 375.105 128.456 372.779 127.935 370.499C128.604 370.296 129.315 370.271 129.998 370.427C130.68 370.583 131.309 370.915 131.824 371.39C133.785 373.047 134.258 379.596 134.495 380.407C134.635 380.926 134.877 381.413 135.205 381.839L133.65 381.873Z" fill="white" stroke="#263238" stroke-width="1.12717" stroke-linecap="round" stroke-linejoin="round"/>
<path d="M135.893 376.541C135.26 374.368 134.76 372.158 134.393 369.925C133.981 368.564 133.437 367.246 132.77 365.991C131.102 363.116 127.743 364.559 127.743 364.559C127.743 364.559 125.59 366.949 125.59 369.068C125.59 371.187 126.312 381.997 126.312 381.997H127.743L129.186 371.221C129.778 371.485 130.301 371.881 130.716 372.38C131.13 372.878 131.424 373.465 131.576 374.095C131.812 376.011 132.534 381.523 133.492 381.76C134.687 381.883 135.892 381.883 137.087 381.76C137.087 381.76 138.519 380.802 137.809 380.08C136.784 379.155 136.107 377.906 135.893 376.541V376.541Z" fill="#263238" stroke="#263238" stroke-width="1.12717" stroke-linecap="round" stroke-linejoin="round"/>
<path d="M142.656 288.08C142.656 288.08 144.91 295.046 144.504 298.326C144.098 301.607 133.435 311.638 132.207 317.59C130.978 323.541 128.104 337.056 127.089 342.794C126.075 348.531 125.218 351.912 123.482 353.457C121.747 355.001 118.557 353.581 116.145 356.32C113.732 359.059 106.676 367.479 106.676 367.479L107.657 368.347L115.942 363.286C115.942 363.286 119.763 364.74 119.842 366.994C120.034 370.127 120.471 373.24 121.149 376.304C121.656 378.187 125.139 381.873 127.371 382.414C129.603 382.955 129.547 380.159 128.656 379.63C127.766 379.1 126.492 376.248 126.695 372.731C126.898 369.214 128.307 358.867 129.682 356.477C131.057 354.088 143.276 328.298 149.622 320.047C155.968 311.796 158.019 304.267 159.462 302.215C160.905 300.164 160.893 295.249 160.893 292.589C160.889 290.943 160.753 289.3 160.488 287.675L142.656 288.08Z" fill="white"/>
<path d="M142.656 288.081C143.349 290.266 143.895 292.495 144.29 294.753H160.871C160.871 293.953 160.871 293.209 160.871 292.589C160.863 290.989 160.734 289.391 160.488 287.81H154.491L142.656 288.081Z" fill="black"/>
<path opacity="0.5" d="M142.656 288.081C143.349 290.266 143.895 292.495 144.29 294.753H160.871C160.871 293.953 160.871 293.209 160.871 292.589C160.863 290.989 160.734 289.391 160.488 287.81H154.491L142.656 288.081Z" fill="white"/>
<path d="M142.656 288.08C142.656 288.08 144.91 295.046 144.504 298.326C144.098 301.607 133.435 311.638 132.207 317.59C130.978 323.541 128.104 337.056 127.089 342.794C126.075 348.531 125.218 351.912 123.482 353.457C121.747 355.001 118.557 353.581 116.145 356.32C113.732 359.059 106.676 367.479 106.676 367.479L107.657 368.347L115.942 363.286C115.942 363.286 119.763 364.74 119.842 366.994C120.034 370.127 120.471 373.24 121.149 376.304C121.656 378.187 125.139 381.873 127.371 382.414C129.603 382.955 129.547 380.159 128.656 379.63C127.766 379.1 126.492 376.248 126.695 372.731C126.898 369.214 128.307 358.867 129.682 356.477C131.057 354.088 143.276 328.298 149.622 320.047C155.968 311.796 158.019 304.267 159.462 302.215C160.905 300.164 160.893 295.249 160.893 292.589C160.889 290.943 160.753 289.3 160.488 287.675L142.656 288.08Z" stroke="#263238" stroke-width="1.12717" stroke-linecap="round" stroke-linejoin="round"/>
<path d="M115.942 363.286C115.942 363.286 117.723 368.11 117.576 370.567C117.43 373.024 116.314 374.794 117.43 376.71C118.545 378.626 120.45 381.399 127.371 382.414C127.371 382.414 123.821 376.259 123.652 372.145C123.482 368.031 122.817 361.629 120.789 361.099C118.76 360.569 116.099 360.625 115.942 363.286Z" fill="white" stroke="#263238" stroke-width="1.12717" stroke-linecap="round" stroke-linejoin="round"/>
<path d="M128.656 379.63C127.766 379.145 126.492 376.248 126.695 372.731C124.012 369.293 125.568 364.244 123.719 360.242C122.76 357.957 121.158 356 119.109 354.606V354.606C117.971 354.835 116.941 355.433 116.178 356.308C113.755 359.036 106.71 367.467 106.71 367.467L107.691 368.335L115.975 363.274C115.975 363.274 119.797 364.728 119.875 366.983C120.068 370.116 120.505 373.229 121.183 376.293C121.69 378.176 125.173 381.861 127.405 382.402C129.637 382.944 129.569 380.103 128.656 379.63Z" fill="#263238" stroke="#263238" stroke-width="1.12717" stroke-linecap="round" stroke-linejoin="round"/>
<path d="M112.414 170.392C110.488 173.025 108.968 175.931 107.905 179.015C106.473 183.524 93.7701 218.782 95.9343 220.935C98.0985 223.088 119.887 230.031 119.887 230.031L123.482 220.213L110.779 214.228L118.669 188.833C118.669 188.833 120.8 173.74 112.414 170.392Z" fill="black" stroke="#263238" stroke-width="1.12717" stroke-linecap="round" stroke-linejoin="round"/>
<path d="M100.995 220.349C106.101 219.729 110.734 214.262 110.734 214.262C110.807 216.91 109.989 219.505 108.412 221.634" stroke="#263238" stroke-width="1.12717" stroke-linecap="round" stroke-linejoin="round"/>
<path d="M115.513 196.768C115.513 196.768 113.575 195.156 109.697 186.759" stroke="#263238" stroke-width="1.12717" stroke-linecap="round" stroke-linejoin="round"/>
<path d="M115.186 198.38C111.546 196.738 107.994 194.906 104.546 192.891" stroke="#263238" stroke-width="1.12717" stroke-linecap="round" stroke-linejoin="round"/>
<path d="M122.231 221.656C122.231 221.656 116.483 231.237 112.65 250.399C110.334 263.113 109.61 276.067 110.497 288.96C110.497 288.96 132.534 293.761 171.579 288.96C171.579 288.96 167.747 240.581 153.375 221.656H122.231Z" fill="black" stroke="#263238" stroke-width="1.12717" stroke-linecap="round" stroke-linejoin="round"/>
<path d="M110.137 279.762C110.137 285.398 110.497 288.96 110.497 288.96C110.497 288.96 132.534 293.761 171.579 288.96C171.579 288.96 171.297 285.375 170.598 279.773C137.798 283.143 116.742 280.743 110.137 279.762Z" fill="#263238" stroke="#263238" stroke-width="1.12717" stroke-linecap="round" stroke-linejoin="round"/>
<path d="M125.06 166.075C125.06 166.075 114.285 168.713 112.369 170.392C110.452 172.072 111.41 180.931 112.605 186.68C113.8 192.428 122.186 221.622 122.186 221.622H153.33C153.33 221.622 160.521 174.664 160.273 170.595C160.025 166.526 140.875 163.888 140.875 163.888L125.06 166.075Z" fill="black" stroke="#263238" stroke-width="1.12717" stroke-linecap="round" stroke-linejoin="round"/>
<path d="M120.123 214.228L122.231 221.656H153.375C153.375 221.656 153.826 218.703 154.502 214.228H120.123Z" fill="#263238" stroke="#263238" stroke-width="1.12717" stroke-linecap="round" stroke-linejoin="round"/>
<path d="M188.25 223.437C189.483 223.98 190.79 224.337 192.127 224.497C193.536 224.497 198.304 222.377 200.243 222.727C202.182 223.076 206.059 229.253 206.589 230.132C207.119 231.012 204.549 231.812 203.591 232.601C201.99 233.931 200.559 232.714 200.773 232.071L201.122 230.662C201.122 230.662 199.544 229.693 198.473 230.662C197.154 231.806 195.463 232.431 193.717 232.421C191.598 232.421 187.021 229.253 187.021 229.253L188.25 223.437Z" fill="white" stroke="#263238" stroke-width="1.12717" stroke-linecap="round" stroke-linejoin="round"/>
<path d="M151.459 198.414C151.459 198.414 152.417 217.102 153.612 219.018C154.807 220.935 167.983 226.909 174.453 228.836C178.769 230.061 183.175 230.943 187.63 231.474L189.546 222.851C189.546 222.851 173.022 213.743 169.663 211.579C166.304 209.415 164.151 207.747 164.151 207.747C164.151 207.747 163.193 182.351 162.956 177.561C162.719 172.77 162.719 170.381 160.566 169.175C158.25 168.153 155.842 167.353 153.375 166.785" fill="black"/>
<path d="M151.459 198.414C151.459 198.414 152.417 217.102 153.612 219.018C154.807 220.935 167.983 226.909 174.453 228.836C178.769 230.061 183.175 230.943 187.63 231.474L189.546 222.851C189.546 222.851 173.022 213.743 169.663 211.579C166.304 209.415 164.151 207.747 164.151 207.747C164.151 207.747 163.193 182.351 162.956 177.561C162.719 172.77 162.719 170.381 160.566 169.175C158.25 168.153 155.842 167.353 153.375 166.785" stroke="#263238" stroke-width="1.12717" stroke-linecap="round" stroke-linejoin="round"/>
<path d="M158.414 214.51C161.964 212.571 164.151 207.747 164.151 207.747C164.151 207.747 158.414 210.948 153.894 209.009" stroke="#263238" stroke-width="1.12717" stroke-linecap="round" stroke-linejoin="round"/>
<path d="M132.128 129.667C129.954 130.297 127.987 131.495 126.43 133.137C124.873 134.78 123.782 136.807 123.268 139.012C121.104 146.902 122.784 154.792 122.784 157.689C122.784 160.586 121.104 173.266 119.402 182.363C117.7 191.459 115.333 201.773 115.333 201.773C115.333 201.773 122.288 203.441 125.635 203.926L132.579 204.884L133.785 199.135L134.743 205.12C137.055 205.272 139.374 205.272 141.686 205.12C144.51 204.898 147.271 204.169 149.836 202.967L150.072 199.857L152.462 202.483C153.857 202.113 155.222 201.634 156.542 201.051C158.695 200.093 162.043 198.177 162.043 198.177C162.043 198.177 150.546 169.434 149.114 163.437C147.683 157.441 150.309 154.104 151.267 146.676C152.225 139.248 147.198 128.473 143.377 127.751C142.241 127.558 141.074 127.654 139.985 128.03C138.896 128.406 137.919 129.051 137.144 129.904C136.379 129.491 135.531 129.255 134.663 129.214C133.795 129.173 132.928 129.328 132.128 129.667V129.667Z" fill="#263238" stroke="#263238" stroke-width="1.12717" stroke-linecap="round" stroke-linejoin="round"/>
</svg>
