<svg width="534" height="356" viewBox="0 0 534 356" fill="none" xmlns="http://www.w3.org/2000/svg">
<path d="M73.0195 262.183C73.0195 262.183 101.525 327.177 173.6 348.431C245.675 369.685 322.641 341.361 385.536 320.073C448.432 298.785 481.51 244.35 467.497 188.535C453.483 132.72 400.496 136.734 351.078 87.1679C301.66 37.6017 296.028 16.9177 227.545 2.27706C159.062 -12.3636 84.1026 45.2755 65.3571 126.905C46.6116 208.535 73.0195 262.183 73.0195 262.183Z" fill="black"/>
<path opacity="0.8" d="M73.0195 262.183C73.0195 262.183 101.525 327.177 173.6 348.431C245.675 369.685 322.641 341.361 385.536 320.073C448.432 298.785 481.51 244.35 467.497 188.535C453.483 132.72 400.496 136.734 351.078 87.1679C301.66 37.6017 296.028 16.9177 227.545 2.27706C159.062 -12.3636 84.1026 45.2755 65.3571 126.905C46.6116 208.535 73.0195 262.183 73.0195 262.183Z" fill="white"/>
<path d="M439.139 174.339C439.139 174.339 465.273 176.928 478.511 193.13C478.511 193.13 492.514 174.362 517.644 174.75C523.786 167.341 527.696 158.339 528.921 148.794C530.145 139.249 528.633 129.552 524.559 120.833C520.486 112.113 514.02 104.731 505.914 99.5438C497.808 94.3569 488.395 91.5794 478.772 91.5347C469.148 91.49 459.71 94.1799 451.556 99.2912C443.402 104.402 436.868 111.725 432.714 120.406C428.56 129.087 426.957 138.769 428.093 148.325C429.228 157.882 433.055 166.919 439.127 174.385L439.139 174.339Z" fill="black"/>
<path opacity="0.5" d="M439.139 174.339C439.139 174.339 465.273 176.928 478.511 193.13C478.511 193.13 492.514 174.362 517.644 174.75C523.786 167.341 527.696 158.339 528.921 148.794C530.145 139.249 528.633 129.552 524.559 120.833C520.486 112.113 514.02 104.731 505.914 99.5438C497.808 94.3569 488.395 91.5794 478.772 91.5347C469.148 91.49 459.71 94.1799 451.556 99.2912C443.402 104.402 436.868 111.725 432.714 120.406C428.56 129.087 426.957 138.769 428.093 148.325C429.228 157.882 433.055 166.919 439.127 174.385L439.139 174.339Z" fill="white"/>
<path d="M477.633 95.1154L476.755 264.487H481.168L477.633 95.1154Z" fill="#B8B8B8"/>
<path d="M478.967 188.193C478.967 188.193 487.781 172.309 503.665 167.452C503.665 167.452 486.903 171.431 478.58 185.103L478.967 188.193Z" fill="#B8B8B8"/>
<path d="M478.967 143.199C478.967 143.199 487.781 127.316 503.665 122.458C503.665 122.458 486.903 126.426 478.58 140.109L478.967 143.199Z" fill="#B8B8B8"/>
<path d="M478.967 165.673C478.967 165.673 487.781 149.79 503.665 144.932C503.665 144.932 486.903 148.912 478.58 162.583L478.967 165.673Z" fill="#B8B8B8"/>
<path d="M477.656 154.659C477.656 154.659 469.139 138.787 453.814 133.929C453.814 133.929 469.994 137.897 478.078 151.58L477.656 154.659Z" fill="#B8B8B8"/>
<path d="M477.656 176.722C477.656 176.722 469.139 160.839 453.814 155.993C453.814 155.993 469.994 159.961 478.078 173.632L477.656 176.722Z" fill="#B8B8B8"/>
<path d="M11.4009 174.339C11.4009 174.339 37.5351 176.928 50.7733 193.13C50.7733 193.13 64.7755 174.362 89.9063 174.75C96.0479 167.341 99.9584 158.339 101.183 148.794C102.407 139.249 100.894 129.552 96.8214 120.833C92.7484 112.113 86.2824 104.731 78.1762 99.5438C70.07 94.3569 60.6572 91.5794 51.0338 91.5347C41.4103 91.49 31.9721 94.1799 23.818 99.2912C15.664 104.402 9.12965 111.725 4.97576 120.406C0.821881 129.087 -0.780618 138.769 0.354851 148.325C1.49032 157.882 5.31704 166.919 11.3895 174.385L11.4009 174.339Z" fill="black"/>
<path opacity="0.5" d="M11.4009 174.339C11.4009 174.339 37.5351 176.928 50.7733 193.13C50.7733 193.13 64.7755 174.362 89.9063 174.75C96.0479 167.341 99.9584 158.339 101.183 148.794C102.407 139.249 100.894 129.552 96.8214 120.833C92.7484 112.113 86.2824 104.731 78.1762 99.5438C70.07 94.3569 60.6572 91.5794 51.0338 91.5347C41.4103 91.49 31.9721 94.1799 23.818 99.2912C15.664 104.402 9.12965 111.725 4.97576 120.406C0.821881 129.087 -0.780618 138.769 0.354851 148.325C1.49032 157.882 5.31704 166.919 11.3895 174.385L11.4009 174.339Z" fill="white"/>
<path d="M49.9182 95.1154L49.0288 264.487H53.4415L49.9182 95.1154Z" fill="#B8B8B8"/>
<path d="M51.2408 188.193C51.2408 188.193 60.0549 172.309 75.9384 167.452C75.9384 167.452 59.1769 171.431 50.8531 185.103L51.2408 188.193Z" fill="#B8B8B8"/>
<path d="M51.2408 143.199C51.2408 143.199 60.0549 127.316 75.9384 122.458C75.9384 122.458 59.1769 126.426 50.8531 140.109L51.2408 143.199Z" fill="#B8B8B8"/>
<path d="M51.2408 165.673C51.2408 165.673 60.0549 149.79 75.9384 144.932C75.9384 144.932 59.1769 148.912 50.8531 162.583L51.2408 165.673Z" fill="#B8B8B8"/>
<path d="M49.9297 154.659C49.9297 154.659 41.4121 138.787 26.0873 133.929C26.0873 133.929 42.2673 137.897 50.3516 151.58L49.9297 154.659Z" fill="#B8B8B8"/>
<path d="M49.9297 176.722C49.9297 176.722 41.4121 160.839 26.0873 155.993C26.0873 155.993 42.2673 159.961 50.3516 173.632L49.9297 176.722Z" fill="#B8B8B8"/>
<path d="M332.949 190.759C332.949 190.759 354.339 192.868 365.172 206.129C365.172 206.129 376.631 190.77 397.201 191.078C402.225 185.013 405.423 177.646 406.423 169.834C407.423 162.022 406.183 154.087 402.848 146.952C399.513 139.817 394.219 133.777 387.585 129.534C380.95 125.29 373.246 123.019 365.37 122.984C357.495 122.949 349.771 125.152 343.099 129.336C336.427 133.52 331.08 139.514 327.682 146.619C324.284 153.723 322.974 161.647 323.904 169.468C324.834 177.288 327.967 184.684 332.937 190.793L332.949 190.759Z" fill="black"/>
<path opacity="0.5" d="M332.949 190.759C332.949 190.759 354.339 192.868 365.172 206.129C365.172 206.129 376.631 190.77 397.201 191.078C402.225 185.013 405.423 177.646 406.423 169.834C407.423 162.022 406.183 154.087 402.848 146.952C399.513 139.817 394.219 133.777 387.585 129.534C380.95 125.29 373.246 123.019 365.37 122.984C357.495 122.949 349.771 125.152 343.099 129.336C336.427 133.52 331.08 139.514 327.682 146.619C324.284 153.723 322.974 161.647 323.904 169.468C324.834 177.288 327.967 184.684 332.937 190.793L332.949 190.759Z" fill="white"/>
<path d="M364.465 125.856L363.746 264.487H367.361L364.465 125.856Z" fill="#B8B8B8"/>
<path d="M365.548 202.047C365.548 202.047 372.777 189.048 385.764 185.069C385.764 185.069 372.081 188.319 365.24 199.516L365.548 202.047Z" fill="#B8B8B8"/>
<path d="M365.548 165.217C365.548 165.217 372.777 152.219 385.764 148.25C385.764 148.25 372.081 151.5 365.24 162.686L365.548 165.217Z" fill="#B8B8B8"/>
<path d="M365.548 183.632C365.548 183.632 372.777 170.633 385.764 166.654C385.764 166.654 372.081 169.904 365.24 181.101L365.548 183.632Z" fill="#B8B8B8"/>
<path d="M364.476 174.601C364.476 174.601 357.509 161.603 344.967 157.635C344.967 157.635 358.205 160.884 364.83 172.07L364.476 174.601Z" fill="#B8B8B8"/>
<path d="M364.476 192.652C364.476 192.652 357.509 179.653 344.967 175.685C344.967 175.685 358.205 178.934 364.83 190.132L364.476 192.652Z" fill="#B8B8B8"/>
<path d="M125.984 190.759C125.984 190.759 147.374 192.868 158.207 206.129C158.207 206.129 169.609 190.77 190.236 191.078C195.26 185.013 198.458 177.646 199.458 169.834C200.458 162.022 199.218 154.087 195.883 146.952C192.548 139.817 187.254 133.777 180.62 129.534C173.985 125.29 166.281 123.019 158.406 122.984C150.53 122.949 142.806 125.152 136.134 129.336C129.462 133.52 124.115 139.514 120.717 146.619C117.319 153.723 116.009 161.647 116.939 169.468C117.869 177.288 121.002 184.684 125.972 190.793L125.984 190.759Z" fill="black"/>
<path opacity="0.5" d="M125.984 190.759C125.984 190.759 147.374 192.868 158.207 206.129C158.207 206.129 169.609 190.77 190.236 191.078C195.26 185.013 198.458 177.646 199.458 169.834C200.458 162.022 199.218 154.087 195.883 146.952C192.548 139.817 187.254 133.777 180.62 129.534C173.985 125.29 166.281 123.019 158.406 122.984C150.53 122.949 142.806 125.152 136.134 129.336C129.462 133.52 124.115 139.514 120.717 146.619C117.319 153.723 116.009 161.647 116.939 169.468C117.869 177.288 121.002 184.684 125.972 190.793L125.984 190.759Z" fill="white"/>
<path d="M157.5 125.856L156.781 264.487H160.396L157.5 125.856Z" fill="#B8B8B8"/>
<path d="M158.64 202.047C158.64 202.047 165.869 189.048 178.856 185.069C178.856 185.069 165.174 188.319 158.332 199.516L158.64 202.047Z" fill="#B8B8B8"/>
<path d="M158.64 165.217C158.64 165.217 165.869 152.219 178.856 148.25C178.856 148.25 165.174 151.5 158.332 162.686L158.64 165.217Z" fill="#B8B8B8"/>
<path d="M158.64 183.632C158.64 183.632 165.869 170.633 178.856 166.654C178.856 166.654 165.174 169.904 158.332 181.101L158.64 183.632Z" fill="#B8B8B8"/>
<path d="M157.5 174.601C157.5 174.601 150.544 161.603 138.002 157.692C138.002 157.692 151.24 160.941 157.865 172.127L157.5 174.601Z" fill="#B8B8B8"/>
<path d="M157.5 192.652C157.5 192.652 150.533 179.653 137.99 175.685C137.99 175.685 151.229 178.934 157.853 190.132L157.5 192.652Z" fill="#B8B8B8"/>
<path d="M19.2686 265.091H511.328" stroke="#263238" stroke-width="1.19431" stroke-miterlimit="10"/>
<path d="M194.569 51.3301C194.569 42.5161 199.221 37.4762 207.716 37.4762C216.211 37.4762 220.874 42.5161 220.874 51.3301V79.9957C220.874 88.8098 216.222 93.8496 207.716 93.8496C199.21 93.8496 194.569 88.8098 194.569 79.9957V51.3301ZM203.235 80.543C203.235 84.4769 204.968 85.9706 207.716 85.9706C210.464 85.9706 212.208 84.4769 212.208 80.543V50.7828C212.208 46.849 210.475 45.3553 207.716 45.3553C204.957 45.3553 203.235 46.849 203.235 50.7828V80.543Z" fill="#263238"/>
<path d="M227.408 51.3301C227.408 42.5161 232.049 37.4762 240.555 37.4762C249.061 37.4762 253.702 42.5161 253.702 51.3301V79.9957C253.702 88.8098 249.05 93.8496 240.555 93.8496C232.06 93.8496 227.408 88.8098 227.408 79.9957V51.3301ZM236.062 80.543C236.062 84.4769 237.795 85.9706 240.555 85.9706C243.314 85.9706 245.036 84.4769 245.036 80.543V50.7828C245.036 46.849 243.303 45.3553 240.555 45.3553C237.807 45.3553 236.062 46.849 236.062 50.7828V80.543Z" fill="#263238"/>
<path d="M286.609 51.7291V58.8898C286.609 67.7153 282.356 72.5727 273.701 72.5727H269.608V93.2795H260.942V38.1147H273.701C282.356 38.1147 286.609 42.9151 286.609 51.7291ZM269.608 46.0279V64.6823H273.701C276.449 64.6823 277.943 63.428 277.943 59.4942V51.2274C277.943 47.2822 276.449 46.0279 273.701 46.0279H269.608Z" fill="#263238"/>
<path d="M304.328 37.4762C312.743 37.4762 317.076 42.5161 317.076 51.3301V53.0633H308.889V50.7828C308.889 46.849 307.316 45.3553 304.556 45.3553C301.797 45.3553 300.224 46.849 300.224 50.7828C300.224 62.1168 317.156 64.249 317.156 79.9957C317.156 88.8098 312.743 93.8496 304.249 93.8496C295.754 93.8496 291.33 88.8098 291.33 79.9957V76.575H299.517V80.5088C299.517 84.4427 301.25 85.868 304.009 85.868C306.769 85.868 308.49 84.4427 308.49 80.5088C308.49 69.1749 291.569 67.0426 291.569 51.2959C291.569 42.5275 295.902 37.4762 304.328 37.4762Z" fill="#263238"/>
<path d="M324.876 81.0105L323.735 61.1019V38.1147H332.401V61.1019L331.261 81.0105H324.876ZM332.276 84.8759V93.2225H323.975V84.8759H332.276Z" fill="#263238"/>
<path opacity="0.3" d="M153.611 320.119C153.611 323.54 132.597 326.265 106.656 326.265C80.7159 326.265 59.7013 323.517 59.7013 320.119C59.7013 316.721 80.7273 313.973 106.656 313.973C132.585 313.973 153.611 316.733 153.611 320.119Z" fill="black"/>
<path opacity="0.3" d="M251.912 320.119C251.912 323.54 230.886 326.265 204.957 326.265C179.027 326.265 158.001 323.517 158.001 320.119C158.001 316.721 179.027 313.973 204.957 313.973C230.886 313.973 251.912 316.733 251.912 320.119Z" fill="black"/>
<path opacity="0.3" d="M382.127 320.119C382.127 323.54 361.112 326.265 335.183 326.265C309.254 326.265 288.228 323.517 288.228 320.119C288.228 316.721 309.243 313.973 335.183 313.973C361.124 313.973 382.127 316.733 382.127 320.119Z" fill="black"/>
<path opacity="0.3" d="M490.906 320.119C490.906 323.54 469.88 326.265 443.951 326.265C418.022 326.265 396.95 323.517 396.95 320.119C396.95 316.721 417.976 313.973 443.905 313.973C469.834 313.973 490.906 316.733 490.906 320.119Z" fill="black"/>
<path d="M340.257 140.326C340.257 140.326 338.33 148.308 338.33 149.653C338.329 150.485 338.237 151.315 338.057 152.127C338.057 152.127 333.94 157.065 334.488 158.433C335.153 159.497 336.106 160.351 337.236 160.896C337.236 160.896 339.425 168.878 341.626 169.402C343.886 169.824 346.171 170.098 348.467 170.223L349.288 176.802L360.257 175.16L357.521 165.286L358.661 156.78C358.661 156.78 360.576 153.222 358.661 147.464C356.745 141.706 352.629 141.432 349.881 141.432C346.656 141.228 343.444 140.859 340.257 140.326V140.326Z" fill="white" stroke="#263238" stroke-width="1.19431" stroke-linecap="round" stroke-linejoin="round"/>
<path d="M345.194 136.221C345.194 136.221 335.594 135.936 335.867 138.41C336.141 140.885 346.015 144.112 346.015 144.112C346.015 144.112 342.72 146.301 344.362 148.502C346.004 150.702 349.847 152.618 349.847 152.618C349.847 152.618 348.706 157.281 350.405 157.555C352.104 157.829 353.142 155.354 353.416 154.533C353.689 153.712 356.711 153.986 357.532 156.175C357.996 157.313 358.273 158.518 358.353 159.744C358.353 159.744 361.648 149.87 362.195 145.48C362.743 141.09 350.405 136.221 345.194 136.221Z" fill="#263238" stroke="#263238" stroke-width="1.19431" stroke-linecap="round" stroke-linejoin="round"/>
<path d="M351.272 157.692C351.272 157.692 354.59 150.394 356.574 153.986C358.558 157.578 357.714 161.318 355.765 161.717C353.815 162.116 352.184 162.504 352.184 162.504" fill="white"/>
<path d="M351.272 157.692C351.272 157.692 354.59 150.394 356.574 153.986C358.558 157.578 357.714 161.318 355.765 161.717C353.815 162.116 352.184 162.504 352.184 162.504" stroke="#263238" stroke-width="1.19431" stroke-linecap="round" stroke-linejoin="round"/>
<path d="M337.783 233.849C337.247 234.476 328.456 253.324 327.361 259.629C326.267 265.935 319.14 303.517 318.855 305.159C318.57 306.801 303.508 310.096 302.401 310.37C301.295 310.644 303.542 313.665 306.791 314.486C310.041 315.307 319.414 319.15 321.615 316.949C323.815 314.749 326.825 302.411 327.646 301.043C328.467 299.675 343.906 263.301 343.906 263.301C343.906 263.301 351.819 245.844 353.461 244.191C355.103 242.537 351.512 235.228 350.132 233.028C348.752 230.827 341.626 229.459 337.783 233.849Z" fill="#263238" stroke="#263238" stroke-width="1.19431" stroke-linecap="round" stroke-linejoin="round"/>
<path d="M336.141 234.088C336.141 234.088 339.984 252.469 341.899 259.048C343.692 264.574 346.389 269.764 349.881 274.407C352.082 277.428 362.777 304.053 362.777 304.053L364.419 308.169C364.419 308.169 363.872 309.811 360.862 312C357.851 314.19 349.334 317.759 351.534 318.591C353.735 319.423 362.503 319.412 366.62 319.138C370.164 318.887 373.486 317.322 375.935 314.748C377.589 312.821 373.199 307.337 373.199 306.242C373.199 305.148 363.598 271.693 363.051 270.04C362.503 268.386 359.755 256.608 359.755 256.608V243.21C359.755 243.21 361.135 240.747 361.135 235.228C361.135 229.709 357.019 228.638 357.019 228.638L334.522 230.838L336.141 234.088Z" fill="#263238" stroke="#263238" stroke-width="1.19431" stroke-linecap="round" stroke-linejoin="round"/>
<path d="M334.237 232.48C334.237 232.48 334.796 237.144 336.438 237.417C338.08 237.691 355.081 242.355 362.492 236.87C362.492 236.87 363.86 232.754 363.039 231.659C362.218 230.564 360.291 231.112 350.428 231.112C340.565 231.112 334.237 231.112 334.237 232.48Z" fill="black" stroke="#263238" stroke-width="1.19431" stroke-linecap="round" stroke-linejoin="round"/>
<path d="M359.448 171.044C359.448 171.044 349.3 172.412 344.91 176.745C340.52 181.078 336.688 189.094 334.773 196.494C332.857 203.894 331.478 231.055 334.214 232.423C336.951 233.791 359.995 235.171 363.86 233.563C367.726 231.956 363.587 219.025 363.587 214.088C363.587 209.151 367.977 192.424 367.156 183.108C366.335 173.792 359.448 171.044 359.448 171.044Z" fill="black" stroke="#263238" stroke-width="1.19431" stroke-linecap="round" stroke-linejoin="round"/>
<path d="M322.834 199.55C322.709 188.262 318.102 178.627 311.979 174.465V172.184L295.104 172.355C285.606 172.458 278 184.898 278.194 200.063C278.388 215.228 286.176 227.509 295.685 227.429L312.561 227.258V224.977C318.49 220.565 322.891 210.838 322.834 199.55Z" fill="#263238" stroke="#263238" stroke-width="1.19431" stroke-linecap="round" stroke-linejoin="round"/>
<path d="M330.406 199.47C330.28 187.612 325.708 177.486 319.277 173.085V170.656L312.048 170.736C302.059 170.839 294.112 183.872 294.283 199.847C294.454 215.821 302.675 228.683 312.664 228.581L319.893 228.501V226.083C326.176 221.545 330.531 211.283 330.406 199.47Z" fill="white" stroke="#263238" stroke-width="1.19431" stroke-linecap="round" stroke-linejoin="round"/>
<path d="M337.658 199.39C337.829 215.354 329.87 228.398 319.893 228.501C309.916 228.603 301.649 215.741 301.512 199.778C301.375 183.815 309.3 170.77 319.277 170.656C329.254 170.542 337.464 183.416 337.658 199.39Z" fill="#737373" stroke="#263238" stroke-width="1.19431" stroke-linecap="round" stroke-linejoin="round"/>
<path d="M333.507 198.9C333.587 206.46 329.813 212.64 325.081 212.697C320.349 212.754 316.449 206.642 316.369 199.014C316.289 191.386 320.064 185.331 324.796 185.217C329.528 185.103 333.427 191.329 333.507 198.9Z" fill="#263238" stroke="#263238" stroke-width="1.19431" stroke-linecap="round" stroke-linejoin="round"/>
<path d="M467.873 255.752C468.814 248.724 469.214 241.634 469.07 234.544C465.364 236.254 443.745 236.881 441.761 236.927C439.777 236.973 418.158 236.254 414.453 234.544C414.29 241.632 414.671 248.723 415.593 255.752C417.087 265 430.222 302.023 430.519 303.813C430.903 305.54 431.402 307.239 432.012 308.899C432.012 308.899 424.544 314.269 421.26 316.356C417.976 318.443 420.371 319.344 423.654 319.344C426.938 319.344 433.803 318.443 435.889 318.443C437.736 318.443 440.952 316.835 441.704 316.447C442.457 316.835 445.672 318.443 447.508 318.443C449.606 318.443 456.471 319.344 459.754 319.344C463.038 319.344 465.456 318.443 462.149 316.356C458.842 314.269 451.396 308.899 451.396 308.899C452.007 307.239 452.506 305.54 452.89 303.813C453.244 301.989 466.379 264.966 467.873 255.752Z" fill="#263238" stroke="#263238" stroke-width="1.19431" stroke-linecap="round" stroke-linejoin="round"/>
<path d="M437.246 176.494C437.246 176.494 425.695 180.269 419.732 184.054C413.769 187.84 407.782 208.341 407.782 209.139C407.439 210.568 406.974 211.964 406.391 213.313C406.391 213.313 400.416 211.922 399.23 216.893C398.045 221.865 405.194 228.238 408.979 228.444C412.765 228.649 413.951 227.452 413.951 227.452C413.951 227.452 411.568 232.229 412.56 234.213C413.552 236.197 421.921 243.575 438.443 243.335C454.965 243.096 466.949 240.348 468.694 237.965C470.438 235.582 470.689 230.599 470.689 230.599C470.689 230.599 476.858 229.002 479.047 225.023C481.236 221.044 480.837 216.859 479.64 212.686C478.443 208.512 472.274 196.392 468.101 189.619C463.928 182.846 455.159 179.071 450.997 177.874C446.835 176.677 440.028 176.494 437.246 176.494Z" fill="black" stroke="#263238" stroke-width="1.19431" stroke-linecap="round" stroke-linejoin="round"/>
<path d="M440.747 193.256C442.4 192.709 447.588 188.102 449.583 183.495C450.373 181.732 450.929 179.873 451.237 177.965L450.975 177.885C446.801 176.688 440.028 176.494 437.292 176.494C437.292 176.494 434.874 177.281 431.682 178.501C431.701 180.966 432.165 183.407 433.05 185.708C434.852 190.314 439.139 193.815 440.747 193.256Z" fill="white" stroke="#263238" stroke-width="1.19431" stroke-linecap="round" stroke-linejoin="round"/>
<path d="M459.732 202.56C459.732 202.56 464.509 228.045 469.925 230.667" stroke="#263238" stroke-width="1.19431" stroke-linecap="round" stroke-linejoin="round"/>
<path d="M413.951 227.452C413.951 227.452 419.926 204.955 420.325 202.766" stroke="#263238" stroke-width="1.19431" stroke-linecap="round" stroke-linejoin="round"/>
<path d="M467.451 214.077C467.451 214.077 464.144 214.818 464.144 217.212" stroke="#263238" stroke-width="1.19431" stroke-linecap="round" stroke-linejoin="round"/>
<path d="M411.271 214.442C411.271 214.442 414.954 216.836 414.59 220.519" stroke="#263238" stroke-width="1.19431" stroke-linecap="round" stroke-linejoin="round"/>
<path d="M435.946 318.466C437.793 318.466 441.009 316.858 441.761 316.47C442.514 316.858 445.729 318.466 447.565 318.466C449.663 318.466 456.528 319.366 459.811 319.366C463.095 319.366 465.513 318.466 462.206 316.379C459.344 314.566 453.346 310.279 451.818 309.184C448.295 312.399 441.328 311.601 441.328 311.601C439.917 311.389 438.519 311.092 437.143 310.712C435.057 310.108 432.069 308.922 432.069 308.922C432.069 308.922 424.601 314.292 421.317 316.379C418.033 318.466 420.428 319.366 423.711 319.366C426.995 319.366 433.86 318.466 435.946 318.466Z" fill="black" stroke="#263238" stroke-width="1.19431" stroke-linecap="round" stroke-linejoin="round"/>
<path d="M441.328 308.967V256.904" stroke="white" stroke-width="1.19431" stroke-linecap="round" stroke-linejoin="round"/>
<path d="M441.762 316.413L441.328 311.544V308.968" stroke="#263238" stroke-width="1.19431" stroke-linecap="round" stroke-linejoin="round"/>
<path d="M437.144 255.114H445.798" stroke="white" stroke-width="1.19431" stroke-linecap="round" stroke-linejoin="round"/>
<path d="M425.832 146.62C425.832 146.62 419.629 150.337 420.553 153.598C421.477 156.859 424.282 157.487 423.666 159.3C423.05 161.113 420.895 162.253 423.347 163.393C424.743 164.018 426.204 164.489 427.702 164.795C427.702 164.795 429.983 172.709 433.905 174.1C437.828 175.491 444.623 174.567 449.435 173.952C451.061 173.793 452.599 173.142 453.846 172.087C455.092 171.032 455.988 169.622 456.414 168.045C456.881 166.346 454.395 168.364 453.152 166.494C451.91 164.624 453.78 159.824 455.171 155.628C456.562 151.432 452.377 143.519 446.95 140.885C441.522 138.251 431.157 139.63 425.832 146.62Z" fill="#263238" stroke="#263238" stroke-width="1.19431" stroke-linecap="round" stroke-linejoin="round"/>
<path d="M436.254 173.655C435.465 176.258 434.93 178.931 434.658 181.637C434.452 185.058 437.246 188.809 440.233 188.604C443.221 188.398 445.798 182.435 446.197 179.482C446.596 176.529 445.205 168.536 445.205 168.536C445.205 168.536 440.644 168.741 438.831 170.326C437.766 171.26 436.891 172.39 436.254 173.655V173.655Z" fill="white" stroke="#263238" stroke-width="1.19431" stroke-linecap="round" stroke-linejoin="round"/>
<path d="M432.206 150.964C432.206 150.964 432.354 155.617 437.018 160.086C439.822 162.797 443.146 164.911 446.79 166.301C446.709 167.32 446.446 168.316 446.014 169.242C445.812 169.63 445.496 169.946 445.109 170.15C444.722 170.354 444.282 170.435 443.848 170.383H442.286C442.286 170.383 440.005 175.73 437.246 176.506C434.487 177.281 427.702 176.745 426.767 169.915C425.832 163.085 425.684 157.498 426.459 156.095C427.235 154.693 432.206 150.964 432.206 150.964Z" fill="white" stroke="#263238" stroke-width="1.19431" stroke-linecap="round" stroke-linejoin="round"/>
<path d="M480.997 211.055C481.704 209.629 482.134 208.081 482.263 206.494C482.263 204.419 478.409 201.443 477.702 200.702C476.995 199.961 476.288 200.04 476.14 201.078C476.138 201.66 476.255 202.237 476.484 202.772C476.714 203.308 477.05 203.791 477.474 204.191C478.051 204.646 478.471 205.273 478.671 205.981C478.739 206.494 477.394 209.014 478.067 210.645C478.739 212.275 480.632 212.765 480.997 211.055Z" fill="white" stroke="#263238" stroke-width="1.19431" stroke-linecap="round" stroke-linejoin="round"/>
<path d="M326.574 199.413C326.574 199.413 343.359 204.784 353.45 217.326C363.541 229.869 370.166 228.067 382.708 223.894C395.251 219.721 400.029 204.784 417.349 217.326C434.669 229.869 438.25 234.635 452.582 227.474C466.915 220.314 474.669 202.993 487.816 208.957C500.963 214.92 494.976 245.445 496.174 260.268C497.371 275.091 495.569 312.228 498.557 317.006C501.544 321.784 532 318.146 532 318.146" stroke="#263238" stroke-width="3.58293" stroke-linecap="round" stroke-linejoin="round"/>
<path d="M358.011 179.482C358.011 179.482 354.67 174.032 349.744 175.457C344.533 176.962 341.842 184.408 340.622 189.048C339.402 193.689 338.581 198.706 336.346 203.028C336.346 203.028 326.472 202.857 320.965 201.26C316.762 199.95 312.63 198.428 308.582 196.699C308.582 196.699 306.632 193.974 305.252 193.438C303.872 192.902 300.292 191.853 300.03 192.674C299.768 193.495 304.18 196.198 304.18 196.198C304.18 196.198 295.971 197.338 295.15 198.216C294.329 199.094 300.953 201.717 300.953 201.717C300.953 201.717 303.428 202.515 309.448 201.078C309.448 201.078 331.535 215.103 335.936 216.711C340.337 218.318 342.777 218.832 345.776 213.039C348.775 207.247 358.729 192.88 360.314 187.099" fill="black"/>
<path d="M358.011 179.482C358.011 179.482 354.67 174.032 349.744 175.457C344.533 176.962 341.842 184.408 340.622 189.048C339.402 193.689 338.581 198.706 336.346 203.028C336.346 203.028 326.472 202.857 320.965 201.26C316.762 199.95 312.63 198.428 308.582 196.699C308.582 196.699 306.632 193.974 305.252 193.438C303.872 192.902 300.292 191.853 300.03 192.674C299.768 193.495 304.18 196.198 304.18 196.198C304.18 196.198 295.971 197.338 295.15 198.216C294.329 199.094 300.953 201.717 300.953 201.717C300.953 201.717 303.428 202.515 309.448 201.078C309.448 201.078 331.535 215.103 335.936 216.711C340.337 218.318 342.777 218.832 345.776 213.039C348.775 207.247 358.729 192.88 360.314 187.099" stroke="#263238" stroke-width="1.19431" stroke-linecap="round" stroke-linejoin="round"/>
<path d="M314.317 199.025C311.09 197.817 308.616 196.745 308.616 196.745C308.616 196.745 306.666 194.02 305.286 193.484C303.907 192.948 300.326 191.899 300.064 192.72C299.802 193.541 304.214 196.243 304.214 196.243C304.214 196.243 296.005 197.384 295.184 198.262C294.363 199.139 300.988 201.762 300.988 201.762C300.988 201.762 303.462 202.56 309.482 201.123L312.572 203.073L314.317 199.025Z" fill="white" stroke="#263238" stroke-width="1.19431" stroke-linecap="round" stroke-linejoin="round"/>
<path d="M399.447 213.153C398.74 211.727 398.31 210.179 398.181 208.592C398.181 206.517 402.047 203.552 402.742 202.811C403.438 202.07 404.145 202.15 404.293 203.187C404.295 203.77 404.178 204.347 403.948 204.882C403.719 205.417 403.382 205.9 402.959 206.3C402.381 206.756 401.962 207.382 401.762 208.091C401.693 208.592 403.039 211.124 402.366 212.754C401.693 214.385 399.812 214.852 399.447 213.153Z" fill="white" stroke="#263238" stroke-width="1.19431" stroke-linecap="round" stroke-linejoin="round"/>
<path d="M402.104 206.893C402.104 206.893 398.923 212.765 400.77 214.875C402.617 216.984 404.407 210.131 404.749 208.239C405.091 206.346 403.278 204.442 402.104 206.893Z" fill="white" stroke="#263238" stroke-width="1.19431" stroke-linecap="round" stroke-linejoin="round"/>
<path d="M404.726 209.003C404.726 209.003 401.545 214.875 403.392 216.984C405.24 219.094 407.03 212.241 407.372 210.348C407.714 208.455 405.901 206.483 404.726 209.003Z" fill="white" stroke="#263238" stroke-width="1.19431" stroke-linecap="round" stroke-linejoin="round"/>
<path d="M407.611 209.493C407.611 209.493 404.43 215.365 406.277 217.475C408.124 219.584 409.915 212.731 410.257 210.838C410.599 208.946 408.786 207.03 407.611 209.493Z" fill="white" stroke="#263238" stroke-width="1.19431" stroke-linecap="round" stroke-linejoin="round"/>
<path d="M411.306 209.539C411.306 209.539 408.341 214.1 409.96 215.821C411.579 217.543 413.324 212.127 413.666 210.565C414.008 209.003 412.4 207.486 411.306 209.539Z" fill="white" stroke="#263238" stroke-width="1.19431" stroke-linecap="round" stroke-linejoin="round"/>
<path d="M478.876 207.121C478.876 207.121 482.057 212.993 480.21 215.103C478.363 217.212 476.573 210.348 476.231 208.455C475.889 206.562 477.702 204.658 478.876 207.121Z" fill="white" stroke="#263238" stroke-width="1.19431" stroke-linecap="round" stroke-linejoin="round"/>
<path d="M476.254 209.174C476.254 209.174 479.435 215.046 477.588 217.155C475.741 219.265 473.95 212.4 473.608 210.508C473.266 208.615 475.079 206.722 476.254 209.174Z" fill="white" stroke="#263238" stroke-width="1.19431" stroke-linecap="round" stroke-linejoin="round"/>
<path d="M473.346 209.721C473.346 209.721 476.527 215.593 474.68 217.703C472.833 219.812 471.043 212.959 470.712 211.055C470.382 209.151 472.206 207.258 473.346 209.721Z" fill="white" stroke="#263238" stroke-width="1.19431" stroke-linecap="round" stroke-linejoin="round"/>
<path d="M469.674 209.767C469.674 209.767 472.639 214.385 471.02 216.049C469.401 217.714 467.656 212.355 467.326 210.793C466.995 209.231 468.58 207.714 469.674 209.767Z" fill="white" stroke="#263238" stroke-width="1.19431" stroke-linecap="round" stroke-linejoin="round"/>
<path d="M77.3638 274.737V281.214C75.1163 283.67 73.5001 286.637 72.6546 289.857C71.2749 295.148 66.9534 317.918 68.0936 318.511C69.2339 319.104 79.9635 321.556 83.3843 321.043C87.3067 320.45 90.6476 320.655 88.675 318.488C86.7024 316.322 76.3376 310.267 76.3376 310.267C76.3376 310.267 87.74 293.779 90.2713 287.691C92.8026 281.602 93.2131 272.183 93.2131 272.183L77.9111 271.602L77.3638 274.737Z" fill="white" stroke="#263238" stroke-width="1.19431" stroke-linecap="round" stroke-linejoin="round"/>
<path d="M83.3841 321.043C87.3066 320.45 90.6475 320.655 88.6749 318.488C86.7022 316.322 76.3375 310.267 76.3375 310.267L75.9498 312.616L68.4812 311.704C67.9339 315.512 67.6944 318.306 68.0935 318.545C69.3136 319.093 79.9634 321.556 83.3841 321.043Z" fill="#263238" stroke="#263238" stroke-width="1.19431" stroke-linecap="round" stroke-linejoin="round"/>
<path d="M114.855 278.09L116.622 281.237C115.889 282.649 115.458 284.199 115.356 285.787C115.254 287.375 115.483 288.967 116.029 290.461C117.797 295.957 121.924 316.174 121.924 317.348C121.924 318.523 124.467 319.309 126.485 319.309C128.503 319.309 134.091 319.697 134.877 319.697C135.664 319.697 141.354 320.678 143.315 319.503C145.276 318.329 140.818 315.969 137.876 314.6C134.934 313.232 128.458 309.697 128.458 309.697C128.458 309.697 130.02 293.597 130.02 286.528C130.02 279.458 131.593 277.109 129.438 272.788C127.283 268.466 113.737 274.76 113.737 274.76L114.855 278.09Z" fill="white" stroke="#263238" stroke-width="1.19431" stroke-linecap="round" stroke-linejoin="round"/>
<path d="M137.819 314.6C134.877 313.22 128.401 309.697 128.401 309.697L127.614 312.639L121.309 313.779C121.685 315.74 121.924 317.086 121.924 317.36C121.924 318.5 124.467 319.321 126.485 319.321C128.504 319.321 134.091 319.708 134.877 319.708C135.664 319.708 141.354 320.689 143.315 319.515C145.276 318.34 140.761 315.968 137.819 314.6Z" fill="#263238" stroke="#263238" stroke-width="1.19431" stroke-linecap="round" stroke-linejoin="round"/>
<path d="M104.285 147.43C102.746 144.8 100.988 142.305 99.0283 139.972C96.3259 136.928 87.8539 137.099 84.1367 141.113C80.4196 145.126 81.594 152.287 82.9965 154.317C84.399 156.346 87.2268 165.833 87.2268 165.833L87.8995 172.606L103.646 178.193L100.431 167.19C100.431 167.19 106.531 166.05 107.033 164.146C107.534 162.241 106.018 155.845 106.018 155.845C106.018 155.845 108.048 154.488 107.877 153.302C107.705 152.116 104.285 147.43 104.285 147.43Z" fill="white" stroke="#263238" stroke-width="1.19431" stroke-linecap="round" stroke-linejoin="round"/>
<path d="M86.1664 154.727C86.1664 154.727 88.8573 157.008 90.3282 154.396C91.7992 151.785 92.9166 149.231 92.9166 147.019C92.9166 144.807 87.3864 142.971 91.0694 141.489C94.7524 140.007 97.4091 143.302 99.0511 139.995C100.693 136.689 99.1993 136.335 90.3511 136.335C81.5028 136.335 77.0787 140.759 78.9487 146.289C80.4442 150.373 82.2947 154.318 84.4788 158.079L86.1664 154.727Z" fill="#263238" stroke="#263238" stroke-width="1.19431" stroke-linecap="round" stroke-linejoin="round"/>
<path d="M104.787 151.341C104.787 152.177 104.538 152.995 104.074 153.691C103.609 154.387 102.948 154.929 102.175 155.249C101.402 155.569 100.552 155.653 99.7309 155.49C98.9103 155.327 98.1566 154.924 97.5649 154.332C96.9733 153.74 96.5704 152.987 96.4072 152.166C96.244 151.345 96.3278 150.495 96.6479 149.722C96.9681 148.949 97.5103 148.288 98.206 147.823C98.9017 147.359 99.7195 147.11 100.556 147.11C101.678 147.11 102.754 147.556 103.547 148.35C104.341 149.143 104.787 150.219 104.787 151.341V151.341Z" stroke="#263238" stroke-width="1.19431" stroke-linecap="round" stroke-linejoin="round"/>
<path d="M104.171 147.589C104.663 147.388 105.189 147.283 105.721 147.281C106.602 147.283 107.458 147.577 108.154 148.117C108.85 148.657 109.347 149.412 109.567 150.265C109.787 151.118 109.719 152.02 109.371 152.829C109.024 153.639 108.418 154.31 107.648 154.739" stroke="#263238" stroke-width="1.19431" stroke-linecap="round" stroke-linejoin="round"/>
<path d="M96.3259 151.341L86.1664 154.727" stroke="#263238" stroke-width="1.19431" stroke-linecap="round" stroke-linejoin="round"/>
<path d="M89.0854 156.928C89.0854 156.928 87.0557 152.698 85.0261 153.507C82.9965 154.317 84.0113 160.964 86.0409 161.637C86.723 161.791 87.4319 161.779 88.1083 161.602C88.7848 161.425 89.4091 161.09 89.9291 160.622C89.9291 160.622 91.6281 164.18 93.6577 165.183" fill="white"/>
<path d="M89.0854 156.928C89.0854 156.928 87.0557 152.698 85.0261 153.507C82.9965 154.317 84.0113 160.964 86.0409 161.637C86.723 161.791 87.4319 161.779 88.1083 161.602C88.7848 161.425 89.4091 161.09 89.9291 160.622C89.9291 160.622 91.6281 164.18 93.6577 165.183" stroke="#263238" stroke-width="1.19431" stroke-linecap="round" stroke-linejoin="round"/>
<path d="M75.7674 232.948L74.5018 249.162L70.7162 273.164C70.7162 273.164 79.5644 280.108 87.8198 280.108C96.0751 280.108 98.3442 279.059 98.3442 279.059L102.974 254.43L107.603 280.325C107.603 280.325 116.725 278.854 122.768 277.371C126.97 276.202 130.953 274.353 134.558 271.898L122.346 240.108L119.701 223.712C119.701 223.712 106.018 224.977 97.7969 225.399C89.5757 225.821 78.6408 223.712 78.6408 223.712L75.7674 232.948Z" fill="black" stroke="#263238" stroke-width="1.19431" stroke-linecap="round" stroke-linejoin="round"/>
<path d="M84.4446 168.159C84.4446 168.159 103.829 174.921 109.815 181.489C113.122 185.137 116.827 210.109 118.162 216.209C119.496 222.309 121.822 234.453 121.822 234.453C121.822 234.453 109.997 239.789 100.853 239.983C91.7079 240.177 74.1597 235.981 74.1597 235.981C74.1597 235.981 76.2463 208.923 76.2463 196.346C76.2463 183.769 76.4401 175.559 78.5268 171.557C78.5382 171.591 81.9703 167.771 84.4446 168.159Z" fill="#263238" stroke="#263238" stroke-width="1.19431" stroke-linecap="round" stroke-linejoin="round"/>
<path d="M79.3479 237.942C79.3479 237.942 80.3969 255.627 79.3479 262.161C78.6112 266.376 77.3391 270.48 75.5623 274.373" stroke="#263238" stroke-width="1.19431" stroke-linecap="round" stroke-linejoin="round"/>
<path d="M79.7695 246.368C81.3528 245.824 82.7674 244.879 83.8749 243.623C84.9823 242.368 85.7444 240.846 86.0865 239.208" stroke="#263238" stroke-width="1.19431" stroke-linecap="round" stroke-linejoin="round"/>
<path d="M71.7653 269.743C71.7653 269.743 82.3011 278.797 98.7205 275.444" stroke="#263238" stroke-width="1.19431" stroke-linecap="round" stroke-linejoin="round"/>
<path d="M107.147 275C107.147 275 124.41 273.107 131.993 268.056" stroke="#263238" stroke-width="1.19431" stroke-linecap="round" stroke-linejoin="round"/>
<path d="M184.364 159.972C184.364 159.972 182.699 161.204 176.895 165.446C171.091 169.687 175.664 176.095 175.664 176.095C175.664 176.095 171.513 176.745 165.972 182.572C160.43 188.399 168.446 198.398 175.937 199.961C183.429 201.523 192.186 192.253 194.808 183.655C197.431 175.058 193.965 162.093 192.22 159.414C190.475 156.734 184.364 159.972 184.364 159.972Z" fill="#263238" stroke="#263238" stroke-width="1.19431" stroke-linecap="round" stroke-linejoin="round"/>
<path d="M206.348 158.832C206.348 158.832 209.233 154.374 206.621 147.909C204.01 141.443 196.211 138.49 188.617 143.177C186.086 144.683 184.123 146.982 183.032 149.718C181.941 152.454 181.784 155.473 182.585 158.308C183.326 161.295 187.066 165.89 187.853 165.959C188.64 166.027 195.47 168.513 200.133 166.335C204.797 164.157 206.348 158.832 206.348 158.832Z" fill="#263238" stroke="#263238" stroke-width="1.19431" stroke-linecap="round" stroke-linejoin="round"/>
<path d="M172.79 309.344C172.79 309.344 178.206 317.77 187.613 319.207C197.02 320.643 188.56 312.206 186.975 310.929C185.39 309.652 174.067 306.892 172.79 309.344Z" fill="#737373" stroke="#263238" stroke-width="1.19431" stroke-linecap="round" stroke-linejoin="round"/>
<path d="M222.904 311.51C222.904 311.51 233.246 314.053 232.448 316.288C231.65 318.523 223.223 318.352 218.297 317.075C213.372 315.797 208.742 313.893 209.381 311.829C210.019 309.766 222.904 311.51 222.904 311.51Z" fill="#737373" stroke="#263238" stroke-width="1.19431" stroke-linecap="round" stroke-linejoin="round"/>
<path d="M193.497 175.594C193.497 175.594 179.655 177.623 177.123 182.515C174.592 187.407 178.161 214.054 178.161 214.054C178.161 214.054 172.254 227.087 172.175 235.479C172.095 243.871 175.835 258.637 175.538 262.32C175.242 266.003 171.456 307.93 171.456 309.07C171.456 310.21 179.438 312.764 190.943 314.133C202.448 315.501 224.455 311.408 224.455 311.408C224.455 311.408 224.021 286.664 225.173 271.91C226.325 257.155 224.683 243.894 221.752 238.387C218.822 232.879 205.173 213.05 205.173 213.05C205.173 213.05 211.787 201.055 212.197 195.81C212.608 190.565 210.475 187.828 205.481 181.797C203.997 180.017 202.172 178.552 200.114 177.487C198.057 176.422 195.807 175.778 193.497 175.594V175.594Z" fill="black" stroke="#263238" stroke-width="1.19431" stroke-linecap="round" stroke-linejoin="round"/>
<path d="M205.207 213.062C205.207 213.062 211.821 201.067 212.231 195.822C212.642 190.576 210.51 187.84 205.515 181.808C205.276 181.511 205.025 181.249 204.774 180.976L204.592 181.147C199.461 189.527 182.494 203.849 177.443 208.022C177.83 211.591 178.161 214.054 178.161 214.054C178.161 214.054 172.254 227.087 172.175 235.479C172.269 239.303 172.65 243.114 173.315 246.881C185.299 240.04 201.331 227.235 210.008 220.097C207.294 216.084 205.207 213.062 205.207 213.062Z" fill="#737373" stroke="#263238" stroke-width="1.19431" stroke-linecap="round" stroke-linejoin="round"/>
<path d="M190.943 165.81C191.326 168.94 191.535 172.088 191.57 175.24C191.388 177.578 192.14 182.914 196.131 184.59C200.122 186.266 202.631 183.929 202.619 181.58C202.474 179.64 202.091 177.725 201.479 175.879L201.593 169.436C201.593 169.436 194.706 165.126 190.943 165.81Z" fill="white" stroke="#263238" stroke-width="1.19431" stroke-linecap="round" stroke-linejoin="round"/>
<path d="M187.363 161.626C187.363 161.626 184.432 159.049 184.341 162.766C184.25 166.483 187.671 167.714 188.423 167.965C189.058 168.052 189.703 167.893 190.225 167.521C190.225 167.521 195.538 172.082 199.803 172.378C204.067 172.675 205.8 170.702 206.804 162.96C207.807 155.217 199.814 147.361 199.814 147.361C199.814 147.361 192.973 159.972 187.363 161.626Z" fill="white" stroke="#263238" stroke-width="1.19431" stroke-linecap="round" stroke-linejoin="round"/>
<path d="M122.152 234.293C122.114 232.972 122.33 231.655 122.791 230.416C123.498 228.866 127.352 227.976 128.207 227.68C129.062 227.383 129.496 227.68 129.245 228.489C129.045 228.924 128.759 229.315 128.405 229.636C128.05 229.958 127.634 230.204 127.181 230.359C126.591 230.501 126.061 230.824 125.664 231.283C125.448 231.648 125.584 233.985 124.524 234.977C123.464 235.969 121.799 235.696 122.152 234.293Z" fill="white" stroke="#263238" stroke-width="1.19431" stroke-linecap="round" stroke-linejoin="round"/>
<path d="M209.54 200.006C209.54 200.006 195.857 198.216 189.826 207.771C183.794 217.326 172.517 250.758 151.616 256.14C130.716 261.522 124.741 218.512 112.198 219.71C100.248 220.85 91.9018 219.71 84.7297 232.845C80.8985 239.88 61.7424 316.698 52.6889 317.485C23.8523 320.005 5.28918 318.363 5.28918 318.363" stroke="#263238" stroke-width="3.58293" stroke-linecap="round" stroke-linejoin="round"/>
<path d="M85.3339 168.707C85.3339 168.707 82.1754 167.441 77.9565 169.961C73.7377 172.481 62.3809 200.075 63.2247 203.028C64.0684 205.981 76.0637 211.454 82.8026 213.347C89.5414 215.24 101.753 217.566 101.753 217.566C101.753 217.566 105.539 223.461 106.805 223.666C108.645 223.641 110.479 223.431 112.278 223.039C112.278 223.039 114.558 224.932 115.436 222.822C116.314 220.713 114.592 217.988 112.7 215.878C110.807 213.769 102.802 212.72 102.802 212.72L81.1036 197.76L90.2255 180.918" fill="#263238"/>
<path d="M85.3339 168.707C85.3339 168.707 82.1754 167.441 77.9565 169.961C73.7377 172.481 62.3809 200.075 63.2247 203.028C64.0684 205.981 76.0637 211.454 82.8026 213.347C89.5414 215.24 101.753 217.566 101.753 217.566C101.753 217.566 105.539 223.461 106.805 223.666C108.645 223.641 110.479 223.431 112.278 223.039C112.278 223.039 114.558 224.932 115.436 222.822C116.314 220.713 114.592 217.988 112.7 215.878C110.807 213.769 102.802 212.72 102.802 212.72L81.1036 197.76L90.2255 180.918" stroke="#263238" stroke-width="1.19431" stroke-linecap="round" stroke-linejoin="round"/>
<path d="M106.805 223.655C108.645 223.63 110.479 223.42 112.278 223.028C112.278 223.028 114.558 224.92 115.436 222.811C116.314 220.701 114.592 217.976 112.7 215.867C110.807 213.757 102.802 212.708 102.802 212.708L81.1036 197.76L84.3419 191.728C76.2348 186.677 70.8529 187.053 67.9452 188.068C65.0376 195.046 62.8256 201.659 63.2133 203.016C64.057 205.97 76.0524 211.443 82.7912 213.336C89.53 215.228 101.742 217.554 101.742 217.554C101.742 217.554 105.539 223.449 106.805 223.655Z" fill="white" stroke="#263238" stroke-width="1.19431" stroke-linecap="round" stroke-linejoin="round"/>
<path d="M242.436 200.474C241.513 190.519 236.735 182.344 231.034 179.094L230.852 177.064L215.96 178.444C207.579 179.219 201.798 190.725 203.041 204.134C204.284 217.543 212.083 227.771 220.464 226.939L235.355 225.559L235.162 223.529C240.179 219.333 243.36 210.428 242.436 200.474Z" fill="#263238" stroke="#263238" stroke-width="1.19431" stroke-linecap="round" stroke-linejoin="round"/>
<path d="M249.175 199.881C248.206 189.425 243.474 180.816 237.442 177.395L237.237 175.263L230.863 175.856C222.06 176.677 215.983 188.752 217.283 202.845C218.583 216.939 226.792 227.691 235.595 226.87L241.969 226.277L241.775 224.145C247.043 219.652 250.144 210.302 249.175 199.881Z" fill="white" stroke="#263238" stroke-width="1.19431" stroke-linecap="round" stroke-linejoin="round"/>
<path d="M255.56 199.254C256.872 213.347 250.794 225.422 241.98 226.243C233.166 227.064 224.968 216.3 223.634 202.218C222.299 188.136 228.4 175.993 237.202 175.229C246.005 174.465 254.238 185.172 255.56 199.254Z" fill="white" stroke="#263238" stroke-width="1.19431" stroke-linecap="round" stroke-linejoin="round"/>
<path d="M262.402 191.021L237.67 193.301C237.323 193.334 236.973 193.299 236.64 193.196C236.308 193.093 235.998 192.926 235.73 192.704C235.462 192.481 235.241 192.208 235.079 191.9C234.916 191.591 234.817 191.254 234.785 190.907V190.907C234.752 190.56 234.788 190.21 234.891 189.877C234.993 189.545 235.161 189.235 235.383 188.967C235.606 188.699 235.879 188.478 236.187 188.316C236.495 188.153 236.833 188.054 237.18 188.022L261.911 185.742C262.258 185.709 262.608 185.745 262.941 185.847C263.274 185.95 263.583 186.117 263.851 186.34C264.119 186.562 264.341 186.835 264.503 187.144C264.665 187.452 264.765 187.789 264.796 188.136V188.136C264.829 188.483 264.793 188.833 264.691 189.166C264.588 189.499 264.421 189.808 264.198 190.076C263.976 190.344 263.703 190.566 263.394 190.728C263.086 190.89 262.749 190.99 262.402 191.021V191.021Z" fill="#737373" stroke="#263238" stroke-width="1.19431" stroke-linecap="round" stroke-linejoin="round"/>
<path d="M264.238 210.622L239.506 212.902C239.159 212.935 238.809 212.899 238.476 212.797C238.143 212.694 237.834 212.527 237.566 212.304C237.298 212.082 237.076 211.809 236.914 211.5C236.752 211.192 236.652 210.855 236.621 210.508V210.508C236.588 210.161 236.624 209.811 236.727 209.478C236.829 209.145 236.996 208.836 237.219 208.568C237.441 208.3 237.715 208.078 238.023 207.916C238.331 207.754 238.669 207.654 239.016 207.623L263.747 205.342C264.446 205.282 265.141 205.499 265.681 205.948C266.221 206.396 266.563 207.039 266.632 207.737V207.737C266.665 208.084 266.629 208.434 266.527 208.767C266.424 209.099 266.257 209.409 266.034 209.677C265.812 209.945 265.538 210.166 265.23 210.328C264.922 210.491 264.585 210.59 264.238 210.622V210.622Z" fill="#737373" stroke="#263238" stroke-width="1.19431" stroke-linecap="round" stroke-linejoin="round"/>
<path d="M184.945 177.452C184.945 177.452 178.993 178.593 176.177 182.013C173.361 185.434 167.58 211.831 168.914 214.864C170.248 217.897 191.627 221.705 198.229 222.252C203.538 222.462 208.855 222.226 214.124 221.545C214.124 221.545 219.825 221.397 221.387 221.135C222.95 220.873 225.823 219.333 225.869 218.752C225.914 218.17 225.629 216.779 223.497 216.608C221.365 216.437 216.792 214.909 216.211 214.864C217.581 214.503 218.97 214.221 220.373 214.02C220.373 214.02 220.669 212.88 218.32 212.88C215.971 212.88 213.839 212.72 212.95 214.02C212.314 215.032 211.772 216.101 211.331 217.212C211.331 217.212 198.161 218.136 191.012 214.647C183.862 211.158 181.605 209.995 181.605 209.995L186.736 189.47" fill="black"/>
<path d="M184.945 177.452C184.945 177.452 178.993 178.593 176.177 182.013C173.361 185.434 167.58 211.831 168.914 214.864C170.248 217.897 191.627 221.705 198.229 222.252C203.538 222.462 208.855 222.226 214.124 221.545C214.124 221.545 219.825 221.397 221.387 221.135C222.95 220.873 225.823 219.333 225.869 218.752C225.914 218.17 225.629 216.779 223.497 216.608C221.365 216.437 216.792 214.909 216.211 214.864C217.581 214.503 218.97 214.221 220.373 214.02C220.373 214.02 220.669 212.88 218.32 212.88C215.971 212.88 213.839 212.72 212.95 214.02C212.314 215.032 211.772 216.101 211.331 217.212C211.331 217.212 198.161 218.136 191.012 214.647C183.862 211.158 181.605 209.995 181.605 209.995L186.736 189.47" stroke="#263238" stroke-width="1.19431" stroke-linecap="round" stroke-linejoin="round"/>
<path d="M221.353 221.169C222.938 220.907 225.789 219.367 225.834 218.786C225.88 218.204 225.595 216.813 223.463 216.642C221.33 216.471 216.758 214.943 216.177 214.898C217.547 214.537 218.936 214.256 220.338 214.054C220.338 214.054 220.635 212.914 218.286 212.914C215.937 212.914 213.805 212.754 212.916 214.054C212.28 215.067 211.738 216.135 211.296 217.247C211.296 217.247 198.127 218.17 190.977 214.681C183.828 211.192 181.57 210.029 181.57 210.029L184.695 197.486C180.628 195.813 176.336 194.748 171.958 194.328C169.826 202.925 168.081 213.05 168.879 214.852C170.202 217.885 191.593 221.693 198.195 222.241C203.504 222.451 208.821 222.214 214.09 221.534C214.09 221.534 219.803 221.431 221.353 221.169Z" fill="white" stroke="#263238" stroke-width="1.19431" stroke-linecap="round" stroke-linejoin="round"/>
<path d="M125.049 232.081C125.049 232.081 120.647 235.376 121.32 237.554C121.993 239.732 125.664 235.274 126.576 233.963C127.489 232.651 126.77 230.667 125.049 232.081Z" fill="white" stroke="#263238" stroke-width="1.19431" stroke-linecap="round" stroke-linejoin="round"/>
<path d="M125.915 235.034C125.915 235.034 121.525 238.33 122.187 240.508C122.848 242.685 126.542 238.227 127.443 236.916C128.344 235.604 127.637 233.598 125.915 235.034Z" fill="white" stroke="#263238" stroke-width="1.19431" stroke-linecap="round" stroke-linejoin="round"/>
<path d="M128.002 236.95C128.002 236.95 123.612 240.245 124.285 242.423C124.957 244.601 128.629 240.143 129.541 238.831C130.453 237.52 129.735 235.513 128.002 236.95Z" fill="white" stroke="#263238" stroke-width="1.19431" stroke-linecap="round" stroke-linejoin="round"/>
<path d="M129.724 238.501C129.724 238.501 125.927 240.941 126.565 242.742C127.204 244.544 130.339 241.135 131.126 240.086C131.913 239.037 131.274 237.349 129.724 238.501Z" fill="white" stroke="#263238" stroke-width="1.19431" stroke-linecap="round" stroke-linejoin="round"/>
</svg>
