<svg width="321" height="300" viewBox="0 0 321 300" fill="none" xmlns="http://www.w3.org/2000/svg">
<path d="M312.634 79.0207C312.634 79.0207 284.968 25.6369 227.356 7.68983C169.744 -10.2573 143.162 9.96075 113.674 31.865C90.4815 49.1004 72.3395 73.1569 53.3502 94.6206C35.9623 114.271 10.4568 130.21 2.44074 156.478C-7.72759 189.703 15.4477 223.589 42.8683 240.909C81.1351 265.084 118.165 246.722 158.109 238.155L158.33 238.104C164.093 236.827 169.946 235.992 175.836 235.604C222.204 232.969 255.531 265.525 289.239 227.978C322.947 190.432 328.2 120.931 312.634 79.0207Z" fill="black"/>
<path opacity="0.7" d="M312.634 79.0207C312.634 79.0207 284.968 25.6369 227.356 7.68983C169.744 -10.2573 143.162 9.96075 113.674 31.865C90.4815 49.1004 72.3395 73.1569 53.3502 94.6206C35.9623 114.271 10.4568 130.21 2.44074 156.478C-7.72759 189.703 15.4477 223.589 42.8683 240.909C81.1351 265.084 118.165 246.722 158.109 238.155L158.33 238.104C164.093 236.827 169.946 235.992 175.836 235.604C222.204 232.969 255.531 265.525 289.239 227.978C322.947 190.432 328.2 120.931 312.634 79.0207Z" fill="white"/>
<path d="M147.966 84.7573C144.433 82.8337 142.823 84.4353 141.543 82.8337C140.264 81.2322 145.077 77.0463 135.434 72.8688C135.434 72.8688 134.79 63.8783 121.622 63.5478C108.454 63.2173 111.988 72.5383 108.42 74.8008C104.853 77.0632 103.921 73.5128 100.387 75.7583C96.8537 78.0038 98.4552 82.5372 95.5657 83.1473C92.6762 83.7574 88.7868 80.2578 85.2872 82.5118C81.7876 84.7657 81.7537 86.6808 80.1437 86.6808C78.5337 86.6808 75.3222 85.4013 73.3648 86.6808C71.4074 87.9603 69.1873 89.5787 69.1873 89.5787H150.534C150.534 89.5787 151.5 86.6808 147.966 84.7573Z" fill="black"/>
<path d="M312.566 150.106C307.33 147.25 304.94 149.631 303.042 147.25C301.144 144.869 308.279 138.683 294.001 132.498C294.001 132.498 293.052 119.169 273.528 118.694C254.005 118.22 259.25 132.015 254.039 135.353C248.828 138.692 247.379 133.447 242.176 136.777C236.973 140.107 239.32 146.776 235.033 147.725C230.745 148.674 225.042 143.445 219.78 146.776C214.518 150.106 214.544 152.961 212.154 152.961C209.765 152.961 205.011 151.055 202.155 152.961C199.3 154.868 195.969 157.249 195.969 157.249H316.371C316.371 157.249 317.803 152.961 312.566 150.106Z" fill="black"/>
<path d="M130.18 201.769C124.944 198.914 122.554 201.295 120.656 198.914C118.758 196.533 125.893 190.347 111.615 184.153C111.615 184.153 110.666 170.832 91.1509 170.349C71.6362 169.866 76.8644 183.678 71.6616 187.017C66.4588 190.355 64.9929 185.11 59.7562 188.44C54.5195 191.771 56.9006 198.439 52.6214 199.388C48.3423 200.337 42.6226 195.109 37.3689 198.439C32.1153 201.769 32.1323 204.625 29.7427 204.625C27.3531 204.625 22.6079 202.718 19.7523 204.625C16.8967 206.532 13.5581 208.913 13.5581 208.913H133.985C133.985 208.913 135.417 204.625 130.18 201.769Z" fill="black"/>
<g opacity="0.4">
<path d="M147.966 84.7573C144.433 82.8337 142.823 84.4353 141.543 82.8337C140.264 81.2322 145.077 77.0463 135.434 72.8688C135.434 72.8688 134.79 63.8783 121.622 63.5478C108.454 63.2173 111.988 72.5383 108.42 74.8008C104.853 77.0632 103.921 73.5128 100.387 75.7583C96.8537 78.0038 98.4552 82.5372 95.5657 83.1473C92.6762 83.7574 88.7868 80.2578 85.2872 82.5118C81.7876 84.7657 81.7537 86.6808 80.1437 86.6808C78.5337 86.6808 75.3222 85.4013 73.3648 86.6808C71.4074 87.9603 69.1873 89.5787 69.1873 89.5787H150.534C150.534 89.5787 151.5 86.6808 147.966 84.7573Z" fill="white"/>
<path d="M312.566 150.106C307.33 147.25 304.94 149.631 303.042 147.25C301.144 144.869 308.279 138.683 294.001 132.498C294.001 132.498 293.052 119.169 273.528 118.694C254.005 118.22 259.25 132.015 254.039 135.353C248.828 138.692 247.379 133.447 242.176 136.777C236.973 140.107 239.32 146.776 235.033 147.725C230.745 148.674 225.042 143.445 219.78 146.776C214.518 150.106 214.544 152.961 212.154 152.961C209.765 152.961 205.011 151.055 202.155 152.961C199.3 154.868 195.969 157.249 195.969 157.249H316.371C316.371 157.249 317.803 152.961 312.566 150.106Z" fill="white"/>
<path d="M130.18 201.769C124.944 198.914 122.554 201.295 120.656 198.914C118.758 196.533 125.893 190.347 111.615 184.153C111.615 184.153 110.666 170.832 91.1509 170.349C71.6362 169.866 76.8644 183.678 71.6616 187.017C66.4588 190.355 64.9929 185.11 59.7562 188.44C54.5195 191.771 56.9006 198.439 52.6214 199.388C48.3423 200.337 42.6226 195.109 37.3689 198.439C32.1153 201.769 32.1323 204.625 29.7427 204.625C27.3531 204.625 22.6079 202.718 19.7523 204.625C16.8967 206.532 13.5581 208.913 13.5581 208.913H133.985C133.985 208.913 135.417 204.625 130.18 201.769Z" fill="white"/>
</g>
<path d="M273.511 200.075C273.511 200.075 260.199 197.787 253.353 189.805C246.506 181.822 209.993 138.836 209.993 138.836C209.993 138.836 203.147 136.175 189.072 138.836L205.807 205.777L273.511 200.075Z" fill="black"/>
<path d="M300.517 198.931C300.517 198.931 213.035 199.693 182.225 208.057V214.522C182.225 214.522 222.949 227.419 278.435 239.748C284.869 241.182 291.442 241.907 298.034 241.909H316.871V198.549L300.517 198.931Z" fill="black"/>
<g opacity="0.3">
<path d="M205.367 204.015C225.873 201.549 251.785 200.27 271.393 199.609C267.36 198.6 258.513 195.829 253.353 189.805C252.031 188.262 249.599 185.415 246.574 181.823C232.169 191.771 215.323 197.338 204.435 200.159L205.367 204.015Z" fill="black"/>
<path d="M203.045 194.728C221.687 188.542 228.051 174.154 229.991 162.367L209.993 138.836C209.327 138.604 208.644 138.423 207.951 138.294C208.629 151.614 203.799 164.816 198.215 175.391L203.045 194.728Z" fill="black"/>
<path d="M273.511 227.453C258.403 225.682 208.265 216.751 186.793 212.887V206.955C185.166 207.311 183.632 207.675 182.225 208.057V214.522H182.302L182.513 214.59L184.801 215.293L186.742 215.886C198.834 219.547 233.846 229.809 278.384 239.706C284.818 241.14 291.391 241.865 297.983 241.866H316.871V227.944C305.804 228.453 286.62 228.995 273.511 227.453Z" fill="black"/>
<path d="M204.672 214.903L238.897 213.387L214.933 207.294H201.63L204.672 214.903Z" fill="black"/>
</g>
<path d="M316.871 235.316H10.1263V256.5H316.871V235.316Z" fill="#263238" stroke="#263238" stroke-width="0.847361" stroke-linecap="round" stroke-linejoin="round"/>
<path d="M316.871 157.359H10.1263V162.443H316.871V157.359Z" fill="#263238" stroke="#263238" stroke-width="0.847361" stroke-linecap="round" stroke-linejoin="round"/>
<path d="M48.2575 15.0026V247.179" stroke="#263238" stroke-width="0.847361" stroke-linecap="round" stroke-linejoin="round"/>
<path d="M164.346 15.0026V247.179" stroke="#263238" stroke-width="0.847361" stroke-linecap="round" stroke-linejoin="round"/>
<path d="M280.434 15.0026V247.179" stroke="#263238" stroke-width="0.847361" stroke-linecap="round" stroke-linejoin="round"/>
<path d="M13.1005 75.1652C114.352 75.0804 216.035 75.0804 316.871 75.1652" stroke="#263238" stroke-width="0.847361" stroke-linecap="round" stroke-linejoin="round"/>
<path d="M82.5502 110.559L85.2109 114.347" stroke="#263238" stroke-width="0.847361" stroke-miterlimit="10"/>
<path d="M57.8666 75.4194L79.076 105.619" stroke="#263238" stroke-width="0.847361" stroke-miterlimit="10"/>
<path d="M199.808 199.083L202.469 202.871" stroke="#263238" stroke-width="0.847361" stroke-miterlimit="10"/>
<path d="M175.124 163.943L196.334 194.143" stroke="#263238" stroke-width="0.847361" stroke-miterlimit="10"/>
<path d="M209.536 231.52L212.205 235.316" stroke="#263238" stroke-width="0.847361" stroke-miterlimit="10"/>
<path d="M184.852 196.38L206.07 226.58" stroke="#263238" stroke-width="0.847361" stroke-miterlimit="10"/>
<path d="M113.14 55.8708L115.801 59.6585" stroke="#263238" stroke-width="0.847361" stroke-miterlimit="10"/>
<path d="M88.4563 20.7307L109.666 50.9307" stroke="#263238" stroke-width="0.847361" stroke-miterlimit="10"/>
<path d="M213.637 37.9999L216.298 41.7961" stroke="#263238" stroke-width="0.847361" stroke-miterlimit="10"/>
<path d="M188.953 2.85986L210.163 33.0598" stroke="#263238" stroke-width="0.847361" stroke-miterlimit="10"/>
<path d="M309.185 195.838L311.846 199.626" stroke="#263238" stroke-width="0.847361" stroke-miterlimit="10"/>
<path d="M284.502 160.698L305.711 190.898" stroke="#263238" stroke-width="0.847361" stroke-miterlimit="10"/>
<path d="M77.4491 198.151L80.1098 201.947" stroke="#263238" stroke-width="0.847361" stroke-miterlimit="10"/>
<path d="M52.7655 163.011L73.9834 193.211" stroke="#263238" stroke-width="0.847361" stroke-miterlimit="10"/>
<path d="M96.4554 42.8892L99.1161 46.6854" stroke="#263238" stroke-width="0.847361" stroke-miterlimit="10"/>
<path d="M71.7717 7.74915L92.9812 37.9491" stroke="#263238" stroke-width="0.847361" stroke-miterlimit="10"/>
<path d="M234.355 138.921L237.016 142.717" stroke="#263238" stroke-width="0.847361" stroke-miterlimit="10"/>
<path d="M209.671 103.781L230.889 133.981" stroke="#263238" stroke-width="0.847361" stroke-miterlimit="10"/>
<path d="M12.4396 181.645C13.6513 182.178 16.6764 182.111 16.6764 182.111C16.6764 182.111 16.0409 180.162 15.9816 180.043C15.3291 178.67 13.2616 176.416 11.5838 176.654C11.3021 176.698 11.0331 176.801 10.7946 176.957C10.5561 177.113 10.3535 177.319 10.2004 177.559C10.0473 177.8 9.94718 178.07 9.90664 178.352C9.8661 178.634 9.8861 178.922 9.96531 179.196C10.1808 179.756 10.5128 180.264 10.9393 180.686C11.3659 181.108 11.8773 181.435 12.4396 181.645V181.645Z" fill="#263238"/>
<path d="M51.4437 171.51C49.7489 171.324 47.7492 173.637 47.1391 175.018C47.0798 175.137 46.4612 177.103 46.4951 177.103C46.1816 177.467 45.8426 177.857 45.4782 178.297C44.8173 179.145 44.0801 179.992 43.3429 181.085C42.5388 182.217 41.8003 183.394 41.1313 184.61C40.3781 185.964 39.7458 187.382 39.2417 188.847C39.2453 188.864 39.2453 188.881 39.2417 188.898C39.2417 188.406 39.2417 187.017 39.2417 186.907C39.0468 185.407 37.7927 182.619 36.1234 182.305C35.845 182.262 35.5607 182.278 35.2888 182.352C35.017 182.426 34.7638 182.557 34.5456 182.735C34.3275 182.913 34.1492 183.135 34.0225 183.387C33.8958 183.638 33.8234 183.914 33.8101 184.195C33.832 184.805 33.9875 185.403 34.2657 185.946C34.5439 186.489 34.938 186.965 35.4201 187.339C36.3691 188.186 39.0129 189.033 39.2247 189.076C38.7408 190.593 38.3614 192.142 38.0893 193.711C37.9283 194.618 37.7927 195.533 37.6656 196.456C37.6656 196.033 37.6656 195.609 37.6656 195.609C37.4707 194.109 36.2081 191.321 34.5388 191.008C34.2625 190.964 33.98 190.978 33.7093 191.049C33.4387 191.12 33.186 191.247 32.9674 191.422C32.7488 191.597 32.5691 191.815 32.4399 192.064C32.3107 192.312 32.2348 192.584 32.2171 192.864C32.2435 193.473 32.401 194.069 32.6788 194.611C32.9567 195.154 33.3483 195.63 33.827 196.007C34.9657 196.756 36.2114 197.327 37.5215 197.702C37.4707 198.058 37.4283 198.405 37.3859 198.761C37.1826 200.456 36.9877 202.151 36.742 203.845C36.6572 204.43 36.5471 204.998 36.4454 205.54C36.4454 205.159 36.4454 204.837 36.4454 204.786C36.2505 203.286 34.9879 200.498 33.3186 200.193C33.0402 200.15 32.7559 200.166 32.4841 200.24C32.2123 200.314 31.959 200.444 31.7409 200.623C31.5227 200.801 31.3445 201.023 31.2177 201.274C31.091 201.526 31.0186 201.801 31.0053 202.083C31.0329 202.69 31.191 203.285 31.4688 203.826C31.7466 204.367 32.1377 204.842 32.6153 205.218C33.7141 205.967 34.9236 206.539 36.1996 206.913C36.0725 207.497 35.9539 208.082 35.8099 208.608C35.6997 208.989 35.6234 209.37 35.4879 209.743L35.132 210.861C34.8778 211.556 34.6151 212.285 34.3524 212.963L33.8101 214.327C33.8948 213.751 34.0558 212.632 34.0558 212.505C34.0397 211.174 33.6807 209.87 33.0136 208.718C33.0262 208.568 33.0262 208.418 33.0136 208.269C32.9771 207.99 32.8828 207.723 32.7367 207.483C32.5906 207.244 32.3959 207.038 32.1651 206.878C31.9344 206.718 31.6728 206.609 31.3971 206.556C31.1215 206.504 30.8379 206.51 30.5647 206.574C28.9208 207.014 27.887 209.887 27.8023 211.404C27.8023 211.497 27.8616 212.463 27.904 213.099C27.8277 212.743 27.7515 212.395 27.6583 212.031C27.4888 211.302 27.2939 210.582 27.0905 209.811C26.9804 209.438 26.8617 209.065 26.7516 208.692C26.6414 208.319 26.4889 207.93 26.3533 207.54C26.0313 206.692 25.6585 205.777 25.2602 204.896C26.5883 204.619 27.8658 204.138 29.0479 203.473C29.5423 203.133 29.9578 202.69 30.2663 202.176C30.5748 201.661 30.769 201.086 30.8359 200.49C30.8439 200.208 30.7924 199.927 30.6848 199.666C30.5771 199.405 30.4157 199.17 30.211 198.976C30.0063 198.782 29.763 198.633 29.4969 198.539C29.2308 198.445 28.9479 198.408 28.6666 198.431C26.9719 198.617 25.5144 201.303 25.2094 202.786C25.2094 202.879 25.0907 203.964 25.0484 204.566C24.8111 204.04 24.5739 203.515 24.3112 202.99C23.557 201.464 22.7436 199.956 21.947 198.439C21.7013 197.982 21.4556 197.516 21.2183 197.05C22.5884 196.765 23.908 196.277 25.1331 195.601C25.6402 195.261 26.0678 194.815 26.3866 194.294C26.7054 193.774 26.908 193.19 26.9804 192.584C26.9872 192.303 26.9348 192.023 26.8266 191.763C26.7184 191.503 26.5568 191.269 26.3523 191.076C26.1477 190.882 25.9049 190.734 25.6393 190.641C25.3738 190.547 25.0917 190.511 24.8111 190.533C23.1164 190.711 21.6589 193.406 21.3539 194.889C21.3539 194.999 21.1929 196.583 21.1759 196.965C20.6421 195.939 20.1252 194.923 19.6507 193.889C19.0069 192.5 18.4549 191.071 17.9983 189.61C19.3767 189.326 20.7049 188.838 21.9386 188.161C22.4441 187.82 22.87 187.374 23.1874 186.853C23.5047 186.333 23.7059 185.75 23.7773 185.144C23.7855 184.862 23.7341 184.582 23.6263 184.322C23.5186 184.061 23.357 183.826 23.1522 183.633C22.9473 183.439 22.7039 183.291 22.4378 183.198C22.1717 183.105 21.8889 183.069 21.6081 183.093C19.9134 183.271 18.4644 185.958 18.1593 187.44C18.1593 187.559 17.9814 189.245 17.9729 189.55C17.9729 189.466 17.9136 189.381 17.8882 189.296C17.4694 187.82 17.1857 186.308 17.0408 184.78C16.9391 183.932 16.8968 183.127 16.8713 182.339C18.2425 182.213 19.5859 181.876 20.8539 181.339C21.3963 181.061 21.871 180.668 22.2444 180.186C22.6177 179.704 22.8807 179.146 23.0147 178.552C23.0541 178.272 23.0343 177.988 22.9565 177.717C22.8788 177.446 22.7448 177.194 22.5633 176.979C22.3819 176.763 22.157 176.588 21.9034 176.464C21.6497 176.341 21.373 176.273 21.0912 176.264C19.3965 176.264 17.6424 178.806 17.1764 180.212C17.1764 180.289 16.9815 181.119 16.8629 181.721C16.8629 181.365 16.8629 180.992 16.8629 180.653C16.8629 179.374 16.9476 178.196 17.0323 177.153C17.0832 176.569 17.134 176.035 17.1933 175.535C18.3459 174.793 19.3777 173.879 20.2523 172.823C20.6041 172.325 20.8425 171.756 20.9509 171.156C21.0592 170.556 21.0348 169.939 20.8794 169.349C20.7848 169.084 20.6355 168.842 20.4411 168.638C20.2468 168.434 20.0117 168.273 19.7512 168.166C19.4907 168.059 19.2105 168.008 18.929 168.016C18.6474 168.024 18.3708 168.092 18.117 168.214C16.6171 168.993 16.2189 172.027 16.4222 173.518C16.4222 173.645 17.0154 175.628 17.0408 175.611C16.9815 176.086 16.9137 176.603 16.8544 177.162C16.7527 178.204 16.6426 179.382 16.6087 180.67C16.56 182.058 16.594 183.447 16.7103 184.831C16.8344 186.378 17.0924 187.912 17.4814 189.415C17.4825 189.435 17.4825 189.454 17.4814 189.474C17.2188 189.05 16.4307 187.906 16.3629 187.779C15.3715 186.635 12.7786 185 11.2195 185.669C10.9666 185.79 10.7419 185.962 10.5598 186.175C10.3777 186.388 10.2424 186.636 10.1625 186.905C10.0826 187.173 10.06 187.455 10.0961 187.733C10.1322 188.011 10.2262 188.278 10.3721 188.517C10.7296 189.01 11.1895 189.421 11.7204 189.721C12.2512 190.021 12.8405 190.203 13.448 190.254C14.7106 190.432 17.3713 189.661 17.5831 189.601C18.0151 191.123 18.5531 192.612 19.1931 194.058C19.5575 194.906 19.9473 195.753 20.354 196.6C20.1167 196.245 19.8964 195.931 19.8625 195.889C18.8711 194.745 16.2782 193.118 14.719 193.779C14.4659 193.9 14.2411 194.073 14.0589 194.287C13.8768 194.5 13.7415 194.749 13.6616 195.018C13.5818 195.288 13.5592 195.57 13.5954 195.849C13.6316 196.127 13.7257 196.395 13.8717 196.634C14.2334 197.12 14.6952 197.523 15.2258 197.815C15.7564 198.108 16.3435 198.283 16.9476 198.329C18.31 198.327 19.6642 198.119 20.9641 197.71L21.4386 198.676C22.2097 200.202 22.9808 201.727 23.7011 203.252C23.9468 203.786 24.1756 204.32 24.4044 204.862C24.1925 204.54 24.0061 204.278 23.9722 204.244C22.9893 203.1 20.3964 201.464 18.8372 202.125C18.5841 202.246 18.3593 202.419 18.1771 202.633C17.995 202.847 17.8596 203.096 17.7798 203.365C17.7 203.634 17.6774 203.917 17.7136 204.195C17.7498 204.473 17.8439 204.741 17.9899 204.981C18.3488 205.47 18.8099 205.874 19.3411 206.167C19.8723 206.46 20.4608 206.633 21.0658 206.676C22.3906 206.688 23.709 206.491 24.9721 206.091C25.1924 206.65 25.4127 207.201 25.5992 207.786C25.7178 208.167 25.8618 208.523 25.9635 208.904C26.0652 209.285 26.1669 209.658 26.277 210.031C26.4465 210.76 26.6329 211.505 26.7855 212.217C26.8956 212.709 26.9888 213.183 27.0905 213.658C26.8448 213.124 26.3448 212.082 26.2432 212.005C25.4382 210.717 23.1333 208.718 21.4895 209.133C21.2181 209.21 20.9659 209.343 20.7495 209.524C20.533 209.705 20.3571 209.929 20.2332 210.183C20.1093 210.436 20.0402 210.713 20.0303 210.995C20.0205 211.277 20.0701 211.558 20.1761 211.819C20.4433 212.37 20.8286 212.855 21.3045 213.24C21.7805 213.626 22.3355 213.901 22.93 214.048C24.3034 214.255 25.7002 214.255 27.0736 214.048C27.2261 214.836 27.3701 215.598 27.4973 216.327C27.9464 218.869 28.2175 220.962 28.3446 222.445C28.3446 222.708 28.4039 222.936 28.4293 223.165H23.3452L25.2094 259.534H33.9118L35.776 223.165H31.0562L31.1578 222.945C31.8103 221.581 32.717 219.632 33.6999 217.242C34.0135 216.479 34.327 215.675 34.649 214.836C36.0061 215.151 37.403 215.259 38.7926 215.158C39.3939 215.06 39.967 214.834 40.473 214.495C40.9789 214.155 41.4058 213.711 41.7244 213.192C41.8489 212.939 41.919 212.663 41.9303 212.382C41.9415 212.1 41.8938 211.82 41.79 211.558C41.6862 211.296 41.5287 211.059 41.3277 210.861C41.1267 210.664 40.8866 210.511 40.6229 210.412C39.0129 209.879 36.5555 211.7 35.6573 212.954C35.6065 213.031 35.115 213.87 34.81 214.412C34.9371 214.065 35.0642 213.734 35.1913 213.378C35.4455 212.683 35.6828 211.972 35.937 211.217C36.0471 210.845 36.1658 210.472 36.2759 210.09C36.3861 209.709 36.4793 209.311 36.581 208.921C36.7928 207.997 36.9707 207.057 37.1317 206.108C38.389 206.607 39.7146 206.913 41.0635 207.014C41.6739 207.01 42.2762 206.874 42.829 206.615C43.3818 206.356 43.8722 205.981 44.2665 205.515C44.4274 205.284 44.5379 205.022 44.5909 204.745C44.644 204.469 44.6384 204.185 44.5745 203.911C44.5106 203.637 44.3898 203.379 44.2199 203.155C44.0501 202.93 43.835 202.744 43.5886 202.608C42.0803 201.829 39.3518 203.261 38.3011 204.303C38.2418 204.371 37.5554 205.227 37.1911 205.701C37.2758 205.125 37.369 204.557 37.4453 204.006C37.6486 202.312 37.8096 200.617 37.9791 198.922C38.0299 198.397 38.0808 197.88 38.1401 197.355C39.4399 197.877 40.8112 198.2 42.2074 198.312C42.8172 198.311 43.4193 198.176 43.9712 197.917C44.5232 197.658 45.0116 197.281 45.402 196.812C45.5645 196.582 45.6766 196.321 45.731 196.044C45.7854 195.768 45.7808 195.484 45.7177 195.209C45.6545 194.935 45.5341 194.677 45.3643 194.452C45.1945 194.228 44.9793 194.041 44.7326 193.906C43.2243 193.126 40.4958 194.558 39.445 195.601C39.3688 195.685 38.3858 196.914 38.1486 197.236C38.2672 196.092 38.4028 194.948 38.5723 193.847C38.8031 192.336 39.1315 190.841 39.5552 189.372C39.6569 189.372 42.343 190.423 43.6479 190.33C44.2577 190.329 44.8598 190.194 45.4118 189.935C45.9637 189.676 46.4521 189.299 46.8425 188.83C47.0047 188.6 47.1163 188.338 47.1701 188.061C47.2239 187.784 47.2186 187.499 47.1546 187.225C47.0906 186.951 46.9693 186.693 46.7987 186.469C46.6281 186.244 46.412 186.059 46.1646 185.924C44.6648 185.144 41.9278 186.576 40.8856 187.618C40.8008 187.703 39.7416 189.025 39.5721 189.313C39.5721 189.228 39.5721 189.144 39.6399 189.059C40.1022 187.596 40.6949 186.179 41.4109 184.822C41.8007 184.068 42.2074 183.373 42.6226 182.695C43.8345 183.349 45.1411 183.809 46.4951 184.059C47.1087 184.129 47.7299 184.063 48.3154 183.867C48.9009 183.671 49.4364 183.349 49.8845 182.924C50.0714 182.713 50.2114 182.464 50.2953 182.195C50.3793 181.925 50.4053 181.641 50.3717 181.361C50.3381 181.081 50.2456 180.811 50.1003 180.57C49.955 180.328 49.7602 180.119 49.5286 179.958C48.122 179.018 45.2918 180.145 44.0886 181.094C44.0293 181.145 43.4276 181.738 43.004 182.178C43.1904 181.873 43.3853 181.56 43.5717 181.28C44.2835 180.204 45.0037 179.272 45.6392 178.45C46.0121 177.984 46.351 177.603 46.673 177.187C48.0446 177.203 49.4106 177.009 50.7234 176.611C51.2888 176.387 51.7993 176.045 52.2204 175.606C52.6415 175.167 52.9633 174.643 53.1638 174.069C53.2476 173.787 53.268 173.489 53.2235 173.198C53.179 172.907 53.0707 172.629 52.9064 172.385C52.742 172.14 52.5257 171.935 52.2728 171.784C52.02 171.633 51.7368 171.539 51.4437 171.51V171.51ZM32.8017 216.818C31.7849 219.166 30.8443 221.055 30.1664 222.411L29.8021 223.14H29.6157C29.6157 222.877 29.5479 222.589 29.5055 222.292C29.3021 220.801 28.9717 218.666 28.4717 216.132C28.3107 215.336 28.1328 214.48 27.9294 213.59C28.7258 213.275 29.5013 212.91 30.2512 212.497C31.2773 213.375 32.4175 214.11 33.6406 214.683C33.361 215.429 33.0644 216.149 32.7678 216.818H32.8017Z" fill="#263238"/>
<path d="M42.5548 182.297C42.5548 182.297 43.0971 180.323 43.1141 180.187C43.3259 178.687 42.8429 175.671 41.3177 174.925C41.0606 174.81 40.7823 174.751 40.5008 174.75C40.2193 174.75 39.9409 174.809 39.6836 174.923C39.4263 175.037 39.1959 175.205 39.0074 175.414C38.8188 175.623 38.6763 175.869 38.5892 176.137C38.4535 176.731 38.4476 177.347 38.5719 177.944C38.6962 178.541 38.9478 179.103 39.3094 179.594C40.0297 180.712 42.5548 182.297 42.5548 182.297Z" fill="#263238"/>
<path d="M302.457 34.78H152.474C149.667 34.78 147.39 37.0562 147.39 39.8641V125.448C147.39 128.255 149.667 130.532 152.474 130.532H302.457C305.265 130.532 307.542 128.255 307.542 125.448V39.8641C307.542 37.0562 305.265 34.78 302.457 34.78Z" fill="#263238" stroke="#263238" stroke-width="0.847361" stroke-linecap="round" stroke-linejoin="round"/>
<path d="M146.382 60.2092H308.135" stroke="white" stroke-width="0.847361" stroke-linecap="round" stroke-linejoin="round"/>
<path d="M188.699 49.8121H265.817" stroke="white" stroke-width="1.69472" stroke-linecap="round" stroke-linejoin="round"/>
<path d="M186.521 60.6075V129.642" stroke="white" stroke-width="0.847361" stroke-linecap="round" stroke-linejoin="round"/>
<path d="M228.661 60.6075V129.642" stroke="white" stroke-width="0.847361" stroke-linecap="round" stroke-linejoin="round"/>
<path d="M270.808 60.6075V129.642" stroke="white" stroke-width="0.847361" stroke-linecap="round" stroke-linejoin="round"/>
<path d="M152.398 69.437H162.439" stroke="white" stroke-width="0.847361" stroke-linecap="round" stroke-linejoin="round"/>
<path d="M152.398 74.2585H165.973" stroke="white" stroke-width="0.847361" stroke-linecap="round" stroke-linejoin="round"/>
<path d="M152.398 79.0715H162.439" stroke="white" stroke-width="0.847361" stroke-linecap="round" stroke-linejoin="round"/>
<path d="M152.398 83.8845H170.32" stroke="white" stroke-width="0.847361" stroke-linecap="round" stroke-linejoin="round"/>
<path d="M152.398 88.706H162.439" stroke="white" stroke-width="0.847361" stroke-linecap="round" stroke-linejoin="round"/>
<path d="M152.398 93.519H165.727" stroke="white" stroke-width="0.847361" stroke-linecap="round" stroke-linejoin="round"/>
<path d="M152.398 98.3405H162.439" stroke="white" stroke-width="0.847361" stroke-linecap="round" stroke-linejoin="round"/>
<path d="M152.398 103.154H173.464" stroke="white" stroke-width="0.847361" stroke-linecap="round" stroke-linejoin="round"/>
<path d="M152.398 107.966H162.439" stroke="white" stroke-width="0.847361" stroke-linecap="round" stroke-linejoin="round"/>
<path d="M152.398 112.788H166.456" stroke="white" stroke-width="0.847361" stroke-linecap="round" stroke-linejoin="round"/>
<path d="M152.398 117.601H162.439" stroke="white" stroke-width="0.847361" stroke-linecap="round" stroke-linejoin="round"/>
<path d="M152.398 122.422H162.439" stroke="white" stroke-width="0.847361" stroke-linecap="round" stroke-linejoin="round"/>
<path d="M195.436 69.437H205.468" stroke="white" stroke-width="0.847361" stroke-linecap="round" stroke-linejoin="round"/>
<path d="M195.436 74.2585H209.002" stroke="white" stroke-width="0.847361" stroke-linecap="round" stroke-linejoin="round"/>
<path d="M195.436 79.0715H205.468" stroke="white" stroke-width="0.847361" stroke-linecap="round" stroke-linejoin="round"/>
<path d="M195.436 83.8845H213.357" stroke="white" stroke-width="0.847361" stroke-linecap="round" stroke-linejoin="round"/>
<path d="M195.436 88.706H205.468" stroke="white" stroke-width="0.847361" stroke-linecap="round" stroke-linejoin="round"/>
<path d="M195.436 93.519H208.765" stroke="white" stroke-width="0.847361" stroke-linecap="round" stroke-linejoin="round"/>
<path d="M195.436 98.3405H205.468" stroke="white" stroke-width="0.847361" stroke-linecap="round" stroke-linejoin="round"/>
<path d="M195.436 103.154H216.501" stroke="white" stroke-width="0.847361" stroke-linecap="round" stroke-linejoin="round"/>
<path d="M195.436 107.966H205.468" stroke="white" stroke-width="0.847361" stroke-linecap="round" stroke-linejoin="round"/>
<path d="M195.436 112.788H209.485" stroke="white" stroke-width="0.847361" stroke-linecap="round" stroke-linejoin="round"/>
<path d="M195.436 117.601H205.468" stroke="white" stroke-width="0.847361" stroke-linecap="round" stroke-linejoin="round"/>
<path d="M195.436 122.422H205.468" stroke="white" stroke-width="0.847361" stroke-linecap="round" stroke-linejoin="round"/>
<path d="M238.465 69.437H248.497" stroke="white" stroke-width="0.847361" stroke-linecap="round" stroke-linejoin="round"/>
<path d="M238.465 74.2585H252.039" stroke="white" stroke-width="0.847361" stroke-linecap="round" stroke-linejoin="round"/>
<path d="M238.465 79.0715H248.497" stroke="white" stroke-width="0.847361" stroke-linecap="round" stroke-linejoin="round"/>
<path d="M238.465 83.8845H256.386" stroke="white" stroke-width="0.847361" stroke-linecap="round" stroke-linejoin="round"/>
<path d="M238.465 88.706H248.497" stroke="white" stroke-width="0.847361" stroke-linecap="round" stroke-linejoin="round"/>
<path d="M238.465 93.519H251.794" stroke="white" stroke-width="0.847361" stroke-linecap="round" stroke-linejoin="round"/>
<path d="M238.465 98.3405H248.497" stroke="white" stroke-width="0.847361" stroke-linecap="round" stroke-linejoin="round"/>
<path d="M238.465 103.154H259.53" stroke="white" stroke-width="0.847361" stroke-linecap="round" stroke-linejoin="round"/>
<path d="M238.465 107.966H248.497" stroke="white" stroke-width="0.847361" stroke-linecap="round" stroke-linejoin="round"/>
<path d="M238.465 112.788H252.522" stroke="white" stroke-width="0.847361" stroke-linecap="round" stroke-linejoin="round"/>
<path d="M238.465 117.601H248.497" stroke="white" stroke-width="0.847361" stroke-linecap="round" stroke-linejoin="round"/>
<path d="M238.465 122.422H248.497" stroke="white" stroke-width="0.847361" stroke-linecap="round" stroke-linejoin="round"/>
<path d="M281.494 69.437H291.535" stroke="white" stroke-width="0.847361" stroke-linecap="round" stroke-linejoin="round"/>
<path d="M281.494 74.2585H295.068" stroke="white" stroke-width="0.847361" stroke-linecap="round" stroke-linejoin="round"/>
<path d="M281.494 79.0715H291.535" stroke="white" stroke-width="0.847361" stroke-linecap="round" stroke-linejoin="round"/>
<path d="M281.494 83.8845H299.415" stroke="white" stroke-width="0.847361" stroke-linecap="round" stroke-linejoin="round"/>
<path d="M281.494 88.706H291.535" stroke="white" stroke-width="0.847361" stroke-linecap="round" stroke-linejoin="round"/>
<path d="M281.494 93.519H294.823" stroke="white" stroke-width="0.847361" stroke-linecap="round" stroke-linejoin="round"/>
<path d="M281.494 98.3405H291.535" stroke="white" stroke-width="0.847361" stroke-linecap="round" stroke-linejoin="round"/>
<path d="M281.494 103.154H302.559" stroke="white" stroke-width="0.847361" stroke-linecap="round" stroke-linejoin="round"/>
<path d="M281.494 107.966H291.535" stroke="white" stroke-width="0.847361" stroke-linecap="round" stroke-linejoin="round"/>
<path d="M281.494 112.788H295.551" stroke="white" stroke-width="0.847361" stroke-linecap="round" stroke-linejoin="round"/>
<path d="M281.494 117.601H291.535" stroke="white" stroke-width="0.847361" stroke-linecap="round" stroke-linejoin="round"/>
<path d="M281.494 122.422H291.535" stroke="white" stroke-width="0.847361" stroke-linecap="round" stroke-linejoin="round"/>
<path d="M161.134 53.3033C161.134 53.0152 161.134 52.744 161.134 52.4559C161.134 52.4136 161.185 52.3627 161.228 52.3288L162.228 51.5747C162.275 51.537 162.305 51.4822 162.312 51.4222C162.312 50.3884 162.312 49.3631 162.312 48.3378C162.315 48.3011 162.315 48.2643 162.312 48.2276L157.567 49.7274C157.567 49.6681 157.567 49.6342 157.567 49.5919C157.567 49.2783 157.567 48.9563 157.567 48.6428C157.564 48.6063 157.572 48.5696 157.59 48.5377C157.608 48.5059 157.636 48.4804 157.669 48.4649C159.183 47.5158 160.702 46.5696 162.228 45.6262C162.267 45.6036 162.3 45.5699 162.321 45.5293C162.342 45.4887 162.351 45.4429 162.346 45.3974C162.346 44.3636 162.346 43.3383 162.346 42.3046C162.336 42.1474 162.368 41.9903 162.438 41.8495C162.509 41.7086 162.615 41.589 162.747 41.5028C162.879 41.4166 163.032 41.367 163.189 41.359C163.346 41.351 163.503 41.3849 163.643 41.4572C163.802 41.5302 163.935 41.6509 164.023 41.8027C164.111 41.9544 164.15 42.1298 164.134 42.3046V45.3805C164.13 45.4336 164.141 45.4868 164.167 45.5335C164.192 45.5802 164.231 45.6184 164.278 45.6432L168.786 48.4564C168.828 48.4775 168.864 48.5103 168.888 48.5509C168.912 48.5914 168.923 48.6381 168.922 48.6852C168.922 49.0326 168.922 49.3715 168.922 49.7359L164.151 48.2446C164.151 48.2954 164.151 48.3378 164.151 48.3717V51.3544C164.147 51.3989 164.155 51.4438 164.174 51.4841C164.194 51.5244 164.224 51.5587 164.261 51.5832C164.6 51.8289 164.931 52.0831 165.261 52.3373C165.31 52.3808 165.34 52.4415 165.346 52.5068C165.346 52.761 165.346 53.0152 165.346 53.2948L164.498 53.0491L163.397 52.7356C163.307 52.7186 163.215 52.7186 163.126 52.7356L161.262 53.2694L161.134 53.3033Z" fill="white"/>
<path d="M163.185 55.3454C167.593 55.3454 171.167 51.7717 171.167 47.3632C171.167 42.9548 167.593 39.3811 163.185 39.3811C158.777 39.3811 155.203 42.9548 155.203 47.3632C155.203 51.7717 158.777 55.3454 163.185 55.3454Z" stroke="white" stroke-width="0.847361" stroke-linecap="round" stroke-linejoin="round"/>
<path d="M120.097 299.385C160.882 299.385 193.944 294.598 193.944 288.692C193.944 282.786 160.882 277.998 120.097 277.998C79.312 277.998 46.2493 282.786 46.2493 288.692C46.2493 294.598 79.312 299.385 120.097 299.385Z" fill="black"/>
<path opacity="0.5" d="M120.097 299.385C160.882 299.385 193.944 294.598 193.944 288.692C193.944 282.786 160.882 277.998 120.097 277.998C79.312 277.998 46.2493 282.786 46.2493 288.692C46.2493 294.598 79.312 299.385 120.097 299.385Z" fill="white"/>
<path d="M152.051 223.479C151.826 223.479 151.611 223.389 151.452 223.231C151.293 223.072 151.203 222.856 151.203 222.631V173.62C151.203 173.395 151.293 173.18 151.452 173.021C151.611 172.862 151.826 172.773 152.051 172.773C152.276 172.773 152.491 172.862 152.65 173.021C152.809 173.18 152.898 173.395 152.898 173.62V222.631C152.898 222.856 152.809 223.072 152.65 223.231C152.491 223.389 152.276 223.479 152.051 223.479Z" fill="#263238"/>
<path d="M152.051 183.187C151.714 183.187 151.39 183.053 151.152 182.814C150.914 182.576 150.78 182.253 150.78 181.916V173.62C150.78 173.283 150.914 172.96 151.152 172.721C151.39 172.483 151.714 172.349 152.051 172.349C152.388 172.349 152.711 172.483 152.95 172.721C153.188 172.96 153.322 173.283 153.322 173.62V181.916C153.322 182.253 153.188 182.576 152.95 182.814C152.711 183.053 152.388 183.187 152.051 183.187V183.187Z" fill="#263238"/>
<path d="M150.009 223.479C149.784 223.479 149.568 223.389 149.409 223.231C149.251 223.072 149.161 222.856 149.161 222.631V173.62C149.161 173.395 149.251 173.18 149.409 173.021C149.568 172.862 149.784 172.773 150.009 172.773C150.233 172.773 150.449 172.862 150.608 173.021C150.767 173.18 150.856 173.395 150.856 173.62V222.631C150.856 222.856 150.767 223.072 150.608 223.231C150.449 223.389 150.233 223.479 150.009 223.479Z" fill="#263238"/>
<path d="M150.009 183.187C149.671 183.187 149.348 183.053 149.11 182.814C148.871 182.576 148.738 182.253 148.738 181.916V173.62C148.738 173.283 148.871 172.96 149.11 172.721C149.348 172.483 149.671 172.349 150.009 172.349C150.346 172.349 150.669 172.483 150.907 172.721C151.146 172.96 151.28 173.283 151.28 173.62V181.916C151.28 182.253 151.146 182.576 150.907 182.814C150.669 183.053 150.346 183.187 150.009 183.187V183.187Z" fill="#263238"/>
<path d="M152.051 172.349H150.009V174.832H152.034L152.051 172.349Z" fill="#263238"/>
<path d="M152.644 282.023H150.661V286.124H152.644V282.023Z" fill="#263238" stroke="#263238" stroke-width="0.847361" stroke-linecap="round" stroke-linejoin="round"/>
<path d="M166.642 282.023H164.659V286.124H166.642V282.023Z" fill="#263238" stroke="#263238" stroke-width="0.847361" stroke-linecap="round" stroke-linejoin="round"/>
<path d="M158.44 282.023H156.457V286.124H158.44V282.023Z" fill="#263238" stroke="#263238" stroke-width="0.847361" stroke-linecap="round" stroke-linejoin="round"/>
<path d="M172.447 282.023H170.464V286.124H172.447V282.023Z" fill="#263238" stroke="#263238" stroke-width="0.847361" stroke-linecap="round" stroke-linejoin="round"/>
<path d="M171.125 216.03H151.915C149.421 216.03 147.399 218.053 147.399 220.547V277.608C147.399 280.103 149.421 282.125 151.915 282.125H171.125C173.619 282.125 175.641 280.103 175.641 277.608V220.547C175.641 218.053 173.619 216.03 171.125 216.03Z" fill="white" stroke="#263238" stroke-width="0.847361" stroke-linecap="round" stroke-linejoin="round"/>
<path d="M171.133 216.03H168.583C166.088 216.03 164.066 218.053 164.066 220.547V277.608C164.066 280.103 166.088 282.125 168.583 282.125H171.133C173.628 282.125 175.65 280.103 175.65 277.608V220.547C175.65 218.053 173.628 216.03 171.133 216.03Z" fill="#263238" stroke="#263238" stroke-width="0.847361" stroke-linecap="round" stroke-linejoin="round"/>
<path d="M160.601 216.03C160.007 216.03 159.419 216.148 158.87 216.375C158.322 216.603 157.824 216.936 157.404 217.356C156.985 217.777 156.652 218.275 156.426 218.824C156.199 219.373 156.083 219.962 156.084 220.555V277.6C156.174 278.566 156.52 279.49 157.088 280.277C157.656 281.064 158.424 281.684 159.313 282.074" stroke="#263238" stroke-width="0.847361" stroke-linecap="round" stroke-linejoin="round"/>
<path d="M89.9053 215.531C89.9053 215.531 92.9727 223.097 92.4474 229.758C91.922 236.418 89.9053 247.222 91.3627 251.73C92.8202 256.238 96.0486 274.159 96.0486 274.159C96.0486 274.159 94.4302 275.956 94.4302 277.549C94.4302 279.142 94.9725 287.268 94.9725 287.268H96.0486L97.1333 279.167C97.5783 279.366 97.9718 279.664 98.2833 280.038C98.5948 280.413 98.8159 280.854 98.9297 281.328C99.1076 282.769 99.6499 286.912 100.37 287.09C101.269 287.183 102.175 287.183 103.073 287.09C103.073 287.09 104.149 286.37 103.616 285.828C102.838 285.123 102.329 284.171 102.175 283.133C101.811 281.506 100.912 279.167 100.912 276.108V248.993C100.912 241.07 101.989 234.944 102.353 227.919C102.585 223.962 102.463 219.991 101.989 216.056L89.9053 215.531Z" fill="white"/>
<path d="M90.2527 216.463C90.8579 218.169 91.3532 219.913 91.7356 221.682H102.395C102.319 219.064 102.116 217.217 102.023 216.463H90.2527Z" fill="black"/>
<path opacity="0.5" d="M90.2527 216.463C90.8579 218.169 91.3532 219.913 91.7356 221.682H102.395C102.319 219.064 102.116 217.217 102.023 216.463H90.2527Z" fill="white"/>
<path d="M89.9053 215.531C89.9053 215.531 92.9727 223.097 92.4474 229.758C91.922 236.418 89.9053 247.222 91.3627 251.73C92.8202 256.238 96.0486 274.159 96.0486 274.159C96.0486 274.159 94.4302 275.956 94.4302 277.549C94.4302 279.142 94.9725 287.268 94.9725 287.268H96.0486L97.1333 279.167C97.5783 279.366 97.9718 279.664 98.2833 280.038C98.5948 280.413 98.8159 280.854 98.9297 281.328C99.1076 282.769 99.6499 286.912 100.37 287.09C101.269 287.183 102.175 287.183 103.073 287.09C103.073 287.09 104.149 286.37 103.616 285.828C102.838 285.123 102.329 284.171 102.175 283.133C101.811 281.506 100.912 279.167 100.912 276.108V248.993C100.912 241.07 101.989 234.944 102.353 227.919C102.585 223.962 102.463 219.991 101.989 216.056L89.9053 215.531Z" stroke="#263238" stroke-width="0.847361" stroke-linecap="round" stroke-linejoin="round"/>
<path d="M100.472 287.175H97.7688C97.7688 287.175 96.9215 287.107 96.8198 283.845C96.7837 282.087 96.5679 280.338 96.1758 278.625C96.6791 278.472 97.2137 278.453 97.7266 278.571C98.2394 278.688 98.7126 278.938 99.0992 279.294C100.574 280.54 100.929 285.463 101.107 286.073C101.213 286.464 101.394 286.829 101.641 287.149L100.472 287.175Z" fill="white" stroke="#263238" stroke-width="0.847361" stroke-linecap="round" stroke-linejoin="round"/>
<path d="M102.158 283.167C101.683 281.533 101.307 279.872 101.031 278.193C100.721 277.17 100.312 276.18 99.811 275.236C98.5569 273.075 96.0317 274.159 96.0317 274.159C96.0317 274.159 94.4133 275.956 94.4133 277.549C94.4133 279.142 94.9556 287.268 94.9556 287.268H96.0317L97.1164 279.167C97.5614 279.366 97.9549 279.664 98.2664 280.038C98.5779 280.413 98.799 280.854 98.9128 281.328C99.0907 282.769 99.633 286.912 100.353 287.09C101.252 287.183 102.158 287.183 103.056 287.09C103.056 287.09 104.132 286.37 103.599 285.828C102.828 285.132 102.319 284.193 102.158 283.167V283.167Z" fill="#263238" stroke="#263238" stroke-width="0.847361" stroke-linecap="round" stroke-linejoin="round"/>
<path d="M107.242 216.666C107.242 216.666 108.937 221.903 108.632 224.369C108.327 226.834 100.311 234.376 99.3872 238.85C98.4636 243.324 96.3028 253.484 95.5402 257.797C94.7776 262.11 94.1336 264.652 92.8287 265.813C91.5237 266.974 89.1257 265.906 87.3123 267.965C85.499 270.024 80.1945 276.354 80.1945 276.354L80.9317 277.007L87.1598 273.202C87.1598 273.202 90.0324 274.295 90.0917 275.99C90.2362 278.345 90.5649 280.685 91.0746 282.989C91.4559 284.404 94.0743 287.175 95.7521 287.582C97.4298 287.988 97.3875 285.887 96.7181 285.489C96.0486 285.09 95.0911 282.947 95.2436 280.303C95.3962 277.659 96.4554 269.88 97.4892 268.084C98.5229 266.287 107.708 246.9 112.479 240.697C117.25 234.494 118.792 228.834 119.876 227.292C120.961 225.75 120.953 222.055 120.953 220.055C120.949 218.818 120.847 217.582 120.648 216.361L107.242 216.666Z" fill="white"/>
<path d="M107.242 216.666C107.764 218.309 108.174 219.985 108.471 221.682H120.936C120.936 221.081 120.936 220.521 120.936 220.055C120.929 218.852 120.833 217.651 120.648 216.463H116.14L107.242 216.666Z" fill="black"/>
<path opacity="0.5" d="M107.242 216.666C107.764 218.309 108.174 219.985 108.471 221.682H120.936C120.936 221.081 120.936 220.521 120.936 220.055C120.929 218.852 120.833 217.651 120.648 216.463H116.14L107.242 216.666Z" fill="white"/>
<path d="M107.242 216.666C107.242 216.666 108.937 221.903 108.632 224.369C108.327 226.834 100.311 234.376 99.3872 238.85C98.4636 243.324 96.3028 253.484 95.5402 257.797C94.7776 262.11 94.1336 264.652 92.8287 265.813C91.5237 266.974 89.1257 265.906 87.3123 267.965C85.499 270.024 80.1945 276.354 80.1945 276.354L80.9317 277.007L87.1598 273.202C87.1598 273.202 90.0324 274.295 90.0917 275.99C90.2362 278.345 90.5649 280.685 91.0746 282.989C91.4559 284.404 94.0743 287.175 95.7521 287.582C97.4298 287.988 97.3875 285.887 96.7181 285.489C96.0486 285.09 95.0911 282.947 95.2436 280.303C95.3962 277.659 96.4554 269.88 97.4892 268.084C98.5229 266.287 107.708 246.9 112.479 240.697C117.25 234.494 118.792 228.834 119.876 227.292C120.961 225.75 120.953 222.055 120.953 220.055C120.949 218.818 120.847 217.582 120.648 216.361L107.242 216.666Z" stroke="#263238" stroke-width="0.847361" stroke-linecap="round" stroke-linejoin="round"/>
<path d="M87.1599 273.202C87.1599 273.202 88.4987 276.829 88.3885 278.676C88.2784 280.523 87.4395 281.853 88.2784 283.294C89.1172 284.734 90.5493 286.819 95.7521 287.582C95.7521 287.582 93.0829 282.955 92.9558 279.862C92.8287 276.769 92.3288 271.956 90.8035 271.558C89.2783 271.16 87.2785 271.202 87.1599 273.202Z" fill="white" stroke="#263238" stroke-width="0.847361" stroke-linecap="round" stroke-linejoin="round"/>
<path d="M96.7181 285.489C96.0487 285.124 95.0912 282.947 95.2437 280.303C93.227 277.718 94.3963 273.922 93.0066 270.914C92.2853 269.196 91.0815 267.725 89.5409 266.677V266.677C88.6856 266.849 87.911 267.299 87.3378 267.957C85.516 270.007 80.22 276.346 80.22 276.346L80.9572 276.998L87.1853 273.193C87.1853 273.193 90.0578 274.286 90.1171 275.981C90.2617 278.336 90.5903 280.677 91.1001 282.98C91.4814 284.396 94.0997 287.166 95.7775 287.573C97.4553 287.98 97.4045 285.844 96.7181 285.489Z" fill="#263238" stroke="#263238" stroke-width="0.847361" stroke-linecap="round" stroke-linejoin="round"/>
<path d="M84.5076 128.193C83.0598 130.172 81.9173 132.357 81.1182 134.675C80.042 138.065 70.4923 164.57 72.1192 166.189C73.7461 167.807 90.1256 173.027 90.1256 173.027L92.8287 165.646L83.2789 161.147L89.2105 142.056C89.2105 142.056 90.812 130.71 84.5076 128.193Z" fill="black" stroke="#263238" stroke-width="0.847361" stroke-linecap="round" stroke-linejoin="round"/>
<path d="M75.9238 165.748C79.7624 165.282 83.245 161.172 83.245 161.172C83.2997 163.163 82.6851 165.114 81.4995 166.714" stroke="#263238" stroke-width="0.847361" stroke-linecap="round" stroke-linejoin="round"/>
<path d="M86.8378 148.021C86.8378 148.021 85.3804 146.81 82.4655 140.497" stroke="#263238" stroke-width="0.847361" stroke-linecap="round" stroke-linejoin="round"/>
<path d="M86.5921 149.233C83.8553 147.999 81.1852 146.621 78.593 145.106" stroke="#263238" stroke-width="0.847361" stroke-linecap="round" stroke-linejoin="round"/>
<path d="M91.8882 166.731C91.8882 166.731 87.5666 173.934 84.6856 188.339C82.944 197.897 82.4003 207.634 83.0671 217.327C83.0671 217.327 99.633 220.937 128.986 217.327C128.986 217.327 126.105 180.958 115.301 166.731H91.8882Z" fill="black" stroke="#263238" stroke-width="0.847361" stroke-linecap="round" stroke-linejoin="round"/>
<path d="M82.796 210.412C82.796 214.649 83.0671 217.327 83.0671 217.327C83.0671 217.327 99.633 220.937 128.986 217.327C128.986 217.327 128.774 214.632 128.248 210.421C103.59 212.955 87.7615 211.15 82.796 210.412Z" fill="#263238" stroke="#263238" stroke-width="0.847361" stroke-linecap="round" stroke-linejoin="round"/>
<path d="M94.015 124.948C94.015 124.948 85.9142 126.93 84.4737 128.193C83.0332 129.456 83.7535 136.116 84.6517 140.437C85.5499 144.759 91.8542 166.706 91.8542 166.706H115.267C115.267 166.706 120.673 131.404 120.487 128.346C120.3 125.287 105.903 123.304 105.903 123.304L94.015 124.948Z" fill="black" stroke="#263238" stroke-width="0.847361" stroke-linecap="round" stroke-linejoin="round"/>
<path d="M90.3036 161.147L91.8882 166.731H115.301C115.301 166.731 115.64 164.511 116.148 161.147H90.3036Z" fill="#263238" stroke="#263238" stroke-width="0.847361" stroke-linecap="round" stroke-linejoin="round"/>
<path d="M141.518 168.07C142.445 168.478 143.427 168.746 144.433 168.866C145.492 168.866 149.076 167.273 150.534 167.536C151.991 167.799 154.906 172.442 155.305 173.103C155.703 173.764 153.771 174.366 153.051 174.959C151.847 175.959 150.771 175.044 150.932 174.561L151.195 173.501C151.195 173.501 150.009 172.773 149.204 173.501C148.212 174.362 146.941 174.831 145.628 174.823C144.035 174.823 140.594 172.442 140.594 172.442L141.518 168.07Z" fill="white" stroke="#263238" stroke-width="0.847361" stroke-linecap="round" stroke-linejoin="round"/>
<path d="M113.86 149.258C113.86 149.258 114.58 163.308 115.479 164.748C116.377 166.189 126.282 170.68 131.146 172.129C134.391 173.05 137.703 173.713 141.052 174.111L142.492 167.629C142.492 167.629 130.07 160.783 127.545 159.156C125.02 157.529 123.401 156.275 123.401 156.275C123.401 156.275 122.681 137.183 122.503 133.582C122.325 129.981 122.325 128.185 120.707 127.278C118.966 126.51 117.155 125.908 115.301 125.481" fill="black"/>
<path d="M113.86 149.258C113.86 149.258 114.58 163.308 115.479 164.748C116.377 166.189 126.282 170.68 131.146 172.129C134.391 173.05 137.703 173.713 141.052 174.111L142.492 167.629C142.492 167.629 130.07 160.783 127.545 159.156C125.02 157.529 123.401 156.275 123.401 156.275C123.401 156.275 122.681 137.183 122.503 133.582C122.325 129.981 122.325 128.185 120.707 127.278C118.966 126.51 117.155 125.908 115.301 125.481" stroke="#263238" stroke-width="0.847361" stroke-linecap="round" stroke-linejoin="round"/>
<path d="M119.088 161.359C121.758 159.901 123.401 156.275 123.401 156.275C123.401 156.275 119.088 158.681 115.69 157.224" stroke="#263238" stroke-width="0.847361" stroke-linecap="round" stroke-linejoin="round"/>
<path d="M99.328 97.5779C97.6938 98.0514 96.2154 98.9519 95.0448 100.187C93.8741 101.421 93.0537 102.945 92.6677 104.602C91.0408 110.534 92.3033 116.466 92.3033 118.643C92.3033 120.821 91.0408 130.354 89.7612 137.192C88.4817 144.03 86.7023 151.784 86.7023 151.784C86.7023 151.784 91.9305 153.038 94.4471 153.402L99.6669 154.122L100.574 149.801L101.294 154.3C103.032 154.414 104.776 154.414 106.514 154.3C108.636 154.133 110.712 153.585 112.64 152.682L112.818 150.343L114.614 152.317C115.663 152.039 116.689 151.679 117.682 151.241C119.3 150.521 121.817 149.08 121.817 149.08C121.817 149.08 113.174 127.473 112.098 122.965C111.022 118.457 112.996 115.949 113.716 110.365C114.436 104.78 110.657 96.6797 107.785 96.1373C106.93 95.9921 106.054 96.0642 105.235 96.347C104.416 96.6299 103.681 97.1143 103.099 97.7558C102.524 97.4452 101.886 97.2679 101.234 97.2371C100.581 97.2063 99.9296 97.3227 99.328 97.5779V97.5779Z" fill="#263238" stroke="#263238" stroke-width="0.847361" stroke-linecap="round" stroke-linejoin="round"/>
</svg>
